SplineFontDB: 1.0
FontName: URWGothicL-Book
FullName: URW Gothic L Book
FamilyName: URW Gothic L
Weight: Book
Copyright: Copyright (URW)++,Copyright 1999 by (URW)++ Design & Development; Cyrillic glyphs added by Valek Filippov (C) 2001-2004
Version: 1.06
ItalicAngle: 0
UnderlinePosition: -96
UnderlineWidth: 58
Ascent: 800
Descent: 200
NeedsXUIDChange: 1
UniqueID: 4216284
FSType: 0
OS2WinAscent: 0
OS2WinAOffset: 1
OS2WinDescent: 0
OS2WinDOffset: 1
HheadAscent: 0
HheadAOffset: 1
HheadDescent: 0
HheadDOffset: 1
ScriptLang: 2
 1 latn 1 dflt 
 1 DFLT 1 dflt 
Encoding: adobestandard
UnicodeInterp: none
DisplaySize: -36
AntiAlias: 1
FitToEm: 1
WinInfo: 378 21 14
BeginPrivate: 7
BlueValues 23 [-20 0 547 567 739 759]
BlueScale 8 0.039625
StdHW 4 [68]
StdVW 4 [74]
StemSnapH 4 [68]
StemSnapV 4 [74]
ForceBold 5 false
EndPrivate
BeginChars: 768 662
StartChar: exclam
Encoding: 33 33 2
Width: 295
Flags: W
HStem: 0 21G<111 185> 719 20G<111 185>
VStem: 111 74<0 126 197 739>
Fore
111 0 m 1
 111 126 l 1
 185 126 l 1
 185 0 l 1
 111 0 l 1
111 197 m 1
 111 739 l 1
 185 739 l 1
 185 197 l 1
 111 197 l 1
EndSplineSet
EndChar
StartChar: quotedbl
Encoding: 34 34 3
Width: 309
Flags: W
HStem: 719 20G<74 124 187 237>
VStem: 74 50<513 739> 187 50<513 739>
Fore
237 513 m 1
 187 513 l 1
 187 739 l 1
 237 739 l 1
 237 513 l 1
124 513 m 1
 74 513 l 1
 74 739 l 1
 124 739 l 1
 124 513 l 1
EndSplineSet
EndChar
StartChar: numbersign
Encoding: 35 35 4
Width: 554
Flags: W
HStem: 0 21G<59 124 290 356> 237 61<5 104 181 333 411 534> 453 61<21 145 221 373 450 549> 453 286<198 373 424 549>
DStem: 104 237 169 237 59 0 124 0 145 453 210 453 116 298 181 298 198 739 262 739 156 514 221 514 333 237 399 237 290 0 356 0 373 453 439 453 344 298 411 298 424 739 491 739 384 514 450 514
Fore
534 298 m 1xd0
 534 237 l 1
 399 237 l 1
 356 0 l 1
 290 0 l 1
 333 237 l 1
 169 237 l 1
 124 0 l 1
 59 0 l 1
 104 237 l 1
 5 237 l 1
 5 298 l 1
 116 298 l 1
 145 453 l 1
 21 453 l 1
 21 514 l 1
 156 514 l 1xe0
 198 739 l 1
 262 739 l 1xd0
 221 514 l 1
 384 514 l 1xe0
 424 739 l 1
 491 739 l 1xd0
 450 514 l 1
 549 514 l 1
 549 453 l 1xe0
 439 453 l 1
 411 298 l 1
 534 298 l 1xd0
373 453 m 1
 210 453 l 1xd0
 181 298 l 1
 344 298 l 1
 373 453 l 1
EndSplineSet
EndChar
StartChar: dollar
Encoding: 36 36 5
Width: 554
Flags: W
HStem: -56 146<266 311> 547 21G<403 473> 665 145<245 300>
VStem: 100 74<535 554> 245 66<-56 29 727 810> 405 74<215 233>
Fore
245 -56 m 1
 245 29 l 1
 131 50 71 120 75 228 c 1
 144 228 l 1
 149 142 198 90 277 90 c 0
 351 90 405 146 405 224 c 0
 405 264 390 298 363 321 c 0
 343 337 320 348 270 363 c 0
 195 386 165 403 139 436 c 0
 114 466 100 509 100 552 c 0
 100 642 156 710 245 728 c 1
 245 810 l 1
 311 810 l 1
 311 728 l 1
 409 713 469 646 473 547 c 1
 403 547 l 1
 399 621 356 665 287 665 c 0
 218 665 174 619 174 546 c 0
 174 484 201 458 296 428 c 0
 367 405 397 390 424 363 c 0
 460 329 479 280 479 226 c 0
 479 121 410 40 311 29 c 1
 311 -56 l 1
 245 -56 l 1
EndSplineSet
EndChar
StartChar: percent
Encoding: 37 37 6
Width: 775
Flags: W
HStem: -13 66<576 590> 272 66<572 590> 397 66<188 192> 683 66<180 192>
VStem: 13 66<573 580> 296 68<573 580> 401 67<147.265 165> 684 68<147.265 165>
DStem: 514 739 588 739 182 0 254 0
Fore
514 739 m 1
 588 739 l 1
 254 0 l 1
 182 0 l 1
 514 739 l 1
578 338 m 0
 673 338 752 258 752 163 c 0
 752 66 673 -13 576 -13 c 0
 480 -13 401 66 401 162 c 0
 401 260 479 338 578 338 c 0
577 272 m 0
 516 272 468 224 468 162 c 0
 468 102 517 53 576 53 c 0
 635 53 684 102 684 162 c 0
 684 222 636 272 577 272 c 0
190 749 m 0
 285 749 364 669 364 573 c 0
 364 476 285 397 188 397 c 0
 92 397 13 476 13 573 c 0
 13 671 91 749 190 749 c 0
189 683 m 0
 128 683 79 634 79 573 c 0
 79 513 128 463 188 463 c 0
 247 463 296 512 296 573 c 0
 296 633 248 683 189 683 c 0
EndSplineSet
EndChar
StartChar: ampersand
Encoding: 38 38 7
Width: 757
Flags: W
HStem: -13 67<278 302> 685 67<312 330>
VStem: 57 73<194 222> 145 74<578 596> 428 70<578 596>
DStem: 280 380 354 411 458 206 494 273 513 153 548 220 684 -13 735 38 602 481 684 481 494 273 548 220
Fore
602 481 m 1
 684 481 l 1
 548 220 l 1
 735 38 l 1
 684 -13 l 1
 513 153 l 1
 455 37 388 -13 290 -13 c 0
 223 -13 166 9 123 52 c 0
 82 94 57 154 57 213 c 0
 57 278 86 336 138 378 c 0
 160 395 184 411 227 433 c 1
 165 498 145 537 145 588 c 0
 145 680 223 752 320 752 c 0
 422 752 498 680 498 583 c 0
 498 529 477 489 431 455 c 0
 415 443 399 434 354 411 c 1
 494 273 l 1
 602 481 l 1
458 206 m 1
 280 380 l 1
 171 327 130 279 130 205 c 0
 130 121 199 54 285 54 c 0
 356 54 404 96 458 206 c 1
300 464 m 1
 389 498 428 537 428 589 c 0
 428 643 382 685 322 685 c 0
 264 685 219 643 219 590 c 0
 219 552 242 517 300 464 c 1
EndSplineSet
EndChar
StartChar: quoteright
Encoding: 39 8217 8
Width: 351
Flags: W
HStem: 547 21G<91 165> 719 20G<179 253>
DStem: 179 739 253 739 91 547 165 547
Fore
91 547 m 1
 179 739 l 1
 253 739 l 1
 165 547 l 1
 91 547 l 1
EndSplineSet
KernsSLIF: 65 -105 1 0 225 -183 1 0 257 -105 1 0 256 -105 1 0 262 -105 1 0 44 -100 1 0 100 -56 1 0 111 -55 1 0 46 -80 1 0 114 -30 1 0 115 -27 1 0 116 -32 1 0 118 -21 1 0 119 -19 1 0 121 -21 1 0
EndChar
StartChar: parenleft
Encoding: 40 40 9
Width: 369
Flags: W
VStem: 57 74<309 324>
Fore
335 739 m 1
 335 676 l 1
 277 641 240 606 206 551 c 1
 156 474 131 391 131 309 c 0
 131 214 166 115 226 35 c 0
 255 -3 285 -29 335 -60 c 1
 335 -125 l 1
 259 -97 207 -57 153 19 c 0
 89 107 57 205 57 309 c 0
 57 435 111 566 201 656 c 0
 242 698 277 719 335 739 c 1
EndSplineSet
EndChar
StartChar: parenright
Encoding: 41 41 10
Width: 369
Flags: W
VStem: 238 74<290 324>
Fore
34 -125 m 1
 34 -61 l 1
 92 -27 129 9 163 63 c 0
 213 141 238 224 238 306 c 0
 238 400 203 499 143 579 c 0
 114 617 84 644 34 674 c 1
 34 739 l 1
 110 712 162 671 216 595 c 0
 280 507 312 409 312 305 c 0
 312 179 258 49 168 -42 c 0
 127 -83 92 -105 34 -125 c 1
EndSplineSet
EndChar
StartChar: asterisk
Encoding: 42 42 11
Width: 425
Flags: W
DStem: 113 724 162 752 169 632 215 662 169 585 213 559 112 496 160 468 213 559 258 585 266 468 313 495 267 752 314 724 215 662 257 632
Fore
267 752 m 1
 314 724 l 1
 257 632 l 1
 360 635 l 1
 360 583 l 1
 258 585 l 1
 313 495 l 1
 266 468 l 1
 213 559 l 1
 160 468 l 1
 112 496 l 1
 169 585 l 1
 64 583 l 1
 64 635 l 1
 169 632 l 1
 113 724 l 1
 162 752 l 1
 215 662 l 1
 267 752 l 1
EndSplineSet
EndChar
StartChar: plus
Encoding: 43 43 12
Width: 606
Flags: W
HStem: 267 74<51 265 342 555> 537 20G<265 342>
VStem: 265 77<49 267 341 557>
Fore
265 341 m 1
 265 557 l 1
 342 557 l 1
 342 341 l 1
 555 341 l 1
 555 267 l 1
 342 267 l 1
 342 49 l 1
 265 49 l 1
 265 267 l 1
 51 267 l 1
 51 341 l 1
 265 341 l 1
EndSplineSet
EndChar
StartChar: comma
Encoding: 44 44 13
Width: 277
Flags: W
DStem: 179 126 253 126 91 -67 165 -67
Fore
91 -67 m 1
 179 126 l 1
 253 126 l 1
 165 -67 l 1
 91 -67 l 1
EndSplineSet
KernsSLIF: 49 -64 1 0 186 -17 1 0 39 -19 1 0
EndChar
StartChar: hyphen
Encoding: 45 45 14
Width: 332
Flags: W
HStem: 233 63<31 302>
Fore
31 296 m 1
 302 296 l 1
 302 233 l 1
 31 233 l 1
 31 296 l 1
EndSplineSet
KernsSLIF: 65 13 1 0 225 -21 1 0 257 13 1 0 256 13 1 0 262 13 1 0 84 -11 1 0 86 -24 1 0 87 4 1 0 89 -43 1 0
EndChar
StartChar: period
Encoding: 46 46 15
Width: 277
Flags: W
HStem: 0 21G<101 175>
VStem: 101 74<0 126>
Fore
101 0 m 1
 101 126 l 1
 175 126 l 1
 175 0 l 1
 101 0 l 1
EndSplineSet
KernsSLIF: 49 -100 1 0 186 -56 1 0 39 -58 1 0
EndChar
StartChar: slash
Encoding: 47 47 16
Width: 437
Flags: W
HStem: 719 20G<327 397>
DStem: 327 739 397 739 40 -128 107 -128
Fore
40 -128 m 1
 327 739 l 1
 397 739 l 1
 107 -128 l 1
 40 -128 l 1
EndSplineSet
EndChar
StartChar: zero
Encoding: 48 48 17
Width: 554
Flags: W
HStem: -13 67<269 287> 685 67<269 286>
VStem: 30 73<242 500> 452 73<242 500>
Fore
30 269 m 2
 30 479 l 2
 30 566 46 623 83 669 c 0
 126 723 194 752 277 752 c 0
 365 752 438 717 482 653 c 0
 514 608 525 563 525 479 c 2
 525 269 l 2
 525 186 510 122 481 79 c 0
 439 18 372 -13 283 -13 c 0
 184 -13 109 25 66 98 c 0
 42 139 30 195 30 269 c 2
452 281 m 2
 452 462 l 2
 452 543 443 585 418 619 c 0
 387 661 336 685 278 685 c 0
 213 685 158 656 129 607 c 0
 111 576 103 531 103 462 c 2
 103 281 l 2
 103 205 113 157 136 124 c 0
 167 78 217 54 280 54 c 0
 348 54 402 83 428 134 c 0
 444 165 452 216 452 281 c 2
EndSplineSet
KernsSLIF: 52 22 1 0 49 -66 1 0 55 -30 1 0
EndChar
StartChar: one
Encoding: 49 49 18
Width: 554
Flags: W
HStem: 0 21G<281 354> 672 67<155 281>
VStem: 281 73<0 739>
Fore
281 0 m 1
 281 672 l 1
 155 672 l 1
 155 739 l 1
 354 739 l 1
 354 0 l 1
 281 0 l 1
EndSplineSet
KernsSLIF: 44 -77 1 0 56 -46 1 0 53 -46 1 0 52 -62 1 0 57 -52 1 0 49 -133 1 0 46 -58 1 0 55 -88 1 0 54 -49 1 0 51 -55 1 0 50 -51 1 0 48 -27 1 0
EndChar
StartChar: two
Encoding: 50 50 19
Width: 554
Flags: W
HStem: 0 67<133 502> 685 67<256 292>
VStem: 39 73<500 529.706> 432 74<525 545>
DStem: 292 317 370 294 33 67 133 67
Fore
33 0 m 1
 33 67 l 1
 292 317 l 2
 358 380 358 380 380 407 c 0
 416 449 432 487 432 531 c 0
 432 620 365 685 272 685 c 0
 209 685 157 654 131 602 c 0
 118 575 112 546 112 500 c 1
 39 500 l 1
 39 552 42 573 55 608 c 0
 88 698 170 752 273 752 c 0
 408 752 506 657 506 527 c 0
 506 448 474 393 370 294 c 2
 133 67 l 1
 502 67 l 1
 502 0 l 1
 33 0 l 1
EndSplineSet
KernsSLIF: 52 -19 1 0 49 -81 1 0 55 -35 1 0
EndChar
StartChar: three
Encoding: 51 51 20
Width: 554
Flags: W
HStem: -13 67<253 274> 388 64<219 255> 555 21G<82 155> 685 67<269 275>
VStem: 381 74<553 580> 430 74<210 233>
Fore
155 555 m 1xf8
 82 555 l 1
 86 676 158 752 269 752 c 0
 378 752 455 675 455 565 c 0xf8
 455 504 431 459 379 423 c 1
 462 381 504 313 504 224 c 0
 504 91 402 -13 272 -13 c 0
 184 -13 106 31 65 103 c 0
 44 140 35 177 33 231 c 1
 106 231 l 1
 110 178 117 153 135 126 c 0
 166 80 214 54 270 54 c 0
 360 54 430 126 430 220 c 0xf4
 430 298 379 364 305 382 c 0
 285 386 268 387 219 388 c 1
 219 454 l 1
 236 453 l 2
 245 452 252 452 255 452 c 0
 332 452 381 498 381 568 c 0
 381 637 335 685 269 685 c 0
 197 685 156 637 155 555 c 1xf8
EndSplineSet
KernsSLIF: 52 12 1 0 49 -91 1 0 55 -51 1 0
EndChar
StartChar: four
Encoding: 52 52 21
Width: 554
Flags: W
HStem: 0 21G<386 459> 135 67<97 386 459 527> 719 20G<372 459>
VStem: 386 73<0 135 202 739>
DStem: 372 739 386 637 12 202 97 202
Fore
386 0 m 1
 386 135 l 1
 12 135 l 1
 12 202 l 1
 372 739 l 1
 459 739 l 1
 459 202 l 1
 527 202 l 1
 527 135 l 1
 459 135 l 1
 459 0 l 1
 386 0 l 1
386 202 m 1
 386 637 l 1
 97 202 l 1
 386 202 l 1
EndSplineSet
KernsSLIF: 52 24 1 0 49 -81 1 0 55 -35 1 0
EndChar
StartChar: five
Encoding: 53 53 22
Width: 554
Flags: W
HStem: -13 67<265 286> 436 67<265 285> 672 67<133 466>
VStem: 454 74<246 260>
DStem: 133 739 192 672 67 375 156 468
Fore
67 375 m 1
 133 739 l 1
 466 739 l 1
 466 672 l 1
 192 672 l 1
 156 468 l 1
 201 493 239 503 283 503 c 0
 421 503 528 390 528 246 c 0
 528 101 419 -13 280 -13 c 0
 181 -13 94 43 51 134 c 0
 38 163 33 183 26 232 c 1
 98 232 l 1
 111 127 184 54 277 54 c 0
 376 54 454 138 454 246 c 0
 454 354 377 436 277 436 c 0
 219 436 169 409 124 353 c 1
 67 375 l 1
EndSplineSet
KernsSLIF: 52 24 1 0 49 -77 1 0 55 -32 1 0
EndChar
StartChar: six
Encoding: 54 54 23
Width: 554
Flags: W
HStem: -13 67<280 298> 436 67<276 298> 719 20G<296 381>
VStem: 25 74<226 260> 455 74<226 260>
DStem: 296 739 381 739 113 467 207 482
Fore
296 739 m 1
 381 739 l 1
 207 482 l 1
 240 497 263 503 294 503 c 0
 425 503 529 391 529 249 c 0
 529 98 424 -13 280 -13 c 0
 134 -13 25 97 25 244 c 0
 25 317 43 362 113 467 c 2
 296 739 l 1
278 436 m 0
 177 436 99 354 99 248 c 0
 99 136 176 54 280 54 c 0
 381 54 455 135 455 246 c 0
 455 356 381 436 278 436 c 0
EndSplineSet
KernsSLIF: 52 24 1 0 49 -94 1 0 55 -64 1 0
EndChar
StartChar: seven
Encoding: 55 55 24
Width: 554
Flags: W
HStem: 0 21G<110 188> 672 67<64 414>
DStem: 414 672 490 672 110 0 188 0
Fore
110 0 m 1
 414 672 l 1
 64 672 l 1
 64 739 l 1
 490 739 l 1
 490 672 l 1
 188 0 l 1
 110 0 l 1
EndSplineSet
KernsSLIF: 58 -75 1 0 44 -133 1 0 56 -41 1 0 53 -47 1 0 52 -81 1 0 49 -65 1 0 46 -115 1 0 55 -20 1 0 54 -60 1 0 51 -42 1 0 50 -27 1 0
EndChar
StartChar: eight
Encoding: 56 56 25
Width: 554
Flags: W
HStem: -13 67<265 299> 375 69<265 283> 685 67<265 284>
VStem: 42 74<210 228> 81 74<559 580> 399 74<559 580> 438 74<210 228>
Fore
167 413 m 1xf2
 142 428 131 436 119 451 c 0
 95 479 81 519 81 561 c 0
 81 670 166 752 278 752 c 0
 391 752 473 672 473 561 c 0xec
 473 488 445 441 385 413 c 1
 467 377 512 309 512 218 c 0
 512 84 415 -13 280 -13 c 0
 144 -13 42 85 42 215 c 0
 42 304 86 374 167 413 c 1xf2
278 375 m 0
 183 375 116 309 116 216 c 0
 116 121 183 54 279 54 c 0
 372 54 438 122 438 216 c 0xf2
 438 309 371 375 278 375 c 0
277 685 m 0
 206 685 155 636 155 567 c 0
 155 496 208 444 281 444 c 0
 348 444 399 496 399 565 c 0xec
 399 635 348 685 277 685 c 0
EndSplineSet
KernsSLIF: 52 17 1 0 49 -84 1 0 55 -43 1 0
EndChar
StartChar: nine
Encoding: 57 57 26
Width: 554
Flags: W
HStem: 0 21G<173 258> 236 67<256 278> 685 67<274 282>
VStem: 25 74<479 513> 455 74<479 513>
DStem: 347 257 441 272 173 0 258 0
Fore
258 0 m 1
 173 0 l 1
 347 257 l 1
 314 242 291 236 260 236 c 0
 129 236 25 348 25 490 c 0
 25 641 130 752 274 752 c 0
 420 752 529 642 529 495 c 0
 529 422 511 377 441 272 c 2
 258 0 l 1
274 685 m 0
 173 685 99 605 99 493 c 0
 99 383 173 303 276 303 c 0
 377 303 455 385 455 491 c 0
 455 603 378 685 274 685 c 0
EndSplineSet
KernsSLIF: 52 -33 1 0 49 -77 1 0 55 -31 1 0
EndChar
StartChar: colon
Encoding: 58 58 27
Width: 277
Flags: W
HStem: 0 21G<101 175>
VStem: 101 74<0 126 381 507>
Fore
101 0 m 1
 101 126 l 1
 175 126 l 1
 175 0 l 1
 101 0 l 1
101 381 m 1
 101 507 l 1
 175 507 l 1
 175 381 l 1
 101 381 l 1
EndSplineSet
EndChar
StartChar: semicolon
Encoding: 59 59 28
Width: 277
Flags: W
VStem: 125 74<381 507>
DStem: 129 126 203 126 41 -67 115 -67
Fore
41 -67 m 1
 129 126 l 1
 203 126 l 1
 115 -67 l 1
 41 -67 l 1
125 381 m 1
 125 507 l 1
 199 507 l 1
 199 381 l 1
 125 381 l 1
EndSplineSet
EndChar
StartChar: less
Encoding: 60 60 29
Width: 606
Flags: W
DStem: 49 268 157 300 558 37 558 115 558 565 558 487 49 333 157 300
Fore
558 565 m 1
 558 487 l 1
 157 300 l 1
 558 115 l 1
 558 37 l 1
 49 268 l 1
 49 333 l 1
 558 565 l 1
EndSplineSet
EndChar
StartChar: equal
Encoding: 61 61 30
Width: 606
Flags: W
HStem: 164 74<51 555> 362 74<51 555>
Fore
555 436 m 1
 555 362 l 1
 51 362 l 1
 51 436 l 1
 555 436 l 1
555 238 m 1
 555 164 l 1
 51 164 l 1
 51 238 l 1
 555 238 l 1
EndSplineSet
EndChar
StartChar: greater
Encoding: 62 62 31
Width: 606
Flags: W
DStem: 48 487 48 565 450 302 557 334 450 302 557 269 48 115 48 37
Fore
48 37 m 1
 48 115 l 1
 450 302 l 1
 48 487 l 1
 48 565 l 1
 557 334 l 1
 557 269 l 1
 48 37 l 1
EndSplineSet
EndChar
StartChar: question
Encoding: 63 63 32
Width: 591
Flags: W
HStem: 0 21G<261 335> 685 67<299 306>
VStem: 261 74<0 126 193 210.501> 451 74<527 545>
Fore
261 0 m 1
 261 126 l 1
 335 126 l 1
 335 0 l 1
 261 0 l 1
135 508 m 1
 65 508 l 1
 67 573 76 609 101 649 c 0
 143 715 214 752 299 752 c 0
 430 752 525 661 525 535 c 0
 525 470 501 425 435 365 c 1
 361 300 334 256 333 193 c 1
 263 193 l 1
 264 275 291 327 367 397 c 0
 435 461 451 488 451 537 c 0
 451 623 387 685 299 685 c 0
 239 685 186 656 159 608 c 0
 145 583 139 557 135 508 c 1
EndSplineSet
EndChar
StartChar: at
Encoding: 64 64 33
Width: 867
Flags: W
HStem: -13 50<438 478> 139 52<564 581> 144 58<357 376> 539 54<452 478> 701 51<438 478>
VStem: 71 52<354 388> 219 72<289 308> 747 50<418 452>
Fore
656 574 m 1xbf
 563 296 l 1
 543 235 543 234 543 219 c 0
 543 203 557 191 577 191 c 0
 602 191 637 210 666 240 c 1
 718 291 747 362 747 434 c 0
 747 585 620 701 452 701 c 0
 271 701 123 551 123 368 c 0
 123 184 269 37 453 37 c 0
 544 37 624 72 687 138 c 1
 727 105 l 1
 665 32 559 -13 451 -13 c 0
 239 -13 71 155 71 367 c 0
 71 580 241 752 453 752 c 0
 539 752 626 721 689 667 c 0
 760 607 797 527 797 433 c 0
 797 342 761 259 695 198 c 0
 652 158 610 139 564 139 c 0xdf
 517 139 492 155 476 196 c 1
 439 159 404 144 357 144 c 0
 276 144 219 205 219 292 c 0
 219 445 339 593 463 593 c 0
 493 593 522 585 543 571 c 0
 559 561 567 549 578 524 c 1
 595 574 l 1
 656 574 l 1xbf
466 539 m 0
 378 539 291 417 291 294 c 0
 291 239 323 202 371 202 c 0xbf
 416 202 451 229 486 291 c 0
 515 344 540 421 540 459 c 0
 540 508 511 539 466 539 c 0
EndSplineSet
EndChar
StartChar: A
Encoding: 65 65 34
Width: 740
Flags: W
HStem: 0 21G<11 89 648 729> 249 67<225 541> 719 20G<328 411>
DStem: 328 739 370 655 11 0 225 316 328 739 197 249 11 0 89 0 370 655 411 739 512 316 729 0 541 249 411 739 648 0 729 0
Fore
11 0 m 1
 328 739 l 1
 411 739 l 1
 729 0 l 1
 648 0 l 1
 541 249 l 1
 197 249 l 1
 89 0 l 1
 11 0 l 1
225 316 m 1
 512 316 l 1
 370 655 l 1
 225 316 l 1
EndSplineSet
KernsSLIF: 67 -36 0 0 264 -37 0 0 71 -38 0 0 79 -38 0 0 286 -38 0 0 81 -38 0 0 84 -50 0 0 85 -29 0 0 299 -29 0 0 301 -29 0 0 298 -29 0 0 300 -29 0 0 86 -72 0 0 87 -47 0 0 89 -77 0 0 97 -20 0 0 98 5 0 0 99 -22 0 0 332 -22 0 0 44 -5 0 0 100 -21 0 0 101 -21 0 0 103 -23 0 0 171 -22 0 0 172 -22 0 0 45 13 0 0 111 -20 0 0 46 13 0 0 113 -21 0 0 186 -90 0 0 39 -92 0 0 116 -28 0 0 117 -15 0 0 118 -39 0 0 119 -33 0 0 121 -37 0 0
EndChar
StartChar: B
Encoding: 66 66 35
Width: 574
Flags: W
HStem: 0 67<150 285> 354 67<150 285> 672 67<76 269>
VStem: 76 74<0 354 0 672> 427 75<527 561> 469 75<191 225>
Fore
76 0 m 1xf4
 76 739 l 1
 249 739 l 2
 339 739 394 726 436 696 c 0
 478 665 502 611 502 547 c 0xf8
 502 474 477 426 420 394 c 1
 506 359 544 302 544 212 c 0
 544 136 513 71 461 39 c 0
 414 11 358 0 259 0 c 2
 76 0 l 1xf4
150 67 m 1
 251 67 l 2
 326 67 376 75 411 94 c 0
 446 112 469 157 469 208 c 0xf4
 469 267 444 311 400 333 c 0
 369 348 325 354 238 354 c 2
 150 354 l 1
 150 67 l 1
150 421 m 1
 240 421 l 2
 307 421 339 426 370 440 c 0
 407 457 427 495 427 546 c 0xf8
 427 589 410 629 384 646 c 0
 356 665 315 672 239 672 c 2
 150 672 l 1
 150 421 l 1
EndSplineSet
KernsSLIF: 65 -8 0 0 225 -21 0 0 257 -8 0 0 259 -8 0 0 256 -8 0 0 262 -8 0 0 261 -8 0 0 79 6 0 0 234 7 0 0 287 6 0 0 289 6 0 0 286 6 0 0 288 6 0 0 233 9 0 0 86 -24 0 0 87 -2 0 0 89 -26 0 0
EndChar
StartChar: C
Encoding: 67 67 36
Width: 813
Flags: W
HStem: -13 68<411 445> 547 21G<684 767> 684 68<411 445>
VStem: 44 75<354 388>
Fore
688 194 m 1
 770 194 l 1
 696 57 582 -13 432 -13 c 0
 211 -13 44 151 44 367 c 0
 44 588 207 752 427 752 c 0
 580 752 710 674 767 547 c 1
 684 547 l 1
 656 591 636 613 603 634 c 0
 554 667 494 684 430 684 c 0
 254 684 119 548 119 370 c 0
 119 197 260 55 431 55 c 0
 498 55 565 77 614 116 c 0
 639 135 657 155 688 194 c 1
EndSplineSet
KernsSLIF: 65 -22 0 0 225 -45 0 0 257 -22 0 0 256 -22 0 0 262 -22 0 0 79 -18 0 0 287 -18 0 0 286 -18 0 0
EndChar
StartChar: D
Encoding: 68 68 37
Width: 744
Flags: W
HStem: 0 67<150 301> 672 67<76 301>
VStem: 76 74<0 672> 625 75<351 385>
Fore
76 0 m 1
 76 739 l 1
 250 739 l 2
 384 739 462 723 532 681 c 0
 642 616 700 506 700 367 c 0
 700 229 641 121 529 55 c 0
 464 17 386 0 275 0 c 2
 76 0 l 1
150 67 m 1
 253 67 l 2
 384 67 460 86 519 133 c 0
 587 188 625 273 625 370 c 0
 625 480 576 573 491 624 c 0
 435 658 365 672 253 672 c 2
 150 672 l 1
 150 67 l 1
EndSplineSet
KernsSLIF: 65 -37 0 0 257 -37 0 0 259 -37 0 0 256 -37 0 0 258 -37 0 0 262 -37 0 0 261 -37 0 0 74 -5 0 0 84 -40 0 0 86 -36 0 0 87 -14 0 0 88 -29 0 0 89 -44 0 0
EndChar
StartChar: E
Encoding: 69 69 38
Width: 536
Flags: W
HStem: 0 67<150 480> 340 67<150 469> 672 67<76 480>
VStem: 76 74<0 340 0 672>
Fore
76 0 m 1
 76 739 l 1
 480 739 l 1
 480 672 l 1
 150 672 l 1
 150 407 l 1
 469 407 l 1
 469 340 l 1
 150 340 l 1
 150 67 l 1
 480 67 l 1
 480 0 l 1
 76 0 l 1
EndSplineSet
EndChar
StartChar: F
Encoding: 70 70 39
Width: 485
Flags: W
HStem: 0 21G<76 150> 338 67<150 440> 672 67<76 451>
VStem: 76 74<0 338 0 672>
Fore
76 0 m 1
 76 739 l 1
 451 739 l 1
 451 672 l 1
 150 672 l 1
 150 405 l 1
 440 405 l 1
 440 338 l 1
 150 338 l 1
 150 0 l 1
 76 0 l 1
EndSplineSet
KernsSLIF: 65 -56 0 0 257 -56 0 0 259 -56 0 0 256 -56 0 0 258 -56 0 0 262 -56 0 0 261 -56 0 0 74 -55 0 0 97 -3 0 0 323 -3 0 0 322 -3 0 0 241 -3 0 0 328 -3 0 0 44 -98 0 0 101 -3 0 0 335 -3 0 0 45 23 0 0 105 -5 0 0 106 -7 0 0 111 -3 0 0 352 -3 0 0 351 -3 0 0 250 -3 0 0 249 -5 0 0 46 -80 0 0 114 -11 0 0 117 -11 0 0
EndChar
StartChar: G
Encoding: 71 71 40
Width: 872
Flags: W
HStem: -13 68<427 461> 274 67<329 742> 684 68<427 461>
VStem: 44 75<354 388>
Fore
329 341 m 1
 831 341 l 1
 826 258 794 181 734 112 c 0
 663 31 563 -13 446 -13 c 0
 220 -13 44 155 44 371 c 0
 44 585 216 752 436 752 c 0
 597 752 737 668 786 542 c 1
 703 542 l 1
 652 632 556 684 442 684 c 0
 260 684 119 547 119 369 c 0
 119 193 262 55 443 55 c 0
 529 55 607 86 664 143 c 0
 706 185 731 226 742 274 c 1
 329 274 l 1
 329 341 l 1
EndSplineSet
KernsSLIF: 65 -40 0 0 225 -64 0 0 257 -40 0 0 259 -40 0 0 256 -40 0 0 258 -40 0 0 262 -40 0 0 261 -40 0 0 84 -45 0 0 86 -43 0 0 87 -22 0 0 89 -48 0 0
EndChar
StartChar: H
Encoding: 72 72 41
Width: 683
Flags: W
HStem: 347 67<150 533> 719 20G<76 150 533 607>
VStem: 76 74<0 347 0 739> 533 74<0 739>
Fore
76 0 m 1
 76 739 l 1
 150 739 l 1
 150 414 l 1
 533 414 l 1
 533 739 l 1
 607 739 l 1
 607 0 l 1
 533 0 l 1
 533 347 l 1
 150 347 l 1
 150 0 l 1
 76 0 l 1
EndSplineSet
EndChar
StartChar: I
Encoding: 73 73 42
Width: 226
Flags: W
HStem: 0 21G<76 150> 719 20G<76 150>
VStem: 76 74<0 739>
Fore
76 0 m 1
 76 739 l 1
 150 739 l 1
 150 0 l 1
 76 0 l 1
EndSplineSet
EndChar
StartChar: J
Encoding: 74 74 43
Width: 482
Flags: W
HStem: -14 68<202 220> 719 20G<332 406>
VStem: 332 74<231 739>
Fore
406 739 m 1
 406 231 l 2
 406 177 394 114 377 82 c 0
 346 19 287 -14 209 -14 c 0
 91 -14 17 57 11 175 c 1
 84 175 l 1
 89 100 137 54 210 54 c 0
 290 54 332 114 332 231 c 2
 332 739 l 1
 406 739 l 1
EndSplineSet
KernsSLIF: 65 -27 0 0 225 -39 0 0 256 -27 0 0 262 -27 0 0
EndChar
StartChar: K
Encoding: 75 75 44
Width: 591
Flags: W
HStem: 0 21G<76 150 492 585> 719 20G<76 150 492 585>
VStem: 76 74<0 202 0 739>
DStem: 246 320 293 379 492 0 585 0 492 739 585 739 150 314 293 379 492 739 246 320 150 314 150 202
Fore
76 0 m 1
 76 739 l 1
 150 739 l 1
 150 314 l 1
 492 739 l 1
 585 739 l 1
 293 379 l 1
 585 0 l 1
 492 0 l 1
 246 320 l 1
 150 202 l 1
 150 0 l 1
 76 0 l 1
EndSplineSet
KernsSLIF: 67 -36 0 0 71 -38 0 0 79 -38 0 0 234 -37 0 0 287 -38 0 0 286 -38 0 0 83 -16 0 0 84 37 0 0 97 -44 0 0 322 -44 0 0 241 -44 0 0 328 -44 0 0 101 -45 0 0 45 -29 0 0 111 -44 0 0 352 -44 0 0 351 -44 0 0 117 -38 0 0 362 -38 0 0 121 -44 0 0
EndChar
StartChar: L
Encoding: 76 76 45
Width: 462
Flags: W
HStem: 0 67<149 456> 719 20G<76 150>
VStem: 76 74<0 739>
Fore
76 0 m 1
 76 739 l 1
 150 739 l 1
 150 67 l 1
 456 67 l 1
 456 0 l 1
 76 0 l 1
EndSplineSet
KernsSLIF: 65 34 0 0 225 34 0 0 257 34 0 0 256 34 0 0 262 34 0 0 67 -46 0 0 264 -49 0 0 71 -48 0 0 79 -49 0 0 287 -49 0 0 289 -49 0 0 286 -49 0 0 288 -49 0 0 290 -49 0 0 83 7 0 0 84 -47 0 0 85 -25 0 0 298 -25 0 0 86 -100 0 0 87 -59 0 0 89 -88 0 0 45 -79 0 0 186 -114 0 0 39 -116 0 0 117 -14 0 0 362 -14 0 0 121 -59 0 0
EndChar
StartChar: M
Encoding: 77 77 46
Width: 919
Flags: W
HStem: 0 21G<76 150 427 491 769 843> 719 20G<76 191 728 843>
VStem: 76 74<0 658> 769 74<0 739>
DStem: 150 658 191 739 427 0 460 110 728 739 769 658 460 110 491 0
Fore
76 0 m 1
 76 739 l 1
 191 739 l 1
 460 110 l 1
 728 739 l 1
 843 739 l 1
 843 0 l 1
 769 0 l 1
 769 658 l 1
 491 0 l 1
 427 0 l 1
 150 658 l 1
 150 0 l 1
 76 0 l 1
EndSplineSet
EndChar
StartChar: N
Encoding: 78 78 47
Width: 740
Flags: W
HStem: 0 21G<76 150 590 664> 719 20G<76 176 590 664>
VStem: 76 74<0 650> 590 74<126 739>
DStem: 150 650 176 739 590 0 590 126
Fore
76 0 m 1
 76 739 l 1
 176 739 l 1
 590 126 l 1
 590 739 l 1
 664 739 l 1
 664 0 l 1
 590 0 l 1
 150 650 l 1
 150 0 l 1
 76 0 l 1
EndSplineSet
KernsSLIF: 225 -1 0 0 67 10 0 0 264 11 0 0 71 9 0 0 79 9 0 0 287 9 0 0 286 9 0 0 97 8 0 0 323 8 0 0 322 8 0 0 241 7 0 0 328 8 0 0 44 -15 0 0 101 7 0 0 335 7 0 0 111 8 0 0 352 8 0 0 351 8 0 0 249 9 0 0 46 3 0 0 117 13 0 0 362 13 0 0
EndChar
StartChar: O
Encoding: 79 79 48
Width: 869
Flags: W
HStem: -13 68<435 445> 684 68<435 445>
VStem: 44 75<354 388> 750 75<354 388>
Fore
435 752 m 0
 649 752 825 580 825 369 c 0
 825 160 649 -13 435 -13 c 0
 218 -13 44 159 44 374 c 0
 44 579 223 752 435 752 c 0
435 684 m 0
 264 684 119 541 119 372 c 0
 119 197 261 55 435 55 c 0
 607 55 750 197 750 368 c 0
 750 541 607 684 435 684 c 0
EndSplineSet
KernsSLIF: 65 -39 0 0 225 -68 0 0 257 -39 0 0 256 -39 0 0 262 -39 0 0 84 -42 0 0 86 -38 0 0 87 -16 0 0 88 -31 0 0 89 -46 0 0
EndChar
StartChar: P
Encoding: 80 80 49
Width: 592
Flags: W
HStem: 0 21G<76 150> 299 67<150 317> 672 67<76 301>
VStem: 76 74<0 299 0 672> 490 75<515 529>
Fore
76 0 m 1
 76 739 l 1
 280 739 l 2
 375 739 431 728 477 700 c 0
 533 667 565 600 565 515 c 0
 565 441 539 380 491 345 c 0
 446 312 392 299 292 299 c 2
 150 299 l 1
 150 0 l 1
 76 0 l 1
150 366 m 1
 287 366 l 2
 355 366 398 373 429 391 c 0
 467 412 490 458 490 515 c 0
 490 581 466 628 423 650 c 0
 393 665 340 672 255 672 c 2
 150 672 l 1
 150 366 l 1
EndSplineSet
KernsSLIF: 65 -61 0 0 225 -108 0 0 257 -61 0 0 256 -61 0 0 262 -61 0 0 74 -68 0 0 97 -16 0 0 323 -16 0 0 322 -16 0 0 241 -16 0 0 328 -16 0 0 44 -125 0 0 101 -15 0 0 335 -15 0 0 45 -4 0 0 111 -15 0 0 352 -15 0 0 351 -15 0 0 250 -15 0 0 249 -19 0 0 46 -106 0 0
EndChar
StartChar: Q
Encoding: 81 81 50
Width: 871
Flags: W
HStem: -13 68<443 461 810 827> 237 68<267 301> 684 68<427 461>
VStem: 44 75<354 388> 764 75<371 388>
Fore
827 56 m 1
 827 -13 l 1
 758 -12 716 4 665 51 c 1
 603 9 524 -13 443 -13 c 0
 221 -13 44 157 44 369 c 0
 44 588 216 752 444 752 c 0
 670 752 839 590 839 371 c 0
 839 258 796 161 716 93 c 1
 754 66 781 55 812 55 c 0
 815 55 821 55 827 56 c 1
161 216 m 1
 180 181 207 150 247 120 c 0
 302 78 371 55 443 55 c 0
 505 55 555 69 605 100 c 1
 498 197 403 237 277 237 c 0
 231 237 201 232 161 216 c 1
130 279 m 1
 187 298 231 305 288 305 c 0
 393 305 486 276 569 217 c 0
 599 195 628 173 663 142 c 1
 731 207 764 284 764 371 c 0
 764 548 624 684 442 684 c 0
 259 684 119 545 119 363 c 0
 119 336 122 315 130 279 c 1
EndSplineSet
EndChar
StartChar: R
Encoding: 82 82 51
Width: 607
Flags: W
HStem: 0 21G<76 150 474 566> 672 67<76 285>
VStem: 76 74<0 672> 502 75<495 513>
DStem: 225 335 359 276 474 0 566 0
Fore
359 276 m 5
 566 0 l 5
 474 0 l 5
 225 335 l 5
 307 335 355 339 390 348 c 4
 464 368 502 420 502 504 c 4
 502 571 474 621 424 645 c 4
 384 664 332 672 254 672 c 6
 150 672 l 5
 150 0 l 5
 76 0 l 5
 76 739 l 5
 259 739 l 6
 356 739 420 728 466 703 c 4
 538 664 577 594 577 501 c 4
 577 370 501 291 359 276 c 5
EndSplineSet
KernsSLIF: 67 2 0 0 264 3 0 0 71 1 0 0 79 2 0 0 234 2 0 0 287 2 0 0 286 2 0 0 84 -4 0 0 85 11 0 0 298 11 0 0 86 -11 0 0 87 -3 0 0 89 -14 0 0 97 -7 0 0 323 -7 0 0 322 -7 0 0 241 -7 0 0 328 -7 0 0 101 -7 0 0 335 -7 0 0 45 3 0 0 111 -7 0 0 352 -7 0 0 351 -7 0 0 250 -7 0 0 117 7 0 0 363 7 0 0 362 7 0 0 121 20 0 0
EndChar
StartChar: S
Encoding: 83 83 52
Width: 498
Flags: W
HStem: -13 68<237 267> 552 21G<381 458> 684 68<234 267>
VStem: 46 75<546 564> 401 75<194 212>
Fore
22 207 m 1
 101 207 l 1
 106 161 115 136 136 110 c 0
 163 76 208 55 255 55 c 0
 339 55 401 117 401 202 c 0
 401 247 383 285 350 308 c 0
 326 325 294 339 236 357 c 0
 150 383 127 394 98 422 c 0
 65 453 46 502 46 553 c 0
 46 668 132 752 251 752 c 0
 372 752 455 672 458 552 c 1
 381 552 l 1
 376 632 324 684 249 684 c 0
 175 684 121 629 121 555 c 0
 121 521 135 488 156 469 c 0
 176 452 198 443 265 423 c 0
 341 400 372 386 402 364 c 0
 449 329 476 271 476 206 c 0
 476 80 381 -13 253 -13 c 0
 120 -13 29 74 22 207 c 1
EndSplineSet
KernsSLIF: 65 -5 0 0 225 -16 0 0 257 -5 0 0 256 -5 0 0 262 -5 0 0 84 3 0 0 86 -9 0 0 87 3 0 0 89 -10 0 0 116 17 0 0
EndChar
StartChar: T
Encoding: 84 84 53
Width: 426
Flags: W
HStem: 0 21G<176 250> 672 67<7 176 7 419>
VStem: 176 74<0 672>
Fore
176 0 m 1
 176 672 l 1
 7 672 l 1
 7 739 l 1
 419 739 l 1
 419 672 l 1
 250 672 l 1
 250 0 l 1
 176 0 l 1
EndSplineSet
KernsSLIF: 65 -50 0 0 225 -51 0 0 257 -50 0 0 259 -50 0 0 256 -50 0 0 258 -50 0 0 262 -50 0 0 261 -50 0 0 67 -40 0 0 71 -41 0 0 74 -49 0 0 79 -42 0 0 234 -40 0 0 287 -42 0 0 289 -42 0 0 286 -42 0 0 288 -42 0 0 233 -38 0 0 290 -42 0 0 86 34 0 0 87 35 0 0 89 38 0 0 97 -48 0 0 241 -48 0 0 99 -49 0 0 58 -53 0 0 44 -65 0 0 101 -48 0 0 103 -48 0 0 171 -42 0 0 172 -42 0 0 45 -11 0 0 105 8 0 0 106 6 0 0 111 -48 0 0 249 -45 0 0 46 -47 0 0 114 -33 0 0 115 -32 0 0 59 -62 0 0 117 -40 0 0 118 -50 0 0 119 -49 0 0 121 -50 0 0
EndChar
StartChar: U
Encoding: 85 85 54
Width: 655
Flags: W
HStem: -13 68<315 333> 719 20G<76 150 505 579>
VStem: 76 74<278 739> 505 74<278 739>
Fore
76 739 m 1
 150 739 l 1
 150 278 l 2
 150 211 161 160 184 125 c 0
 212 82 267 55 328 55 c 0
 388 55 443 82 471 125 c 0
 494 160 505 211 505 278 c 2
 505 739 l 1
 579 739 l 1
 579 278 l 2
 579 183 564 127 527 78 c 0
 483 21 409 -13 327 -13 c 0
 246 -13 172 21 128 78 c 0
 91 127 76 183 76 278 c 2
 76 739 l 1
EndSplineSet
KernsSLIF: 65 -30 0 0 225 -50 0 0 257 -30 0 0 259 -30 0 0 256 -30 0 0 262 -30 0 0 261 -30 0 0 44 -36 0 0 109 13 0 0 110 13 0 0 112 13 0 0 46 -15 0 0 114 13 0 0
EndChar
StartChar: V
Encoding: 86 86 55
Width: 702
Flags: W
HStem: 0 21G<314 386> 719 20G<10 91 612 692>
DStem: 10 739 91 739 314 0 351 92 612 739 692 739 351 92 386 0
Fore
314 0 m 1
 10 739 l 1
 91 739 l 1
 351 92 l 1
 612 739 l 1
 692 739 l 1
 386 0 l 1
 314 0 l 1
EndSplineSet
KernsSLIF: 65 -72 0 0 225 -118 0 0 257 -72 0 0 259 -72 0 0 256 -72 0 0 258 -72 0 0 262 -72 0 0 261 -72 0 0 67 -37 0 0 71 -38 0 0 79 -39 0 0 287 -39 0 0 289 -39 0 0 286 -39 0 0 288 -39 0 0 233 -35 0 0 290 -39 0 0 83 -12 0 0 84 35 0 0 97 -59 0 0 241 -59 0 0 58 -60 0 0 44 -110 0 0 101 -59 0 0 103 -59 0 0 171 -49 0 0 172 -49 0 0 45 -25 0 0 105 6 0 0 111 -59 0 0 249 -58 0 0 46 -92 0 0 114 -32 0 0 59 -70 0 0 117 -34 0 0 121 -8 0 0
EndChar
StartChar: W
Encoding: 87 87 56
Width: 960
Flags: W
HStem: 0 21G<221 317 643 738> 719 20G<10 86 445 515 874 950>
DStem: 10 739 86 739 221 0 268 96 445 739 479 606 268 96 317 0 479 606 515 739 643 0 692 96 874 739 950 739 692 96 738 0
Fore
221 0 m 1
 10 739 l 1
 86 739 l 1
 268 96 l 1
 445 739 l 1
 515 739 l 1
 692 96 l 1
 874 739 l 1
 950 739 l 1
 738 0 l 1
 643 0 l 1
 479 606 l 1
 317 0 l 1
 221 0 l 1
EndSplineSet
KernsSLIF: 65 -48 0 0 225 -73 0 0 257 -48 0 0 259 -48 0 0 256 -48 0 0 258 -48 0 0 262 -48 0 0 261 -48 0 0 67 -14 0 0 71 -15 0 0 79 -16 0 0 287 -16 0 0 289 -16 0 0 286 -16 0 0 288 -16 0 0 233 -12 0 0 290 -16 0 0 84 35 0 0 97 -30 0 0 241 -30 0 0 58 -38 0 0 44 -71 0 0 101 -30 0 0 103 -30 0 0 171 -21 0 0 172 -21 0 0 45 3 0 0 105 6 0 0 111 -30 0 0 249 -28 0 0 46 -53 0 0 114 -15 0 0 59 -47 0 0 117 -21 0 0 121 4 0 0
EndChar
StartChar: X
Encoding: 88 88 57
Width: 609
Flags: W
HStem: 0 21G<8 95 514 601> 719 20G<22 109 500 586>
DStem: 22 739 109 739 259 378 305 443 259 378 305 316 8 0 95 0 305 316 349 378 514 0 601 0 500 739 586 739 305 443 349 378
Fore
8 0 m 1
 259 378 l 1
 22 739 l 1
 109 739 l 1
 305 443 l 1
 500 739 l 1
 586 739 l 1
 349 378 l 1
 601 0 l 1
 514 0 l 1
 305 316 l 1
 95 0 l 1
 8 0 l 1
EndSplineSet
KernsSLIF: 67 -29 0 0 79 -31 0 0 286 -31 0 0 81 -30 0 0 97 -36 0 0 101 -37 0 0 45 -17 0 0 111 -36 0 0 117 -29 0 0 121 -37 0 0
EndChar
StartChar: Y
Encoding: 89 89 58
Width: 592
Flags: W
HStem: 0 21G<258 332> 719 20G<2 84 509 590>
VStem: 258 74<0 247>
DStem: 2 739 84 739 258 247 294 325 509 739 590 739 294 325 332 247
Fore
258 0 m 1
 258 247 l 1
 2 739 l 1
 84 739 l 1
 294 325 l 1
 509 739 l 1
 590 739 l 1
 332 247 l 1
 332 0 l 1
 258 0 l 1
EndSplineSet
KernsSLIF: 65 -78 0 0 225 -93 0 0 257 -78 0 0 259 -78 0 0 256 -78 0 0 258 -78 0 0 262 -78 0 0 261 -78 0 0 67 -44 0 0 71 -46 0 0 79 -46 0 0 287 -46 0 0 289 -46 0 0 286 -46 0 0 288 -46 0 0 233 -42 0 0 290 -46 0 0 83 -13 0 0 84 39 0 0 97 -68 0 0 241 -68 0 0 58 -69 0 0 44 -107 0 0 101 -68 0 0 103 -68 0 0 171 -63 0 0 172 -62 0 0 45 -45 0 0 105 10 0 0 111 -68 0 0 249 -66 0 0 112 -38 0 0 46 -89 0 0 59 -78 0 0 117 -40 0 0 118 -14 0 0
EndChar
StartChar: Z
Encoding: 90 90 59
Width: 480
Flags: W
HStem: 0 67<101 474> 672 67<28 380>
DStem: 380 672 463 672 17 67 101 67
Fore
17 0 m 1
 17 67 l 1
 380 672 l 1
 28 672 l 1
 28 739 l 1
 463 739 l 1
 463 672 l 1
 101 67 l 1
 474 67 l 1
 474 0 l 1
 17 0 l 1
EndSplineSet
KernsSLIF: 118 -8 0 0 121 -8 0 0
EndChar
StartChar: bracketleft
Encoding: 91 91 60
Width: 351
Flags: W
VStem: 112 70<146 468>
Fore
313 -50 m 1
 313 -125 l 1
 258 -109 216 -83 178 -43 c 1
 131 9 112 68 112 164 c 2
 112 462 l 2
 112 549 135 612 185 664 c 0
 223 703 261 725 313 739 c 1
 313 664 l 1
 215 621 182 566 182 448 c 2
 182 177 l 2
 182 49 214 -6 313 -50 c 1
EndSplineSet
EndChar
StartChar: backslash
Encoding: 92 92 61
Width: 605
Flags: W
HStem: 0 21G<394 464> 719 20G<84 154>
DStem: 84 739 154 739 394 0 464 0
Fore
464 0 m 1
 394 0 l 1
 84 739 l 1
 154 739 l 1
 464 0 l 1
EndSplineSet
EndChar
StartChar: bracketright
Encoding: 93 93 62
Width: 351
Flags: W
VStem: 169 70<146 468>
Fore
38 664 m 1
 38 739 l 1
 93 723 135 698 173 657 c 0
 220 605 239 547 239 450 c 2
 239 153 l 2
 239 65 216 2 166 -50 c 0
 128 -89 90 -111 38 -125 c 1
 38 -50 l 1
 136 -6 169 48 169 166 c 2
 169 438 l 2
 169 565 137 620 38 664 c 1
EndSplineSet
EndChar
StartChar: asciicircum
Encoding: 94 94 63
Width: 606
Flags: W
HStem: 719 20G<261 346>
DStem: 261 739 304 660 18 180 99 180 304 660 346 739 507 180 588 180
Fore
588 180 m 1
 507 180 l 1
 304 660 l 1
 99 180 l 1
 18 180 l 1
 261 739 l 1
 346 739 l 1
 588 180 l 1
EndSplineSet
EndChar
StartChar: underscore
Encoding: 95 95 64
Width: 500
Flags: W
HStem: -125 58<0 500>
Fore
0 -67 m 1
 500 -67 l 1
 500 -125 l 1
 0 -125 l 1
 0 -67 l 1
EndSplineSet
EndChar
StartChar: quoteleft
Encoding: 96 8216 65
Width: 351
Flags: W
HStem: 547 21G<186 260> 719 20G<98 172>
DStem: 98 739 172 739 186 547 260 547
Fore
260 547 m 1
 186 547 l 1
 98 739 l 1
 172 739 l 1
 260 547 l 1
EndSplineSet
KernsSLIF: 65 -92 1 0 225 -170 1 0 257 -92 1 0 256 -92 1 0 262 -92 1 0 84 -17 1 0 86 6 1 0 87 14 1 0 89 2 1 0
EndChar
StartChar: a
Encoding: 97 97 66
Width: 683
Flags: W
HStem: -13 68<328 347> 492 68<313 347>
VStem: 42 75<258 292> 546 74<0 547>
Fore
620 547 m 1
 620 0 l 1
 546 0 l 1
 546 96 l 1
 488 18 428 -13 335 -13 c 0
 167 -13 42 109 42 272 c 0
 42 436 166 560 330 560 c 0
 425 560 492 526 546 450 c 1
 546 547 l 1
 620 547 l 1
332 492 m 0
 213 492 117 396 117 277 c 0
 117 152 212 55 336 55 c 0
 454 55 546 152 546 276 c 0
 546 398 452 492 332 492 c 0
EndSplineSet
KernsSLIF: 106 14 0 0 39 -7 0 0 118 5 0 0 119 6 0 0 121 5 0 0
EndChar
StartChar: b
Encoding: 98 98 67
Width: 682
Flags: W
HStem: -13 68<334 368> 492 68<334 368> 719 20G<63 137>
VStem: 63 69<0 292> 565 75<258 292>
Fore
63 0 m 1
 63 739 l 1
 137 739 l 1
 137 453 l 1
 184 522 260 560 352 560 c 0
 514 560 640 435 640 274 c 0
 640 110 516 -13 351 -13 c 0
 261 -13 183 26 137 94 c 1
 137 0 l 1
 63 0 l 1
350 492 m 0
 228 492 132 397 132 276 c 0
 132 214 152 164 195 120 c 0
 238 76 288 55 349 55 c 0
 472 55 565 150 565 276 c 0
 565 399 473 492 350 492 c 0
EndSplineSet
KernsSLIF: 118 -25 0 0 119 -19 0 0 121 -23 0 0
EndChar
StartChar: c
Encoding: 99 99 68
Width: 647
Flags: W
HStem: -13 68<329 347> 492 68<313 347>
VStem: 42 75<258 292>
Fore
524 161 m 1
 608 161 l 1
 578 104 557 77 522 49 c 0
 471 9 408 -13 340 -13 c 0
 172 -13 42 112 42 275 c 0
 42 434 171 560 335 560 c 0
 458 560 563 491 607 381 c 1
 524 381 l 1
 482 453 415 492 334 492 c 0
 212 492 117 396 117 273 c 0
 117 152 214 55 337 55 c 0
 414 55 467 85 524 161 c 1
EndSplineSet
KernsSLIF: 104 -4 0 0 107 -4 0 0
EndChar
StartChar: d
Encoding: 100 100 69
Width: 685
Flags: W
HStem: -13 68<329 347> 492 68<313 347> 719 20G<548 622>
VStem: 42 75<258 292> 548 74<0 739>
Fore
622 739 m 1
 622 0 l 1
 548 0 l 1
 548 99 l 1
 493 20 431 -13 340 -13 c 0
 171 -13 42 111 42 273 c 0
 42 436 168 560 333 560 c 0
 419 560 494 525 548 460 c 1
 548 739 l 1
 622 739 l 1
331 492 m 0
 212 492 117 396 117 276 c 0
 117 151 213 55 338 55 c 0
 455 55 551 155 551 275 c 0
 551 395 452 492 331 492 c 0
EndSplineSet
EndChar
StartChar: e
Encoding: 101 101 70
Width: 650
Flags: W
HStem: -13 68<313 347> 249 67<118 611> 492 68<313 347>
Fore
611 249 m 1
 116 249 l 1
 122 141 217 55 329 55 c 0
 412 55 489 105 520 180 c 1
 597 180 l 1
 582 135 556 97 517 60 c 0
 467 13 401 -13 331 -13 c 0
 169 -13 42 114 42 276 c 0
 42 435 167 560 326 560 c 0
 430 560 525 505 574 418 c 0
 601 370 611 324 611 249 c 1
118 316 m 1
 537 316 l 1
 512 425 431 492 325 492 c 0
 221 492 138 421 118 316 c 1
EndSplineSet
KernsSLIF: 39 -31 0 0 116 -23 0 0 118 -24 0 0 119 -20 0 0 120 -20 0 0 121 -23 0 0
EndChar
StartChar: f
Encoding: 102 102 71
Width: 314
Flags: W
HStem: 0 21G<101 175> 480 67<16 101 175 311>
VStem: 101 74<0 480 547 574.205>
Fore
101 0 m 1
 101 480 l 1
 16 480 l 1
 16 547 l 1
 101 547 l 1
 99 674 170 739 311 739 c 1
 311 672 l 1
 210 671 174 638 175 547 c 1
 311 547 l 1
 311 480 l 1
 175 480 l 1
 175 0 l 1
 101 0 l 1
EndSplineSet
KernsSLIF: 97 -20 0 0 323 -20 0 0 322 -20 0 0 241 -21 0 0 328 -20 0 0 101 -19 0 0 335 -19 0 0 102 32 0 0 105 9 0 0 106 7 0 0 108 9 0 0 111 -19 0 0 352 -19 0 0 351 -19 0 0 250 -19 0 0 249 -24 0 0 39 -5 0 0 115 13 0 0 116 34 0 0
EndChar
StartChar: g
Encoding: 103 103 72
Width: 673
Flags: W
HStem: -215 68<313 347> -37 20G<62 134> -13 68<327 347> 492 68<313 347>
VStem: 42 75<264 283> 536 74<53 111 264 547>
Fore
610 547 m 1
 610 98 l 2
 610 -9 596 -67 559 -117 c 0
 512 -179 432 -215 337 -215 c 0
 199 -215 102 -145 62 -17 c 1
 134 -17 l 1
 158 -59 169 -75 188 -92 c 0
 227 -129 274 -147 335 -147 c 0
 419 -147 485 -111 514 -48 c 0
 530 -14 536 20 536 74 c 2
 536 111 l 1
 493 27 425 -13 327 -13 c 0
 167 -13 42 111 42 271 c 0
 42 436 162 560 322 560 c 0
 414 560 481 525 536 450 c 1
 536 547 l 1
 610 547 l 1
326 492 m 0
 205 492 117 402 117 277 c 0
 117 150 207 55 327 55 c 0
 446 55 536 152 536 280 c 0
 536 399 444 492 326 492 c 0
EndSplineSet
KernsSLIF: 97 7 0 0 322 7 0 0 241 7 0 0 328 7 0 0 101 7 0 0 335 7 0 0 108 16 0 0 352 7 0 0 351 7 0 0 114 16 0 0
EndChar
StartChar: h
Encoding: 104 104 73
Width: 610
Flags: W
HStem: 0 21G<63 137 473 547> 492 68<302 320> 719 20G<63 137>
VStem: 63 74<0 321 0 739> 473 74<0 321>
Fore
63 0 m 1
 63 739 l 1
 137 739 l 1
 137 476 l 1
 174 530 236 560 311 560 c 0
 390 560 459 529 500 475 c 0
 532 432 547 376 547 294 c 2
 547 0 l 1
 473 0 l 5
 473 294 l 2
 473 358 462 400 436 432 c 0
 407 469 357 492 304 492 c 0
 248 492 197 467 167 424 c 0
 145 394 137 359 137 300 c 2
 137 0 l 5
 63 0 l 1
EndSplineSet
KernsSLIF: 39 -30 0 0 121 -17 0 0
EndChar
StartChar: i
Encoding: 105 105 74
Width: 200
Flags: W
HStem: 0 21G<63 137> 527 20G<63 137> 719 20G<63 137>
VStem: 63 74<0 547 613 739>
Fore
63 0 m 1
 63 547 l 1
 137 547 l 1
 137 0 l 1
 63 0 l 1
63 613 m 1
 63 739 l 1
 137 739 l 1
 137 613 l 1
 63 613 l 1
EndSplineSet
KernsSLIF: 84 8 0 0 106 13 0 0
EndChar
StartChar: j
Encoding: 106 106 75
Width: 203
Flags: W
HStem: 527 20G<66 140> 719 20G<66 140>
VStem: 66 74<38 547 613 739>
Fore
140 547 m 1
 140 38 l 2
 140 -69 123 -115 70 -155 c 0
 37 -179 3 -190 -45 -192 c 1
 -45 -121 l 1
 38 -116 66 -76 66 38 c 2
 66 547 l 1
 140 547 l 1
66 613 m 1
 66 739 l 1
 140 739 l 1
 140 613 l 1
 66 613 l 1
EndSplineSet
EndChar
StartChar: k
Encoding: 107 107 76
Width: 502
Flags: W
HStem: 0 21G<63 137 405 497> 527 20G<392 483> 719 20G<63 137>
VStem: 63 74<0 113 0 739>
DStem: 223 219 270 272 405 0 497 0 392 547 483 547 137 215 270 272 392 547 223 219 137 215 137 113
Fore
63 0 m 1
 63 739 l 1
 137 739 l 1
 137 215 l 1
 392 547 l 1
 483 547 l 1
 270 272 l 1
 497 0 l 1
 405 0 l 1
 223 219 l 1
 137 113 l 1
 137 0 l 1
 63 0 l 1
EndSplineSet
KernsSLIF: 97 -28 0 0 323 -28 0 0 322 -28 0 0 241 -28 0 0 328 -28 0 0 44 -21 0 0 101 -28 0 0 335 -28 0 0 103 -29 0 0 45 -36 0 0 111 -28 0 0 352 -28 0 0 351 -28 0 0 46 -7 0 0 115 -5 0 0 117 1 0 0 362 1 0 0
EndChar
StartChar: l
Encoding: 108 108 77
Width: 200
Flags: W
HStem: 0 21G<63 137> 719 20G<63 137>
VStem: 63 74<0 739>
Fore
63 0 m 1
 63 739 l 1
 137 739 l 1
 137 0 l 1
 63 0 l 1
EndSplineSet
KernsSLIF: 118 5 0 0 121 5 0 0
EndChar
StartChar: m
Encoding: 109 109 78
Width: 938
Flags: W
HStem: 0 21G<63 137 432 506 801 875> 492 68<270 293 638 672>
VStem: 63 74<0 337 0 547> 432 74<0 337> 801 74<0 337>
CounterMasks: 1 00
Fore
63 0 m 1
 63 547 l 1
 137 547 l 1
 137 484 l 1
 179 539 222 560 291 560 c 0
 373 560 427 528 470 455 c 1
 516 528 575 561 660 561 c 0
 731 561 793 533 831 483 c 0
 862 444 875 397 875 325 c 2
 875 0 l 1
 801 0 l 1
 801 317 l 2
 801 372 791 413 771 441 c 0
 746 474 704 493 656 493 c 0
 604 493 558 470 532 430 c 0
 514 404 506 370 506 317 c 2
 506 0 l 1
 432 0 l 1
 432 319 l 2
 432 376 422 414 398 442 c 0
 371 474 329 492 284 492 c 0
 192 492 137 428 137 319 c 2
 137 0 l 1
 63 0 l 1
EndSplineSet
KernsSLIF: 112 14 0 0 118 -17 0 0 119 -12 0 0 121 -15 0 0
EndChar
StartChar: n
Encoding: 110 110 79
Width: 610
Flags: W
HStem: 0 21G<63 137 473 547> 492 68<302 320>
VStem: 63 74<0 321 0 547> 473 74<0 321>
Fore
63 0 m 1
 63 547 l 1
 137 547 l 1
 137 476 l 1
 183 532 241 560 313 560 c 0
 390 560 456 529 499 475 c 1
 534 428 547 379 547 287 c 2
 547 0 l 1
 473 0 l 1
 473 287 l 2
 473 359 463 399 437 433 c 0
 407 470 358 492 304 492 c 0
 246 492 195 467 166 425 c 0
 145 394 137 362 137 301 c 2
 137 0 l 1
 63 0 l 1
EndSplineSet
KernsSLIF: 84 -41 0 0 112 13 0 0 39 -30 0 0 118 -19 0 0 119 -14 0 0 121 -17 0 0
EndChar
StartChar: o
Encoding: 111 111 80
Width: 655
Flags: W
HStem: -13 68<313 347> 492 68<329 347>
VStem: 42 75<258 292> 538 75<258 292>
Fore
329 560 m 0
 493 560 613 439 613 272 c 0
 613 108 495 -13 335 -13 c 0
 165 -13 42 109 42 277 c 0
 42 437 167 560 329 560 c 0
329 492 m 0
 208 492 117 399 117 275 c 0
 117 147 207 55 333 55 c 0
 452 55 538 146 538 271 c 0
 538 398 449 492 329 492 c 0
EndSplineSet
KernsSLIF: 84 -47 0 0 39 -31 0 0 116 -22 0 0 118 -24 0 0 119 -18 0 0 120 -18 0 0 121 -21 0 0
EndChar
StartChar: p
Encoding: 112 112 81
Width: 682
Flags: W
HStem: -13 68<350 368> 492 68<334 368>
VStem: 63 69<-192 289> 565 75<272 289>
Fore
63 547 m 1
 137 547 l 1
 137 453 l 1
 183 522 259 560 352 560 c 0
 515 560 640 435 640 272 c 0
 640 112 513 -13 350 -13 c 0
 259 -13 185 24 137 94 c 1
 137 -192 l 1
 63 -192 l 1
 63 547 l 1
349 492 m 0
 228 492 132 397 132 276 c 0
 132 150 225 55 350 55 c 0
 472 55 565 149 565 272 c 0
 565 398 472 492 349 492 c 0
EndSplineSet
KernsSLIF: 116 -23 0 0 121 -23 0 0
EndChar
StartChar: q
Encoding: 113 113 82
Width: 682
Flags: W
HStem: -13 68<313 347> 492 68<313 347>
VStem: 42 75<255 289> 545 74<-192 547>
Fore
619 547 m 1
 619 -192 l 1
 545 -192 l 1
 545 94 l 1
 497 24 423 -13 332 -13 c 0
 169 -13 42 112 42 273 c 0
 42 435 167 560 330 560 c 0
 423 560 499 523 545 453 c 1
 545 547 l 1
 619 547 l 1
333 492 m 0
 210 492 117 398 117 272 c 0
 117 149 210 55 333 55 c 0
 454 55 550 150 550 270 c 0
 550 397 457 492 333 492 c 0
EndSplineSet
KernsSLIF: 99 7 0 0 117 13 0 0
EndChar
StartChar: r
Encoding: 114 114 83
Width: 301
Flags: W
HStem: 0 21G<63 137> 527 20G<63 137>
VStem: 63 74<0 337 0 547>
Fore
63 0 m 1
 63 547 l 1
 137 547 l 1
 137 469 l 1
 166 529 213 556 292 560 c 1
 292 487 l 1
 189 477 137 421 137 319 c 2
 137 0 l 1
 63 0 l 1
EndSplineSet
KernsSLIF: 97 -28 0 0 323 -28 0 0 325 -28 0 0 322 -28 0 0 241 -28 0 0 324 -28 0 0 328 -28 0 0 99 -30 0 0 332 -25 0 0 58 -12 0 0 44 -70 0 0 100 -29 0 0 101 -28 0 0 335 -28 0 0 337 -28 0 0 336 -28 0 0 102 29 0 0 103 -18 0 0 104 6 0 0 45 -19 0 0 105 6 0 0 106 4 0 0 107 6 0 0 108 6 0 0 109 6 0 0 110 6 0 0 111 -28 0 0 352 -28 0 0 354 -28 0 0 351 -28 0 0 250 -27 0 0 353 -28 0 0 249 -33 0 0 112 6 0 0 46 -53 0 0 113 -29 0 0 39 -8 0 0 114 6 0 0 115 8 0 0 59 -24 0 0 116 31 0 0 117 6 0 0 118 32 0 0 119 33 0 0 120 31 0 0 121 32 0 0 122 27 0 0
EndChar
StartChar: s
Encoding: 115 115 84
Width: 388
Flags: W
HStem: -13 68<194 196> 492 68<179 197>
VStem: 38 75<402 420> 286 75<146 163>
Fore
18 161 m 1
 91 161 l 1
 95 94 133 55 194 55 c 0
 247 55 286 95 286 150 c 0
 286 180 273 206 251 221 c 0
 237 230 213 242 180 255 c 0
 103 287 102 287 79 308 c 0
 52 333 38 367 38 406 c 0
 38 495 104 560 193 560 c 0
 281 560 344 500 347 412 c 1
 272 412 l 1
 268 464 240 492 192 492 c 0
 148 492 113 457 113 413 c 0
 113 381 129 358 163 341 c 0
 179 333 183 331 266 297 c 0
 330 270 361 224 361 157 c 0
 361 57 292 -13 194 -13 c 0
 89 -13 19 55 18 161 c 1
EndSplineSet
KernsSLIF: 39 -16 0 0 116 8 0 0
EndChar
StartChar: t
Encoding: 116 116 85
Width: 339
Flags: W
HStem: 0 21G<130 204> 480 67<12 130 204 327> 719 20G<130 204>
VStem: 130 74<0 480 547 739>
Fore
130 0 m 1
 130 480 l 1
 12 480 l 1
 12 547 l 1
 130 547 l 1
 130 739 l 1
 204 739 l 1
 204 547 l 1
 327 547 l 1
 327 480 l 1
 204 480 l 1
 204 0 l 1
 130 0 l 1
EndSplineSet
KernsSLIF: 83 14 0 0 97 -25 0 0 323 -25 0 0 322 -25 0 0 241 -25 0 0 328 -25 0 0 58 -13 0 0 101 -24 0 0 335 -24 0 0 104 4 0 0 111 -24 0 0 352 -24 0 0 351 -24 0 0 39 -9 0 0 59 -25 0 0
EndChar
StartChar: u
Encoding: 117 117 86
Width: 608
Flags: W
HStem: -13 68<286 320> 527 20G<63 137 471 545>
VStem: 63 74<252 547> 471 74<0 547>
Fore
545 547 m 1
 545 0 l 1
 471 0 l 1
 471 85 l 1
 434 17 380 -13 295 -13 c 0
 213 -13 147 17 106 74 c 0
 77 114 63 171 63 252 c 2
 63 547 l 1
 137 547 l 1
 137 252 l 2
 137 196 146 152 163 124 c 0
 188 80 240 55 301 55 c 0
 358 55 407 80 438 123 c 0
 461 157 471 199 471 266 c 2
 471 547 l 1
 545 547 l 1
EndSplineSet
KernsSLIF: 39 -7 0 0
EndChar
StartChar: v
Encoding: 118 118 87
Width: 554
Flags: W
HStem: 0 21G<238 316> 527 20G<8 83 471 546>
DStem: 8 547 83 547 238 0 275 87 471 547 546 547 275 87 316 0
Fore
238 0 m 1
 8 547 l 1
 83 547 l 1
 275 87 l 1
 471 547 l 1
 546 547 l 1
 316 0 l 1
 238 0 l 1
EndSplineSet
KernsSLIF: 97 -25 0 0 323 -25 0 0 325 -25 0 0 322 -25 0 0 241 -25 0 0 324 -25 0 0 328 -25 0 0 327 -25 0 0 99 -26 0 0 58 -21 0 0 44 -87 0 0 101 -25 0 0 335 -25 0 0 337 -25 0 0 336 -25 0 0 103 -21 0 0 108 6 0 0 111 -25 0 0 352 -25 0 0 351 -25 0 0 353 -25 0 0 249 -24 0 0 46 -70 0 0 115 -2 0 0 59 -31 0 0
EndChar
StartChar: w
Encoding: 119 119 88
Width: 831
Flags: W
HStem: 0 21G<216 296 533 612> 527 20G<7 81 752 824>
DStem: 7 547 81 547 216 0 255 89 384 480 414 363 255 89 296 0 414 363 445 480 533 0 574 89 752 547 824 547 574 89 612 0
Fore
216 0 m 1
 7 547 l 1
 81 547 l 1
 255 89 l 1
 384 480 l 1
 445 480 l 1
 574 89 l 1
 752 547 l 1
 824 547 l 1
 612 0 l 1
 533 0 l 1
 414 363 l 1
 296 0 l 1
 216 0 l 1
EndSplineSet
KernsSLIF: 97 -20 0 0 323 -20 0 0 325 -20 0 0 322 -20 0 0 241 -20 0 0 324 -20 0 0 328 -20 0 0 327 -20 0 0 99 -21 0 0 58 -19 0 0 44 -79 0 0 101 -20 0 0 335 -20 0 0 337 -20 0 0 336 -20 0 0 103 -18 0 0 45 6 0 0 108 7 0 0 111 -20 0 0 352 -20 0 0 351 -20 0 0 353 -20 0 0 249 -19 0 0 46 -62 0 0 59 -29 0 0
EndChar
StartChar: x
Encoding: 120 120 89
Width: 480
Flags: W
HStem: 0 21G<8 92 387 472> 527 20G<8 92 387 472>
DStem: 8 547 92 547 198 279 240 336 198 279 240 219 8 0 92 0 240 219 281 279 387 0 472 0 387 547 472 547 240 336 281 279
Fore
8 0 m 1
 198 279 l 1
 8 547 l 1
 92 547 l 1
 240 336 l 1
 387 547 l 1
 472 547 l 1
 281 279 l 1
 472 0 l 1
 387 0 l 1
 240 219 l 1
 92 0 l 1
 8 0 l 1
EndSplineSet
KernsSLIF: 97 -19 0 0 99 -20 0 0 101 -19 0 0 335 -19 0 0 111 -19 0 0 113 -19 0 0
EndChar
StartChar: y
Encoding: 121 121 90
Width: 536
Flags: W
HStem: 527 20G<9 90 448 527>
DStem: 9 547 90 547 221 18 263 111 221 18 527 547 132 -192 211 -192 448 547 527 547 263 111 211 -192
Fore
132 -192 m 1
 221 18 l 1
 9 547 l 1
 90 547 l 1
 263 111 l 1
 448 547 l 1
 527 547 l 1
 211 -192 l 1
 132 -192 l 1
EndSplineSet
KernsSLIF: 97 -26 0 0 323 -26 0 0 325 -26 0 0 322 -26 0 0 241 -26 0 0 324 -26 0 0 328 -26 0 0 327 -26 0 0 99 -27 0 0 58 -21 0 0 44 -89 0 0 101 -26 0 0 335 -26 0 0 337 -26 0 0 336 -26 0 0 103 -22 0 0 108 6 0 0 111 -26 0 0 352 -26 0 0 351 -26 0 0 353 -26 0 0 249 -25 0 0 46 -72 0 0 115 -3 0 0 59 -31 0 0
EndChar
StartChar: z
Encoding: 122 122 91
Width: 425
Flags: W
HStem: 0 67<97 415> 480 67<20 312>
DStem: 312 480 396 484 10 67 97 67
Fore
10 0 m 1
 10 67 l 1
 312 480 l 1
 20 480 l 1
 20 547 l 1
 396 547 l 1
 396 484 l 1
 97 67 l 1
 415 67 l 1
 415 0 l 1
 10 0 l 1
EndSplineSet
EndChar
StartChar: braceleft
Encoding: 123 123 92
Width: 351
Flags: W
VStem: 116 77<1 195 417 611>
Fore
193 601 m 2
 193 431 l 2
 193 362 176 333 122 313 c 0
 119 312 112 310 104 306 c 1
 112 303 119 300 122 300 c 1
 176 279 193 251 193 182 c 2
 193 12 l 2
 193 -39 207 -53 260 -58 c 2
 271 -59 l 1
 271 -126 l 1
 204 -125 186 -121 162 -105 c 0
 131 -85 116 -47 116 13 c 2
 116 183 l 2
 116 245 102 260 37 272 c 1
 37 341 l 1
 102 352 116 368 116 430 c 2
 116 600 l 2
 116 660 131 698 162 718 c 0
 186 734 204 737 271 739 c 1
 271 672 l 1
 231 668 225 667 216 662 c 0
 202 655 193 631 193 601 c 2
EndSplineSet
EndChar
StartChar: bar
Encoding: 124 124 93
Width: 672
Flags: W
HStem: 0 21G<304 368> 719 20G<304 368>
VStem: 304 64<0 739>
Fore
368 739 m 1
 368 0 l 1
 304 0 l 1
 304 739 l 1
 368 739 l 1
EndSplineSet
EndChar
StartChar: braceright
Encoding: 125 125 94
Width: 351
Flags: W
VStem: 116 77<1 195 417 611>
Fore
116 12 m 2
 116 182 l 2
 116 251 133 279 187 300 c 1
 190 300 197 303 205 306 c 1
 197 310 190 312 187 313 c 0
 133 334 116 362 116 431 c 2
 116 601 l 2
 116 623 111 644 102 655 c 0
 94 665 82 668 49 671 c 2
 38 672 l 1
 38 739 l 1
 115 737 139 731 164 704 c 0
 183 684 193 647 193 600 c 2
 193 430 l 2
 193 368 206 352 269 341 c 1
 269 272 l 1
 206 261 193 245 193 183 c 2
 193 13 l 2
 193 -39 181 -76 159 -96 c 0
 134 -119 111 -125 38 -126 c 1
 38 -59 l 1
 49 -58 l 2
 85 -55 96 -51 104 -39 c 0
 111 -29 116 -8 116 12 c 2
EndSplineSet
EndChar
StartChar: asciitilde
Encoding: 126 126 95
Width: 606
Flags: W
Fore
511 390 m 1
 555 343 l 1
 521 276 466 231 415 231 c 0
 392 231 366 238 322 257 c 2
 267 279 l 2
 224 297 214 300 194 300 c 0
 169 300 145 287 128 265 c 0
 117 250 112 242 93 210 c 1
 51 257 l 1
 99 343 138 377 194 377 c 0
 215 377 241 371 271 358 c 2
 336 331 l 2
 379 313 396 308 416 308 c 0
 448 308 477 332 511 390 c 1
EndSplineSet
EndChar
StartChar: exclamdown
Encoding: 161 161 96
Width: 295
Flags: W
HStem: 527 20G<111 185>
VStem: 111 74<-192 352 421 547>
Fore
111 -192 m 1
 111 352 l 1
 185 352 l 1
 185 -192 l 1
 111 -192 l 1
111 421 m 1
 111 547 l 1
 185 547 l 1
 185 421 l 1
 111 421 l 1
EndSplineSet
EndChar
StartChar: cent
Encoding: 162 162 97
Width: 554
Flags: W
HStem: 62 155<268 325> 547 160<259 302>
VStem: 45 74<365 399> 259 66<62 152 613 707>
Fore
259 62 m 1
 259 152 l 1
 136 161 45 259 45 382 c 0
 45 507 132 601 259 614 c 1
 259 707 l 1
 325 707 l 1
 325 614 l 1
 411 602 480 545 509 463 c 1
 426 463 l 1
 395 518 346 547 283 547 c 0
 189 547 119 477 119 383 c 0
 119 290 191 217 282 217 c 0
 337 217 377 238 422 290 c 1
 503 290 l 1
 476 217 405 162 325 152 c 1
 325 62 l 1
 259 62 l 1
EndSplineSet
EndChar
StartChar: sterling
Encoding: 163 163 98
Width: 554
Flags: W
HStem: 0 67<59 371> 347 67<18 144 173 457> 685 67<289 323>
VStem: 71 74<495 529> 240 74<175 193> 518 74<207 225>
Fore
59 0 m 1
 59 67 l 1
 198 67 l 1
 226 98 240 136 240 183 c 0
 240 245 220 279 144 347 c 1
 18 347 l 1
 18 414 l 1
 93 414 l 1
 76 455 71 478 71 512 c 0
 71 652 170 752 306 752 c 0
 440 752 540 666 554 541 c 1
 485 541 l 1
 465 631 399 685 307 685 c 0
 211 685 145 615 145 513 c 0
 145 476 151 455 173 414 c 1
 457 414 l 1
 457 347 l 1
 242 347 l 1
 290 296 314 241 314 184 c 0
 314 147 306 115 285 67 c 1
 342 67 l 2
 402 67 443 79 470 104 c 0
 499 130 518 176 518 219 c 0
 518 233 517 243 512 268 c 1
 584 268 l 1
 590 245 592 233 592 213 c 0
 592 146 563 83 515 46 c 0
 475 15 420 0 344 0 c 2
 59 0 l 1
EndSplineSet
EndChar
StartChar: fraction
Encoding: 164 8260 99
Width: 166
Flags: W
HStem: 0 21G<-115 -61> 719 20G<227 281>
DStem: 227 739 281 739 -115 0 -61 0
Fore
-115 0 m 1
 227 739 l 1
 281 739 l 1
 -61 0 l 1
 -115 0 l 1
EndSplineSet
EndChar
StartChar: yen
Encoding: 165 165 100
Width: 554
Flags: W
HStem: 0 21G<260 333> 237 67<50 260 359 539> 396 67<43 184 443 546> 719 20G<0 76 513 589>
VStem: 260 73<0 237>
DStem: 0 739 76 739 148 463 297 327 184 396 76 739 233 304 297 327 513 739 589 739 297 327 443 463 513 739 407 396 297 327 359 304
Fore
260 0 m 1
 260 237 l 1
 50 237 l 1
 50 304 l 1
 233 304 l 1
 184 396 l 1
 43 396 l 1
 43 463 l 1
 148 463 l 1
 0 739 l 1
 76 739 l 1
 297 327 l 1
 513 739 l 1
 589 739 l 1
 443 463 l 1
 546 463 l 1
 546 396 l 1
 407 396 l 1
 359 304 l 1
 539 304 l 1
 539 237 l 1
 333 237 l 1
 333 0 l 1
 260 0 l 1
EndSplineSet
EndChar
StartChar: florin
Encoding: 166 402 101
Width: 554
Flags: W
HStem: -153 67<65 99> 517 67<210 311 392 492> 751 67<502 519>
DStem: 311 517 380 517 231 92 300 86
Fore
392 584 m 1
 504 584 l 1
 492 517 l 1
 380 517 l 1
 300 86 l 1
 279 -29 264 -66 225 -101 c 0
 187 -135 136 -153 76 -153 c 0
 52 -153 35 -151 18 -146 c 1
 30 -82 l 1
 53 -85 65 -86 78 -86 c 0
 171 -86 204 -48 231 92 c 1
 311 517 l 1
 198 517 l 1
 211 584 l 1
 322 584 l 1
 326 607 l 1
 341 684 363 733 400 768 c 0
 431 798 477 818 517 818 c 0
 525 818 532 817 546 815 c 1
 535 749 l 1
 524 751 520 751 513 751 c 0
 491 751 466 741 449 725 c 0
 426 704 407 662 396 607 c 1
 392 584 l 1
EndSplineSet
EndChar
StartChar: section
Encoding: 167 167 102
Width: 615
Flags: W
HStem: -141 67<313 328> 685 67<307 316>
VStem: 87 68<337 356> 135 68<578 606> 433 68<20.3064 40> 461 68<274 291>
DStem: 196 207 209 278 339 137 407 182 212 454 262 505 400 365 420 431
Fore
483 606 m 1xd0
 412 606 l 1
 401 658 366 685 307 685 c 0
 246 685 203 646 203 591 c 0
 203 554 224 524 262 505 c 2
 420 431 l 2
 493 396 529 350 529 289 c 0xd4
 529 234 502 182 453 146 c 1
 486 111 501 78 501 37 c 0
 501 -65 420 -141 313 -141 c 0
 196 -141 110 -56 106 64 c 1
 174 64 l 1
 180 -19 235 -74 313 -74 c 0
 381 -74 433 -27 433 35 c 0
 433 75 406 104 339 137 c 2
 196 207 l 2
 114 248 87 280 87 339 c 0xe8
 87 401 115 450 173 491 c 1
 146 520 135 548 135 589 c 0
 135 683 208 752 307 752 c 0
 404 752 476 692 483 606 c 1xd0
400 365 m 2
 212 454 l 1
 177 430 155 390 155 350 c 0xe4
 155 319 173 296 209 278 c 2
 407 182 l 1
 440 206 461 244 461 280 c 0
 461 317 441 346 400 365 c 2
EndSplineSet
EndChar
StartChar: currency
Encoding: 168 164 103
Width: 554
Flags: W
HStem: 50 72<265 299> 483 70<265 299>
VStem: 26 71<289 323> 457 71<289 323>
Fore
29 494 m 1
 84 548 l 1
 127 506 l 1
 180 540 221 553 276 553 c 0
 334 553 382 538 426 507 c 1
 469 549 l 1
 523 494 l 1
 482 452 l 1
 514 405 528 359 528 300 c 0
 528 240 512 191 481 153 c 1
 523 111 l 1
 469 58 l 1
 428 100 l 1
 371 62 333 50 276 50 c 0
 219 50 180 63 126 100 c 1
 84 58 l 1
 31 112 l 1
 72 153 l 1
 40 197 26 244 26 303 c 0
 26 362 40 406 73 452 c 1
 29 494 l 1
280 483 m 0
 174 483 97 407 97 302 c 0
 97 199 175 122 279 122 c 0
 380 122 457 200 457 303 c 0
 457 406 382 483 280 483 c 0
EndSplineSet
EndChar
StartChar: quotesingle
Encoding: 169 39 104
Width: 198
Flags: W
HStem: 719 20G<74 124>
VStem: 74 50<513 739>
Fore
124 513 m 1
 74 513 l 1
 74 739 l 1
 124 739 l 1
 124 513 l 1
EndSplineSet
EndChar
StartChar: quotedblleft
Encoding: 170 8220 105
Width: 502
Flags: W
HStem: 547 21G<184 258 332 406> 719 20G<96 170 244 318>
DStem: 96 739 170 739 184 547 258 547 244 739 318 739 332 547 406 547
Fore
406 547 m 1
 332 547 l 1
 244 739 l 1
 318 739 l 1
 406 547 l 1
258 547 m 1
 184 547 l 1
 96 739 l 1
 170 739 l 1
 258 547 l 1
EndSplineSet
KernsSLIF: 65 -95 1 0 225 -172 1 0 257 -95 1 0 256 -95 1 0 262 -95 1 0 84 -19 1 0 86 3 1 0 87 12 1 0
EndChar
StartChar: guillemotleft
Encoding: 171 171 106
Width: 425
Flags: W
DStem: 40 300 118 300 153 99 212 132 153 499 212 467 40 300 118 300 211 300 291 300 326 99 385 132 326 499 385 467 211 300 291 300
Fore
153 99 m 1
 40 300 l 1
 153 499 l 1
 212 467 l 1
 118 300 l 1
 212 132 l 1
 153 99 l 1
326 99 m 1
 211 300 l 1
 326 499 l 1
 385 467 l 1
 291 300 l 1
 385 132 l 1
 326 99 l 1
EndSplineSet
EndChar
StartChar: guilsinglleft
Encoding: 172 8249 107
Width: 251
Flags: W
DStem: 40 300 118 300 152 99 211 132 152 499 211 467 40 300 118 300
Fore
152 99 m 1
 40 300 l 1
 152 499 l 1
 211 467 l 1
 118 300 l 1
 211 132 l 1
 152 99 l 1
EndSplineSet
EndChar
StartChar: guilsinglright
Encoding: 173 8250 108
Width: 251
Flags: W
DStem: 40 467 99 499 133 300 211 300 133 300 211 300 40 132 99 99
Fore
99 99 m 1
 40 132 l 1
 133 300 l 1
 40 467 l 1
 99 499 l 1
 211 300 l 1
 99 99 l 1
EndSplineSet
KernsSLIF: 65 -22 1 0 225 -60 1 0 257 -22 1 0 256 -22 1 0 262 -22 1 0 84 -41 1 0 86 -48 1 0 87 -21 1 0 89 -61 1 0
EndChar
StartChar: fi
Encoding: 174 64257 109
Width: 487
Flags: W
HStem: 0 21G<98 172 350 424> 480 67<13 98 172 308> 719 20G<350 424>
VStem: 98 74<0 480 547 574.205> 350 74<0 547 613 739>
Fore
98 0 m 1
 98 480 l 1
 13 480 l 1
 13 547 l 1
 98 547 l 1
 96 674 167 739 308 739 c 1
 308 672 l 1
 207 671 171 638 172 547 c 1
 308 547 l 1
 308 480 l 1
 172 480 l 1
 172 0 l 1
 98 0 l 1
350 0 m 1
 350 547 l 1
 424 547 l 1
 424 0 l 1
 350 0 l 1
350 613 m 1
 350 739 l 1
 424 739 l 1
 424 613 l 1
 350 613 l 1
EndSplineSet
LCarets: 0 65535 '    ' 1 0 
Ligature: 0 0 'liga' f i
EndChar
StartChar: fl
Encoding: 175 64258 110
Width: 485
Flags: W
HStem: 0 21G<98 172 348 422> 480 67<13 98 172 308> 719 20G<348 422>
VStem: 98 74<0 480 547 574.205> 348 74<0 739>
Fore
98 0 m 1
 98 480 l 1
 13 480 l 1
 13 547 l 1
 98 547 l 1
 96 674 167 739 308 739 c 1
 308 672 l 1
 207 671 171 638 172 547 c 1
 308 547 l 1
 308 480 l 1
 172 480 l 1
 172 0 l 1
 98 0 l 1
348 0 m 1
 348 739 l 1
 422 739 l 1
 422 0 l 1
 348 0 l 1
EndSplineSet
Ligature: 0 0 'liga' f l
EndChar
StartChar: endash
Encoding: 177 8211 111
Width: 500
Flags: W
HStem: 233 63<0 500>
Fore
0 296 m 1
 500 296 l 1
 500 233 l 1
 0 233 l 1
 0 296 l 1
EndSplineSet
EndChar
StartChar: dagger
Encoding: 178 8224 112
Width: 553
Flags: W
HStem: 470 66<59 237 311 494> 719 20G<237 311>
VStem: 237 74<-133 470 536 739>
Fore
311 739 m 1
 311 536 l 1
 494 536 l 1
 494 470 l 1
 311 470 l 1
 311 -133 l 1
 237 -133 l 1
 237 470 l 1
 59 470 l 1
 59 536 l 1
 237 536 l 1
 237 739 l 1
 311 739 l 1
EndSplineSet
EndChar
StartChar: daggerdbl
Encoding: 179 8225 113
Width: 553
Flags: W
HStem: 331 70<59 238 312 494> 493 70<59 238 312 494> 719 20G<238 312>
VStem: 238 74<-133 331 401 493 563 739>
Fore
312 739 m 1
 312 563 l 1
 494 563 l 1
 494 493 l 1
 312 493 l 1
 312 401 l 1
 494 401 l 1
 494 331 l 1
 312 331 l 1
 312 -133 l 1
 238 -133 l 1
 238 331 l 1
 59 331 l 1
 59 401 l 1
 238 401 l 1
 238 493 l 1
 59 493 l 1
 59 563 l 1
 238 563 l 1
 238 739 l 1
 312 739 l 1
EndSplineSet
EndChar
StartChar: periodcentered
Encoding: 180 183 114
Width: 277
Flags: W
VStem: 101 74<229 355>
Fore
101 229 m 1
 101 355 l 1
 175 355 l 1
 175 229 l 1
 101 229 l 1
EndSplineSet
EndChar
StartChar: paragraph
Encoding: 182 182 115
Width: 564
Flags: W
HStem: 672 67<260 416>
VStem: 227 75<-133 672> 416 75<-133 739>
Fore
227 -133 m 1
 227 355 l 1
 109 367 37 441 37 549 c 0
 37 615 67 672 119 706 c 0
 155 729 196 739 260 739 c 2
 491 739 l 1
 491 -133 l 1
 416 -133 l 1
 416 672 l 1
 302 672 l 1
 302 -133 l 1
 227 -133 l 1
EndSplineSet
EndChar
StartChar: bullet
Encoding: 183 8226 116
Width: 606
Flags: W
Fore
303 488 m 0
 406 488 488 406 488 304 c 0
 488 200 406 118 301 118 c 0
 201 118 118 202 118 303 c 0
 118 405 201 488 303 488 c 0
EndSplineSet
EndChar
StartChar: quotesinglbase
Encoding: 184 8218 117
Width: 354
Flags: W
DStem: 177 126 251 126 89 -67 163 -67
Fore
89 -67 m 1
 177 126 l 1
 251 126 l 1
 163 -67 l 1
 89 -67 l 1
EndSplineSet
EndChar
StartChar: quotedblbase
Encoding: 185 8222 118
Width: 502
Flags: W
DStem: 177 126 251 126 89 -67 163 -67 324 126 398 126 236 -67 310 -67
Fore
89 -67 m 1
 177 126 l 1
 251 126 l 1
 163 -67 l 1
 89 -67 l 1
236 -67 m 1
 324 126 l 1
 398 126 l 1
 310 -67 l 1
 236 -67 l 1
EndSplineSet
KernsSLIF: 65 6 1 0 225 -8 1 0 84 -52 1 0 86 -96 1 0 87 -57 1 0 89 -93 1 0
EndChar
StartChar: quotedblright
Encoding: 186 8221 119
Width: 484
Flags: W
HStem: 547 21G<87 161 231 305> 719 20G<175 249 319 393>
DStem: 175 739 249 739 87 547 161 547 319 739 393 739 231 547 305 547
Fore
87 547 m 1
 175 739 l 1
 249 739 l 1
 161 547 l 1
 87 547 l 1
231 547 m 1
 319 739 l 1
 393 739 l 1
 305 547 l 1
 231 547 l 1
EndSplineSet
KernsSLIF: 65 -101 1 0 225 -179 1 0 257 -101 1 0 256 -101 1 0 262 -101 1 0 84 -5 1 0 87 7 1 0 89 -4 1 0
EndChar
StartChar: guillemotright
Encoding: 187 187 120
Width: 425
Flags: W
DStem: 40 467 99 499 134 300 214 300 134 300 214 300 40 132 99 99 213 467 272 499 307 300 385 300 307 300 385 300 213 132 272 99
Fore
272 99 m 1
 213 132 l 1
 307 300 l 1
 213 467 l 1
 272 499 l 1
 385 300 l 1
 272 99 l 1
99 99 m 1
 40 132 l 1
 134 300 l 1
 40 467 l 1
 99 499 l 1
 214 300 l 1
 99 99 l 1
EndSplineSet
KernsSLIF: 65 -22 1 0 225 -60 1 0 257 -22 1 0 256 -22 1 0 262 -22 1 0 84 -42 1 0 86 -48 1 0 87 -21 1 0 89 -62 1 0
EndChar
StartChar: ellipsis
Encoding: 188 8230 121
Width: 1000
Flags: W
HStem: 0 126<130 204 463 537 796 870>
VStem: 130 74<0 126> 463 74<0 126> 796 74<0 126>
CounterMasks: 1 00
Fore
130 0 m 1
 130 126 l 1
 204 126 l 1
 204 0 l 1
 130 0 l 1
463 0 m 1
 463 126 l 1
 537 126 l 1
 537 0 l 1
 463 0 l 1
796 0 m 1
 796 126 l 1
 870 126 l 1
 870 0 l 1
 796 0 l 1
EndSplineSet
Ligature: 0 1 'liga' period period period
EndChar
StartChar: perthousand
Encoding: 189 8240 122
Width: 1174
Flags: W
HStem: -13 66<576 590 960.412 990> 272 66<572 590 972 990> 397 66<188 192> 683 66<180 192>
VStem: 13 66<573 580> 296 68<573 580> 401 67<147.265 165> 684 68<147.265 165> 800 67<147.265 165> 1083 68<147.265 165>
DStem: 514 739 588 739 182 0 254 0
Fore
514 739 m 1
 588 739 l 1
 254 0 l 1
 182 0 l 1
 514 739 l 1
578 338 m 0
 673 338 752 258 752 163 c 0
 752 66 673 -13 576 -13 c 0
 480 -13 401 66 401 162 c 0
 401 260 479 338 578 338 c 0
577 272 m 0
 516 272 468 224 468 162 c 0
 468 102 517 53 576 53 c 0
 635 53 684 102 684 162 c 0
 684 222 636 272 577 272 c 0
977 338 m 0
 1072 338 1151 258 1151 163 c 0
 1151 66 1072 -13 975 -13 c 0
 879 -13 800 66 800 162 c 0
 800 260 878 338 977 338 c 0
976 272 m 0
 915 272 867 224 867 162 c 0
 867 102 916 53 975 53 c 0
 1034 53 1083 102 1083 162 c 0
 1083 222 1035 272 976 272 c 0
190 749 m 0
 285 749 364 669 364 573 c 0
 364 476 285 397 188 397 c 0
 92 397 13 476 13 573 c 0
 13 671 91 749 190 749 c 0
189 683 m 0
 128 683 79 634 79 573 c 0
 79 513 128 463 188 463 c 0
 247 463 296 512 296 573 c 0
 296 633 248 683 189 683 c 0
EndSplineSet
EndChar
StartChar: questiondown
Encoding: 191 191 123
Width: 591
Flags: W
HStem: -205 67<273 307> 527 20G<256 330>
VStem: 66 74<2 20> 256 74<421 547>
Fore
330 547 m 1
 330 421 l 1
 256 421 l 1
 256 547 l 1
 330 547 l 1
456 39 m 1
 526 39 l 1
 525 -25 515 -62 490 -102 c 0
 448 -168 377 -205 292 -205 c 0
 161 -205 66 -114 66 12 c 0
 66 77 90 122 156 182 c 1
 230 247 257 292 259 354 c 1
 329 354 l 1
 329 339 l 2
 329 305 317 266 296 232 c 0
 280 205 267 191 224 150 c 0
 157 86 140 59 140 10 c 0
 140 -76 204 -138 293 -138 c 0
 352 -138 405 -109 432 -61 c 0
 446 -35 453 -9 456 39 c 1
EndSplineSet
EndChar
StartChar: grave
Encoding: 193 96 124
Width: 378
Flags: W
DStem: 74 718 106 776 271 610 304 666
Fore
106 776 m 1
 304 666 l 1
 271 610 l 1
 74 718 l 1
 106 776 l 1
EndSplineSet
EndChar
StartChar: acute
Encoding: 194 180 125
Width: 375
Flags: W
DStem: 267 782 301 724 74 666 108 610
Fore
74 666 m 1
 267 782 l 1
 301 724 l 1
 108 610 l 1
 74 666 l 1
EndSplineSet
Ligature: 0 1 'liga' space acutecomb
EndChar
StartChar: circumflex
Encoding: 195 710 126
Width: 502
Flags: W
HStem: 729 20G<219 285>
DStem: 219 749 253 697 74 623 165 623 253 697 285 749 339 623 428 623
Fore
74 623 m 1
 219 749 l 1
 285 749 l 1
 428 623 l 1
 339 623 l 1
 253 697 l 1
 165 623 l 1
 74 623 l 1
EndSplineSet
EndChar
StartChar: tilde
Encoding: 196 732 127
Width: 439
Flags: W
Fore
332 728 m 1
 365 682 l 1
 349 656 307 633 274 633 c 0
 260 633 241 639 208 655 c 0
 193 661 179 665 168 665 c 0
 149 665 141 661 115 639 c 2
 108 633 l 1
 75 679 l 1
 98 709 133 728 168 728 c 0
 186 728 197 725 227 711 c 0
 243 704 266 697 275 697 c 0
 294 697 312 707 332 728 c 1
EndSplineSet
Ligature: 0 1 'liga' space tildecomb
EndChar
StartChar: macron
Encoding: 197 175 128
Width: 485
Flags: W
HStem: 643 64<74 411>
Fore
74 707 m 1
 411 707 l 1
 411 643 l 1
 74 643 l 1
 74 707 l 1
EndSplineSet
Ligature: 0 1 'liga' space uni0304
EndChar
StartChar: breve
Encoding: 198 728 129
Width: 453
Flags: W
HStem: 723 20G<74 138 314 378>
Fore
74 743 m 1
 138 743 l 1
 142 718 149 707 164 697 c 0
 182 687 204 681 226 681 c 0
 248 681 270 687 288 697 c 0
 303 707 310 718 314 743 c 1
 378 743 l 1
 369 694 357 672 329 652 c 0
 303 633 268 623 226 623 c 0
 137 623 89 661 74 743 c 1
EndSplineSet
Ligature: 0 1 'liga' space uni0306
EndChar
StartChar: dotaccent
Encoding: 199 729 130
Width: 222
Flags: W
HStem: 729 20G<74 148>
VStem: 74 74<623 749>
Fore
74 749 m 1
 148 749 l 1
 148 623 l 1
 74 623 l 1
 74 749 l 1
EndSplineSet
Ligature: 0 1 'liga' space uni0307
EndChar
StartChar: dieresis
Encoding: 200 168 131
Width: 369
Flags: W
HStem: 623 126<74 148 221 295>
VStem: 74 74<623 749> 221 74<623 749>
Fore
74 749 m 1
 148 749 l 1
 148 623 l 1
 74 623 l 1
 74 749 l 1
221 749 m 1
 295 749 l 1
 295 623 l 1
 221 623 l 1
 221 749 l 1
EndSplineSet
Ligature: 0 1 'liga' space uni0308
EndChar
StartChar: ring
Encoding: 202 730 132
Width: 332
Flags: W
HStem: 610 41<155.937 171> 753 41<155.975 171>
VStem: 74 41<691.27 707> 217 41<702 707>
Fore
167 794 m 0
 217 794 258 752 258 702 c 0
 258 651 217 610 166 610 c 0
 115 610 74 651 74 701 c 0
 74 753 115 794 167 794 c 0
166 753 m 0
 138 753 115 730 115 701 c 0
 115 674 138 651 166 651 c 0
 194 651 217 674 217 702 c 0
 217 729 194 753 166 753 c 0
EndSplineSet
Ligature: 0 1 'liga' space uni030A
EndChar
StartChar: cedilla
Encoding: 203 184 133
Width: 324
Flags: W
HStem: -213 43<153 174> -72 33<161 174> -20 20G<124 160>
VStem: 207 43<-135 -116>
DStem: 124 0 160 0 89 -79 141 -47
Fore
124 0 m 1
 160 0 l 1
 141 -47 l 1
 156 -41 163 -39 174 -39 c 0
 219 -39 250 -72 250 -120 c 0
 250 -174 213 -213 162 -213 c 0
 116 -213 85 -187 74 -140 c 1
 118 -135 l 1
 124 -157 140 -170 163 -170 c 0
 189 -170 207 -151 207 -124 c 0
 207 -94 188 -72 161 -72 c 0
 144 -72 132 -79 118 -96 c 1
 89 -79 l 1
 124 0 l 1
EndSplineSet
Ligature: 0 1 'liga' space uni0327
EndChar
StartChar: hungarumlaut
Encoding: 205 733 134
Width: 552
Flags: W
DStem: 245 780 283 731 74 657 109 610 441 780 479 731 270 657 305 610
Fore
74 657 m 1
 245 780 l 1
 283 731 l 1
 109 610 l 1
 74 657 l 1
270 657 m 1
 441 780 l 1
 479 731 l 1
 305 610 l 1
 270 657 l 1
EndSplineSet
Ligature: 0 1 'liga' space uni030B
EndChar
StartChar: ogonek
Encoding: 206 731 135
Width: 302
Flags: W
HStem: -191 45<175 187> -20 20G<146 197>
VStem: 74 50<-103 -95>
Fore
146 0 m 1
 197 0 l 1
 154 -31 124 -70 124 -97 c 0
 124 -125 149 -146 183 -146 c 0
 199 -146 213 -143 228 -136 c 1
 228 -182 l 1
 209 -188 193 -191 177 -191 c 0
 117 -191 74 -153 74 -101 c 0
 74 -61 96 -30 146 0 c 1
EndSplineSet
Ligature: 0 1 'liga' space uni0328
EndChar
StartChar: caron
Encoding: 207 711 136
Width: 502
Flags: W
HStem: 729 20G<74 163 337 428>
DStem: 74 749 163 749 217 623 249 675 337 749 428 749 249 675 283 623
Fore
428 749 m 1
 283 623 l 1
 217 623 l 1
 74 749 l 1
 163 749 l 1
 249 675 l 1
 337 749 l 1
 428 749 l 1
EndSplineSet
EndChar
StartChar: emdash
Encoding: 208 8212 137
Width: 1000
Flags: W
HStem: 233 63<0 1000>
Fore
0 296 m 1
 1000 296 l 1
 1000 233 l 1
 0 233 l 1
 0 296 l 1
EndSplineSet
EndChar
StartChar: uniFFFD
Encoding: 209 65533 138
Width: 302
Flags: W
HStem: -191 45<117 127> -20 20G<105 156>
VStem: 178 50<-103 -95>
Fore
156 0 m 1
 105 0 l 1
 148 -31 178 -70 178 -97 c 0
 178 -125 153 -146 119 -146 c 0
 103 -146 89 -143 74 -136 c 1
 74 -182 l 1
 93 -188 109 -191 125 -191 c 0
 185 -191 228 -153 228 -101 c 0
 228 -61 206 -30 156 0 c 1
EndSplineSet
Colour: ffffff
EndChar
StartChar: AE
Encoding: 225 198 138
Width: 992
Flags: W
HStem: 0 67<617 936> 250 67<319 543> 340 67<617 925> 672 67<522 936>
VStem: 543 74<0 340 317 672>
DStem: 522 739 543 644 11 0 319 317 522 739 272 250 11 0 99 0
Fore
11 0 m 1
 522 739 l 1
 936 739 l 1
 936 672 l 1
 617 672 l 1
 617 407 l 1
 925 407 l 1
 925 340 l 1
 617 340 l 1
 617 67 l 1
 936 67 l 1
 936 0 l 1
 543 0 l 1
 543 250 l 1
 272 250 l 1
 99 0 l 1
 11 0 l 1
319 317 m 1
 543 317 l 1
 543 644 l 1
 319 317 l 1
EndSplineSet
EndChar
StartChar: ordfeminine
Encoding: 227 170 139
Width: 369
Flags: W
HStem: 319 51<31 339> 441 49<174 192> 696 49<174 192>
VStem: 31 53<590 608> 282 51<578.389 597>
Fore
333 739 m 1
 333 448 l 1
 285 448 l 1
 285 493 l 1
 256 456 225 441 182 441 c 0
 100 441 31 511 31 594 c 0
 31 677 99 745 183 745 c 0
 224 745 266 724 285 694 c 1
 285 739 l 1
 333 739 l 1
184 696 m 0
 132 696 84 648 84 595 c 0
 84 539 131 490 184 490 c 0
 236 490 282 539 282 592 c 0
 282 648 236 696 184 696 c 0
31 370 m 1
 339 370 l 1
 339 319 l 1
 31 319 l 1
 31 370 l 1
EndSplineSet
EndChar
StartChar: Lslash
Encoding: 232 321 140
Width: 517
Flags: W
HStem: 0 67<196 502> 719 20G<122 196>
VStem: 122 74<0 353 387 739>
DStem: 356 569 356 485 196 436 196 353
Fore
122 0 m 1
 122 303 l 1
 26 224 l 1
 26 307 l 1
 122 387 l 1
 122 739 l 1
 196 739 l 1
 196 436 l 1
 356 569 l 1
 356 485 l 1
 196 353 l 1
 196 67 l 1
 502 67 l 1
 502 0 l 1
 122 0 l 1
EndSplineSet
EndChar
StartChar: Oslash
Encoding: 233 216 141
Width: 868
Flags: W
HStem: -13 68<411 461> 684 68<411 445>
VStem: 44 75<348 382> 749 75<348 382>
DStem: 176 82 233 42 83 -42 139 -83 595 641 650 600 219 138 274 97 730 821 784 779 636 696 692 656
Fore
83 -42 m 1
 176 82 l 1
 91 153 44 255 44 370 c 0
 44 584 214 752 431 752 c 0
 507 752 586 730 636 696 c 1
 730 821 l 1
 784 779 l 1
 692 656 l 1
 780 582 824 486 824 372 c 0
 824 157 653 -13 437 -13 c 0
 365 -13 293 6 233 42 c 1
 139 -83 l 1
 83 -42 l 1
219 138 m 1
 595 641 l 1
 549 669 490 684 430 684 c 0
 256 684 119 544 119 366 c 0
 119 276 152 201 219 138 c 1
650 600 m 1
 274 97 l 1
 331 67 378 55 436 55 c 0
 611 55 749 194 749 369 c 0
 749 461 718 534 650 600 c 1
EndSplineSet
KernsSLIF: 65 -36 0 0
EndChar
StartChar: OE
Encoding: 234 338 142
Width: 1194
Flags: W
HStem: -13 68<427 461> 0 67<819 1138> 340 67<819 1127> 672 67<745 1138> 684 68<432 447>
VStem: 44 75<354 388> 745 74<0 340 592 672> 746 381<354 407>
Fore
745 739 m 1x36
 1138 739 l 1
 1138 672 l 1
 819 672 l 1
 819 407 l 1x36
 1127 407 l 1
 1127 340 l 1x35
 819 340 l 1
 819 67 l 1
 1138 67 l 1
 1138 0 l 1
 745 0 l 1x76
 745 151 l 1
 683 44 579 -13 445 -13 c 0
 214 -13 44 150 44 371 c 0
 44 589 210 752 432 752 c 0xae
 570 752 683 695 745 592 c 1
 745 739 l 1x36
432 684 m 0xad
 339 684 260 652 202 590 c 0
 151 534 119 453 119 375 c 0
 119 191 255 55 439 55 c 0
 616 55 746 189 746 372 c 0
 746 553 614 684 432 684 c 0xad
EndSplineSet
EndChar
StartChar: ordmasculine
Encoding: 235 186 143
Width: 369
Flags: W
HStem: 319 51<32 337> 442 49<175 193> 696 49<175 193>
VStem: 32 53<590 608> 284 53<577.856 608>
Fore
185 745 m 0
 267 745 337 676 337 594 c 0
 337 511 267 442 184 442 c 0
 100 442 32 510 32 596 c 0
 32 676 102 745 185 745 c 0
184 696 m 0
 129 696 85 650 85 594 c 0
 85 537 129 491 185 491 c 0
 239 491 284 537 284 592 c 0
 284 651 241 696 184 696 c 0
32 370 m 1
 337 370 l 1
 337 319 l 1
 32 319 l 1
 32 370 l 1
EndSplineSet
EndChar
StartChar: ae
Encoding: 241 230 144
Width: 1157
Flags: W
HStem: -13 68<313 347 839 859> 247 67<626 1118> 492 68<313 347 825 842>
VStem: 42 76<258 292> 548 71<0 92 452 547>
Fore
1118 247 m 1
 623 247 l 1
 633 137 726 55 839 55 c 0
 923 55 997 103 1028 178 c 1
 1105 178 l 1
 1067 64 960 -13 839 -13 c 0
 752 -13 679 22 619 92 c 1
 619 0 l 1
 548 0 l 1
 548 92 l 1
 487 18 422 -13 331 -13 c 0
 167 -13 42 110 42 272 c 0
 42 345 70 419 119 472 c 0
 172 530 244 560 330 560 c 0
 426 560 494 526 548 452 c 1
 548 547 l 1
 619 547 l 1
 619 452 l 1
 678 526 746 560 835 560 c 0
 934 560 1022 512 1075 430 c 0
 1106 380 1118 331 1118 247 c 1
626 314 m 1
 1046 314 l 1
 1026 422 943 492 836 492 c 0
 727 492 642 419 626 314 c 1
333 492 m 0
 211 492 118 398 118 274 c 0
 118 151 212 55 333 55 c 0
 455 55 550 151 550 274 c 0
 550 400 459 492 333 492 c 0
EndSplineSet
KernsSLIF: 118 -23 0 0 119 -20 0 0 121 -22 0 0
EndChar
StartChar: dotlessi
Encoding: 245 305 145
Width: 200
Flags: W
HStem: 0 21G<63 137> 527 20G<63 137>
VStem: 63 74<0 547>
Fore
63 0 m 1
 63 547 l 1
 137 547 l 1
 137 0 l 1
 63 0 l 1
EndSplineSet
EndChar
StartChar: lslash
Encoding: 248 322 146
Width: 300
Flags: W
HStem: 0 21G<114 188> 719 20G<114 188>
VStem: 114 74<0 379 418 739>
Fore
114 0 m 1
 114 346 l 1
 36 293 l 1
 36 365 l 1
 114 418 l 1
 114 739 l 1
 188 739 l 1
 188 451 l 1
 270 506 l 1
 270 433 l 1
 188 379 l 1
 188 0 l 1
 114 0 l 1
EndSplineSet
EndChar
StartChar: oslash
Encoding: 249 248 147
Width: 653
Flags: W
HStem: -13 68<313 332> 492 68<313 347>
VStem: 42 75<248 284> 536 75<264 298>
DStem: 124 68 178 28 73 1 126 -39 434 468 487 426 166 121 218 79 531 594 584 552 474 519 528 478
Fore
73 1 m 1
 124 68 l 1
 64 138 42 193 42 272 c 0
 42 432 169 560 328 560 c 0
 382 560 429 547 474 519 c 1
 531 594 l 1
 584 552 l 1
 528 478 l 1
 584 427 611 362 611 281 c 0
 611 110 493 -13 328 -13 c 0
 274 -13 234 -2 178 28 c 1
 126 -39 l 1
 73 1 l 1
166 121 m 1
 434 468 l 1
 402 484 367 492 329 492 c 0
 209 492 117 394 117 266 c 0
 117 211 131 170 166 121 c 1
487 426 m 1
 218 79 l 1
 258 61 285 55 323 55 c 0
 449 55 536 148 536 280 c 0
 536 339 521 384 487 426 c 1
EndSplineSet
EndChar
StartChar: oe
Encoding: 250 339 148
Width: 1137
Flags: W
HStem: -13 68<331 347 809 843> 248 67<608 1096> 492 68<313 347 793 830>
VStem: 42 75<258 292>
Fore
1096 248 m 1
 608 248 l 1
 611 200 623 170 654 133 c 0
 698 82 756 55 824 55 c 0
 910 55 972 96 1012 179 c 1
 1086 179 l 1
 1073 130 1046 90 1002 50 c 0
 954 8 896 -13 828 -13 c 0
 713 -13 617 44 571 138 c 1
 511 33 437 -13 331 -13 c 0
 168 -13 42 112 42 274 c 0
 42 435 165 560 324 560 c 0
 431 560 511 513 571 414 c 1
 628 512 708 560 817 560 c 0
 976 560 1098 441 1098 286 c 0
 1098 278 1097 265 1096 248 c 1
608 315 m 1
 1027 315 l 1
 1009 421 923 492 815 492 c 0
 713 492 635 425 608 315 c 1
326 492 m 0
 206 492 117 399 117 273 c 0
 117 150 210 55 331 55 c 0
 447 55 536 150 536 273 c 0
 536 399 446 492 326 492 c 0
EndSplineSet
EndChar
StartChar: germandbls
Encoding: 251 223 149
Width: 554
Flags: W
HStem: -13 68<300.353 332> 343 65<233 269> 684 68<250 271>
VStem: 59 74<0 109 0 516> 59 125<0 203> 399 75<530 564> 449 75<178 212>
Fore
59 0 m 1xf2
 59 481 l 2
 59 566 69 620 95 664 c 0
 126 718 191 752 263 752 c 0
 384 752 474 663 474 544 c 0xf4
 474 472 447 424 389 389 c 1
 476 361 524 294 524 199 c 0
 524 78 436 -13 319 -13 c 0
 233 -13 170 28 133 109 c 1
 133 0 l 1
 59 0 l 1xf2
133 203 m 1
 184 203 l 1
 186 116 241 55 317 55 c 0
 391 55 449 117 449 197 c 0xea
 449 288 381 343 269 343 c 0
 262 343 257 343 224 341 c 1
 224 408 l 1
 233 408 l 2
 337 408 399 460 399 548 c 0
 399 626 342 684 265 684 c 0
 217 684 175 660 156 621 c 0
 139 587 133 552 133 481 c 2
 133 203 l 1
EndSplineSet
EndChar
StartChar: Adieresis
Encoding: 256 196 150
Width: 740
Flags: W
HStem: 0 21G<11 89 648 729> 249 67<225 541> 719 20G<328 411> 805 126<260 334 407 481>
VStem: 260 74<805 931> 407 74<805 931>
DStem: 328 739 370 655 11 0 225 316 328 739 197 249 11 0 89 0 370 655 411 739 512 316 729 0 541 249 411 739 648 0 729 0
Fore
11 0 m 1
 328 739 l 1
 411 739 l 1
 729 0 l 1
 648 0 l 1
 541 249 l 1
 197 249 l 1
 89 0 l 1
 11 0 l 1
225 316 m 1
 512 316 l 1
 370 655 l 1
 225 316 l 1
260 931 m 1
 334 931 l 1
 334 805 l 1
 260 805 l 1
 260 931 l 1
407 931 m 1
 481 931 l 1
 481 805 l 1
 407 805 l 1
 407 931 l 1
EndSplineSet
KernsSLIF: 67 -36 0 0 71 -38 0 0 79 -38 0 0 81 -38 0 0 84 -50 0 0 85 -29 0 0 86 -72 0 0 87 -47 0 0 89 -77 0 0 97 -20 0 0 98 5 0 0 99 -22 0 0 44 -5 0 0 100 -21 0 0 103 -23 0 0 171 -22 0 0 172 -22 0 0 45 13 0 0 111 -20 0 0 46 13 0 0 113 -21 0 0 186 -90 0 0 39 -92 0 0 116 -28 0 0 117 -15 0 0 118 -39 0 0 119 -33 0 0 121 -37 0 0
Ligature: 0 0 'liga' A uni0308
EndChar
StartChar: Aacute
Encoding: 257 193 151
Width: 740
Flags: W
HStem: 0 21G<11 89 648 729> 249 67<225 541> 719 20G<328 411>
DStem: 328 739 370 655 11 0 225 316 328 739 197 249 11 0 89 0 370 655 411 739 512 316 729 0 483 964 517 906 290 848 324 792 541 249 411 739 648 0 729 0
Fore
11 0 m 1
 328 739 l 1
 411 739 l 1
 729 0 l 1
 648 0 l 1
 541 249 l 1
 197 249 l 1
 89 0 l 1
 11 0 l 1
225 316 m 1
 512 316 l 1
 370 655 l 1
 225 316 l 1
290 848 m 1
 483 964 l 1
 517 906 l 1
 324 792 l 1
 290 848 l 1
EndSplineSet
KernsSLIF: 67 -36 0 0 71 -38 0 0 79 -38 0 0 81 -38 0 0 84 -50 0 0 85 -29 0 0 86 -72 0 0 87 -47 0 0 89 -77 0 0 97 -20 0 0 98 5 0 0 99 -22 0 0 44 -5 0 0 100 -21 0 0 101 -21 0 0 103 -23 0 0 171 -22 0 0 172 -22 0 0 45 13 0 0 111 -20 0 0 46 13 0 0 113 -21 0 0 39 -92 0 0 116 -28 0 0 117 -15 0 0 118 -39 0 0 119 -33 0 0 121 -37 0 0
Ligature: 0 0 'liga' A acutecomb
EndChar
StartChar: Agrave
Encoding: 258 192 152
Width: 740
Flags: W
HStem: 0 21G<11 89 648 729> 249 67<225 541> 719 20G<328 411>
DStem: 222 900 254 958 419 792 452 848 328 739 370 655 11 0 225 316 328 739 197 249 11 0 89 0 370 655 411 739 512 316 729 0 541 249 411 739 648 0 729 0
Fore
11 0 m 1
 328 739 l 1
 411 739 l 1
 729 0 l 1
 648 0 l 1
 541 249 l 1
 197 249 l 1
 89 0 l 1
 11 0 l 1
225 316 m 1
 512 316 l 1
 370 655 l 1
 225 316 l 1
254 958 m 1
 452 848 l 1
 419 792 l 1
 222 900 l 1
 254 958 l 1
EndSplineSet
KernsSLIF: 67 -36 0 0 71 -38 0 0 79 -38 0 0 81 -38 0 0 84 -50 0 0 85 -29 0 0 86 -72 0 0 87 -47 0 0 89 -77 0 0 44 -5 0 0 46 13 0 0
Ligature: 0 0 'liga' A gravecomb
EndChar
StartChar: Acircumflex
Encoding: 259 194 153
Width: 740
Flags: W
HStem: 0 21G<11 89 648 729> 249 67<225 541> 719 20G<328 411>
DStem: 328 739 370 655 11 0 225 316 328 739 197 249 11 0 89 0 338 931 372 879 193 805 284 805 370 655 411 739 512 316 729 0 372 879 404 931 458 805 547 805 541 249 411 739 648 0 729 0
Fore
11 0 m 1
 328 739 l 1
 411 739 l 1
 729 0 l 1
 648 0 l 1
 541 249 l 1
 197 249 l 1
 89 0 l 1
 11 0 l 1
225 316 m 1
 512 316 l 1
 370 655 l 1
 225 316 l 1
193 805 m 1
 338 931 l 1
 404 931 l 1
 547 805 l 1
 458 805 l 1
 372 879 l 1
 284 805 l 1
 193 805 l 1
EndSplineSet
KernsSLIF: 67 -36 0 0 71 -38 0 0 79 -38 0 0 81 -38 0 0 84 -50 0 0 85 -29 0 0 86 -72 0 0 87 -47 0 0 89 -77 0 0 44 -5 0 0 46 13 0 0
Ligature: 0 0 'liga' A uni0302
EndChar
StartChar: Abreve
Encoding: 260 258 154
Width: 740
Flags: W
HStem: 0 21G<11 89 648 729> 249 67<225 541> 719 20G<328 411> 805 58<370 380>
DStem: 328 739 370 655 11 0 225 316 328 739 197 249 11 0 89 0 370 655 411 739 512 316 729 0 541 249 411 739 648 0 729 0
Fore
11 0 m 1
 328 739 l 1
 411 739 l 1
 729 0 l 1
 648 0 l 1
 541 249 l 1
 197 249 l 1
 89 0 l 1
 11 0 l 1
225 316 m 1
 512 316 l 1
 370 655 l 1
 225 316 l 1
218 925 m 1
 282 925 l 1
 286 900 293 889 308 879 c 0
 326 869 348 863 370 863 c 0
 392 863 414 869 432 879 c 0
 447 889 454 900 458 925 c 1
 522 925 l 1
 513 876 501 854 473 834 c 0
 447 815 412 805 370 805 c 0
 281 805 233 843 218 925 c 1
EndSplineSet
Ligature: 0 0 'liga' A uni0306
EndChar
StartChar: Atilde
Encoding: 261 195 155
Width: 740
Flags: W
HStem: 0 21G<11 89 648 729> 249 67<225 541> 719 20G<328 411> 815 64<425 430> 847 63<321 332>
DStem: 328 739 370 655 11 0 225 316 328 739 197 249 11 0 89 0 370 655 411 739 512 316 729 0 541 249 411 739 648 0 729 0
Fore
11 0 m 1xe0
 328 739 l 1
 411 739 l 1
 729 0 l 1
 648 0 l 1
 541 249 l 1
 197 249 l 1
 89 0 l 1
 11 0 l 1xe0
225 316 m 1
 512 316 l 1
 370 655 l 1
 225 316 l 1
485 910 m 1xe8
 518 864 l 1
 502 838 460 815 427 815 c 0xf0
 413 815 394 821 361 837 c 0
 346 843 332 847 321 847 c 0xe8
 302 847 294 843 268 821 c 2
 261 815 l 1xf0
 228 861 l 1
 251 891 286 910 321 910 c 0xe8
 339 910 350 907 380 893 c 0
 396 886 419 879 428 879 c 0xf0
 447 879 465 889 485 910 c 1xe8
EndSplineSet
KernsSLIF: 67 -36 0 0 71 -38 0 0 79 -38 0 0 81 -38 0 0 84 -50 0 0 85 -29 0 0 86 -72 0 0 87 -47 0 0 89 -77 0 0 44 -5 0 0 46 13 0 0
Ligature: 0 0 'liga' A tildecomb
EndChar
StartChar: Aring
Encoding: 262 197 156
Width: 740
Flags: W
HStem: 0 21G<11 89 648 729> 249 67<225 541> 719 20G<328 411> 792 41<370 380> 935 41<362 380>
VStem: 278 41<883 887> 421 41<884 886>
DStem: 328 739 370 655 11 0 225 316 328 739 197 249 11 0 89 0 370 655 411 739 512 316 729 0 541 249 411 739 648 0 729 0
Fore
11 0 m 1
 328 739 l 1
 411 739 l 1
 729 0 l 1
 648 0 l 1
 541 249 l 1
 197 249 l 1
 89 0 l 1
 11 0 l 1
225 316 m 1
 512 316 l 1
 370 655 l 1
 225 316 l 1
371 976 m 0
 421 976 462 934 462 884 c 0
 462 833 421 792 370 792 c 0
 319 792 278 833 278 883 c 0
 278 935 319 976 371 976 c 0
370 935 m 0
 342 935 319 912 319 883 c 0
 319 856 342 833 370 833 c 0
 398 833 421 856 421 884 c 0
 421 911 398 935 370 935 c 0
EndSplineSet
KernsSLIF: 67 -36 0 0 71 -38 0 0 79 -38 0 0 81 -38 0 0 84 -50 0 0 85 -29 0 0 86 -72 0 0 87 -47 0 0 89 -77 0 0 97 -20 0 0 98 5 0 0 99 -22 0 0 44 -5 0 0 100 -21 0 0 101 -21 0 0 103 -23 0 0 171 -22 0 0 172 -22 0 0 45 13 0 0 111 -20 0 0 46 13 0 0 113 -21 0 0 186 -90 0 0 39 -92 0 0 116 -28 0 0 117 -15 0 0 118 -39 0 0 119 -33 0 0 121 -37 0 0
Ligature: 0 0 'liga' A uni030A
EndChar
StartChar: Aogonek
Encoding: 263 260 157
Width: 740
Flags: W
HStem: -191 45<707 717> -20 20G<648 678> 249 67<225 541> 719 20G<328 412>
VStem: 606 50<-103 -95>
DStem: 328 739 370 655 11 0 225 316 328 739 197 249 11 0 89 0 370 655 412 739 512 316 729 0 541 249 412 739 648 0 729 0
Fore
328 739 m 1
 412 739 l 1
 729 0 l 1
 686 -31 656 -70 656 -97 c 0
 656 -125 681 -146 715 -146 c 0
 731 -146 745 -143 760 -136 c 1
 760 -182 l 1
 741 -188 725 -191 709 -191 c 0
 649 -191 606 -153 606 -101 c 0
 606 -61 627 -31 678 0 c 1
 648 0 l 1
 541 249 l 1
 197 249 l 1
 89 0 l 1
 11 0 l 1
 328 739 l 1
225 316 m 1
 512 316 l 1
 370 655 l 1
 225 316 l 1
EndSplineSet
Ligature: 0 0 'liga' A uni0328
EndChar
StartChar: Ccedilla
Encoding: 264 199 158
Width: 813
Flags: W
HStem: -240 47<411 434> -99 38<422 439> -13 68<429 445> 547 21G<684 767> 684 68<404 445>
VStem: 44 75<351 385> 468 48<-159 -143>
DStem: 390 -12 429 -13 348 -103 405 -68
Fore
429 -13 m 1
 405 -68 l 1
 419 -63 427 -61 439 -61 c 0
 485 -61 516 -95 516 -145 c 0
 516 -201 478 -240 424 -240 c 0
 377 -240 345 -214 331 -166 c 1
 378 -159 l 1
 386 -183 400 -193 423 -193 c 0
 451 -193 468 -175 468 -147 c 0
 468 -119 449 -99 422 -99 c 0
 405 -99 393 -105 378 -121 c 1
 348 -103 l 1
 390 -12 l 1
 308 0 263 16 211 52 c 0
 103 125 44 236 44 367 c 0
 44 588 207 752 427 752 c 0
 580 752 710 674 767 547 c 1
 684 547 l 1
 656 591 636 613 603 634 c 0
 554 667 494 684 430 684 c 0
 254 684 119 548 119 370 c 0
 119 197 260 55 431 55 c 0
 498 55 565 77 614 116 c 0
 639 135 657 155 688 194 c 1
 770 194 l 1
 699 58 581 -14 429 -13 c 1
EndSplineSet
KernsSLIF: 65 -22 0 0
Ligature: 0 0 'liga' C uni0327
EndChar
StartChar: Cacute
Encoding: 265 262 159
Width: 813
Flags: W
HStem: -13 68<411 445> 547 21G<684 767> 684 68<411 445>
VStem: 44 75<354 388>
DStem: 526 964 560 906 333 848 367 792
Fore
688 194 m 1
 770 194 l 1
 696 57 582 -13 432 -13 c 0
 211 -13 44 151 44 367 c 0
 44 588 207 752 427 752 c 0
 580 752 710 674 767 547 c 1
 684 547 l 1
 656 591 636 613 603 634 c 0
 554 667 494 684 430 684 c 0
 254 684 119 548 119 370 c 0
 119 197 260 55 431 55 c 0
 498 55 565 77 614 116 c 0
 639 135 657 155 688 194 c 1
333 848 m 1
 526 964 l 1
 560 906 l 1
 367 792 l 1
 333 848 l 1
EndSplineSet
Ligature: 0 0 'liga' C acutecomb
EndChar
StartChar: Ccaron
Encoding: 266 268 160
Width: 813
Flags: W
HStem: -13 68<411 445> 547 21G<684 767> 684 68<411 445>
VStem: 44 75<354 388>
DStem: 250 931 339 931 393 805 425 857 513 931 604 931 425 857 459 805
Fore
688 194 m 1
 770 194 l 1
 696 57 582 -13 432 -13 c 0
 211 -13 44 151 44 367 c 0
 44 588 207 752 427 752 c 0
 580 752 710 674 767 547 c 1
 684 547 l 1
 656 591 636 613 603 634 c 0
 554 667 494 684 430 684 c 0
 254 684 119 548 119 370 c 0
 119 197 260 55 431 55 c 0
 498 55 565 77 614 116 c 0
 639 135 657 155 688 194 c 1
604 931 m 1
 459 805 l 1
 393 805 l 1
 250 931 l 1
 339 931 l 1
 425 857 l 1
 513 931 l 1
 604 931 l 1
EndSplineSet
Ligature: 0 0 'liga' C uni030C
EndChar
StartChar: Dcaron
Encoding: 267 270 161
Width: 744
Flags: W
HStem: 0 67<150 300> 672 67<76 300>
VStem: 76 74<0 672> 625 75<351 385>
DStem: 155 931 244 931 298 805 330 857 418 931 509 931 330 857 364 805
Fore
76 0 m 1
 76 739 l 1
 250 739 l 2
 384 739 462 723 532 681 c 0
 642 616 700 506 700 367 c 0
 700 229 641 121 529 55 c 0
 464 17 386 0 275 0 c 2
 76 0 l 1
150 67 m 1
 253 67 l 2
 384 67 460 86 519 133 c 0
 587 188 625 273 625 370 c 0
 625 480 576 573 491 624 c 0
 435 658 365 672 253 672 c 2
 150 672 l 1
 150 67 l 1
509 931 m 1
 364 805 l 1
 298 805 l 1
 155 931 l 1
 244 931 l 1
 330 857 l 1
 418 931 l 1
 509 931 l 1
EndSplineSet
Ligature: 0 0 'liga' D uni030C
EndChar
StartChar: Edieresis
Encoding: 268 203 162
Width: 536
Flags: W
HStem: 0 67<150 480> 340 67<150 469> 672 67<76 480> 805 126<168 242 315 389>
VStem: 76 74<0 340 0 672> 168 74<805 931> 315 74<805 931>
Fore
76 0 m 1
 76 739 l 1
 480 739 l 1
 480 672 l 1
 150 672 l 1
 150 407 l 1
 469 407 l 1
 469 340 l 1
 150 340 l 1
 150 67 l 1
 480 67 l 1
 480 0 l 1
 76 0 l 1
168 931 m 1
 242 931 l 1
 242 805 l 1
 168 805 l 1
 168 931 l 1
315 931 m 1
 389 931 l 1
 389 805 l 1
 315 805 l 1
 315 931 l 1
EndSplineSet
Ligature: 0 0 'liga' E uni0308
EndChar
StartChar: Eacute
Encoding: 269 201 163
Width: 536
Flags: W
HStem: 0 67<150 480> 340 67<150 469> 672 67<76 480>
VStem: 76 74<0 340 0 672>
DStem: 391 964 425 906 198 848 232 792
Fore
76 0 m 1
 76 739 l 1
 480 739 l 1
 480 672 l 1
 150 672 l 1
 150 407 l 1
 469 407 l 1
 469 340 l 1
 150 340 l 1
 150 67 l 1
 480 67 l 1
 480 0 l 1
 76 0 l 1
198 848 m 1
 391 964 l 1
 425 906 l 1
 232 792 l 1
 198 848 l 1
EndSplineSet
Ligature: 0 0 'liga' E acutecomb
EndChar
StartChar: Egrave
Encoding: 270 200 164
Width: 536
Flags: W
HStem: 0 67<150 480> 340 67<150 469> 672 67<76 480>
VStem: 76 74<0 340 0 672>
DStem: 130 900 162 958 327 792 360 848
Fore
76 0 m 1
 76 739 l 1
 480 739 l 1
 480 672 l 1
 150 672 l 1
 150 407 l 1
 469 407 l 1
 469 340 l 1
 150 340 l 1
 150 67 l 1
 480 67 l 1
 480 0 l 1
 76 0 l 1
162 958 m 1
 360 848 l 1
 327 792 l 1
 130 900 l 1
 162 958 l 1
EndSplineSet
Ligature: 0 0 'liga' E gravecomb
EndChar
StartChar: Ecircumflex
Encoding: 271 202 165
Width: 536
Flags: W
HStem: 0 67<150 480> 340 67<150 469> 672 67<76 480>
VStem: 76 74<0 340 0 672>
DStem: 246 931 280 879 101 805 192 805 280 879 312 931 366 805 455 805
Fore
76 0 m 1
 76 739 l 1
 480 739 l 1
 480 672 l 1
 150 672 l 1
 150 407 l 1
 469 407 l 1
 469 340 l 1
 150 340 l 1
 150 67 l 1
 480 67 l 1
 480 0 l 1
 76 0 l 1
101 805 m 1
 246 931 l 1
 312 931 l 1
 455 805 l 1
 366 805 l 1
 280 879 l 1
 192 805 l 1
 101 805 l 1
EndSplineSet
Ligature: 0 0 'liga' E uni0302
EndChar
StartChar: Ecaron
Encoding: 272 282 166
Width: 536
Flags: W
HStem: 0 67<150 480> 340 67<150 469> 672 67<76 480>
VStem: 76 74<0 340 0 672>
DStem: 111 931 200 931 254 805 286 857 374 931 465 931 286 857 320 805
Fore
76 0 m 1
 76 739 l 1
 480 739 l 1
 480 672 l 1
 150 672 l 1
 150 407 l 1
 469 407 l 1
 469 340 l 1
 150 340 l 1
 150 67 l 1
 480 67 l 1
 480 0 l 1
 76 0 l 1
465 931 m 1
 320 805 l 1
 254 805 l 1
 111 931 l 1
 200 931 l 1
 286 857 l 1
 374 931 l 1
 465 931 l 1
EndSplineSet
Ligature: 0 0 'liga' E uni030C
EndChar
StartChar: Edotaccent
Encoding: 273 278 167
Width: 536
Flags: W
HStem: 0 67<150 480> 340 67<150 469> 672 67<76 480>
VStem: 76 74<0 340 0 672> 251 74<805 931>
Fore
76 0 m 1
 76 739 l 1
 480 739 l 1
 480 672 l 1
 150 672 l 1
 150 407 l 1
 469 407 l 1
 469 340 l 1
 150 340 l 1
 150 67 l 1
 480 67 l 1
 480 0 l 1
 76 0 l 1
251 931 m 1
 325 931 l 1
 325 805 l 1
 251 805 l 1
 251 931 l 1
EndSplineSet
Ligature: 0 0 'liga' E uni0307
EndChar
StartChar: Eogonek
Encoding: 274 280 168
Width: 536
Flags: W
HStem: -191 45<458 477> 0 67<150 428> 340 67<150 469> 672 67<76 480>
VStem: 76 74<0 340 0 672> 357 50<-103 -95>
Fore
76 739 m 1
 480 739 l 1
 480 672 l 1
 150 672 l 1
 150 407 l 1
 469 407 l 1
 469 340 l 1
 150 340 l 1
 150 67 l 1
 480 67 l 1
 480 0 l 1
 436 -32 407 -70 407 -97 c 0
 407 -126 432 -146 466 -146 c 0
 482 -146 496 -143 511 -136 c 1
 511 -182 l 1
 492 -188 476 -191 460 -191 c 0
 400 -191 357 -153 357 -101 c 0
 357 -60 377 -31 428 0 c 1
 76 0 l 1
 76 739 l 1
EndSplineSet
Ligature: 0 0 'liga' E uni0328
EndChar
StartChar: Gbreve
Encoding: 275 286 169
Width: 872
Flags: W
HStem: -13 68<427 461> 274 67<329 742> 684 68<427 461> 805 58<436 448>
VStem: 44 75<354 388>
Fore
329 341 m 1
 831 341 l 1
 826 258 794 181 734 112 c 0
 663 31 563 -13 446 -13 c 0
 220 -13 44 155 44 371 c 0
 44 585 216 752 436 752 c 0
 597 752 737 668 786 542 c 1
 703 542 l 1
 652 632 556 684 442 684 c 0
 260 684 119 547 119 369 c 0
 119 193 262 55 443 55 c 0
 529 55 607 86 664 143 c 0
 706 185 731 226 742 274 c 1
 329 274 l 1
 329 341 l 1
284 925 m 1
 348 925 l 1
 352 900 359 889 374 879 c 0
 392 869 414 863 436 863 c 0
 458 863 480 869 498 879 c 0
 513 889 520 900 524 925 c 1
 588 925 l 1
 579 876 567 854 539 834 c 0
 513 815 478 805 436 805 c 0
 347 805 299 843 284 925 c 1
EndSplineSet
Ligature: 0 0 'liga' G uni0306
EndChar
StartChar: Idieresis
Encoding: 276 207 170
Width: 226
Flags: W
HStem: 0 21G<77 151> 719 20G<77 151> 805 126<3 77 150 224>
VStem: 3 74<805 931> 77 74<0 739> 150 74<805 931>
Fore
77 0 m 1xf0
 77 739 l 1
 151 739 l 1xf0
 151 0 l 1xf0
 77 0 l 1xf0
3 931 m 1
 77 931 l 1
 77 805 l 1
 3 805 l 1
 3 931 l 1
150 931 m 1xf4
 224 931 l 1
 224 805 l 1
 150 805 l 1
 150 931 l 1xf4
EndSplineSet
Ligature: 0 0 'liga' I uni0308
EndChar
StartChar: Iacute
Encoding: 277 205 171
Width: 226
Flags: W
HStem: 0 21G<76 150> 719 20G<76 150>
VStem: 76 74<0 739>
DStem: 192 964 226 906 -1 848 33 792
Fore
76 0 m 1
 76 739 l 1
 150 739 l 1
 150 0 l 1
 76 0 l 1
-1 848 m 1
 192 964 l 1
 226 906 l 1
 33 792 l 1
 -1 848 l 1
EndSplineSet
Ligature: 0 0 'liga' I acutecomb
EndChar
StartChar: Igrave
Encoding: 278 204 172
Width: 226
Flags: W
HStem: 0 21G<76 150> 719 20G<76 150>
VStem: 76 74<0 739>
DStem: -2 900 30 958 195 792 228 848
Fore
76 0 m 1
 76 739 l 1
 150 739 l 1
 150 0 l 1
 76 0 l 1
30 958 m 1
 228 848 l 1
 195 792 l 1
 -2 900 l 1
 30 958 l 1
EndSplineSet
Ligature: 0 0 'liga' I gravecomb
EndChar
StartChar: Icircumflex
Encoding: 279 206 173
Width: 226
Flags: W
HStem: 0 21G<76 150> 719 20G<76 150>
VStem: 76 74<0 739>
DStem: 81 931 115 879 -64 805 27 805 115 879 147 931 201 805 290 805
Fore
76 0 m 1
 76 739 l 1
 150 739 l 1
 150 0 l 1
 76 0 l 1
-64 805 m 1
 81 931 l 1
 147 931 l 1
 290 805 l 1
 201 805 l 1
 115 879 l 1
 27 805 l 1
 -64 805 l 1
EndSplineSet
Ligature: 0 0 'liga' I uni0302
EndChar
StartChar: Idotaccent
Encoding: 280 304 174
Width: 226
Flags: W
HStem: 0 21G<76 150> 719 20G<76 150>
VStem: 76 74<0 739 805 931>
Fore
76 0 m 1
 76 739 l 1
 150 739 l 1
 150 0 l 1
 76 0 l 1
76 931 m 1
 150 931 l 1
 150 805 l 1
 76 805 l 1
 76 931 l 1
EndSplineSet
Ligature: 0 0 'liga' I uni0307
EndChar
StartChar: Lacute
Encoding: 281 313 175
Width: 462
Flags: W
HStem: 0 67<149 456> 719 20G<76 150>
VStem: 76 74<0 739>
DStem: 311 964 345 906 118 848 152 792
Fore
76 0 m 1
 76 739 l 1
 150 739 l 1
 150 67 l 1
 456 67 l 1
 456 0 l 1
 76 0 l 1
118 848 m 1
 311 964 l 1
 345 906 l 1
 152 792 l 1
 118 848 l 1
EndSplineSet
Ligature: 0 0 'liga' L acutecomb
EndChar
StartChar: Lcaron
Encoding: 282 317 176
Width: 462
Flags: W
HStem: 0 67<149 456> 547 21G<273 347> 719 20G<76 150 321 395>
VStem: 76 74<0 739>
DStem: 321 739 395 739 273 547 347 547
Fore
76 0 m 1
 76 739 l 1
 150 739 l 1
 150 67 l 1
 456 67 l 1
 456 0 l 1
 76 0 l 1
273 547 m 1
 321 739 l 1
 395 739 l 1
 347 547 l 1
 273 547 l 1
EndSplineSet
Ligature: 0 0 'liga' L uni030C
EndChar
StartChar: Nacute
Encoding: 283 323 177
Width: 740
Flags: W
HStem: 0 21G<76 150 590 664> 719 20G<76 176 590 664>
VStem: 76 74<0 650> 590 74<126 739>
DStem: 150 650 176 739 590 0 590 126 450 964 484 906 257 848 291 792
Fore
76 0 m 1
 76 739 l 1
 176 739 l 1
 590 126 l 1
 590 739 l 1
 664 739 l 1
 664 0 l 1
 590 0 l 1
 150 650 l 1
 150 0 l 1
 76 0 l 1
257 848 m 1
 450 964 l 1
 484 906 l 1
 291 792 l 1
 257 848 l 1
EndSplineSet
Ligature: 0 0 'liga' N acutecomb
EndChar
StartChar: Ncaron
Encoding: 284 327 178
Width: 740
Flags: W
HStem: 0 21G<76 150 590 664> 719 20G<76 176 590 664>
VStem: 76 74<0 650> 590 74<126 739>
DStem: 150 650 176 739 590 0 590 126 193 931 282 931 336 805 368 857 456 931 547 931 368 857 402 805
Fore
76 0 m 1
 76 739 l 1
 176 739 l 1
 590 126 l 1
 590 739 l 1
 664 739 l 1
 664 0 l 1
 590 0 l 1
 150 650 l 1
 150 0 l 1
 76 0 l 1
547 931 m 1
 402 805 l 1
 336 805 l 1
 193 931 l 1
 282 931 l 1
 368 857 l 1
 456 931 l 1
 547 931 l 1
EndSplineSet
Ligature: 0 0 'liga' N uni030C
EndChar
StartChar: Ntilde
Encoding: 285 209 179
Width: 740
Flags: W
HStem: 0 21G<76 150 590 664> 719 20G<76 176 590 664> 815 64<427 434> 847 63<325 333>
VStem: 76 74<0 650> 590 74<126 739>
DStem: 150 650 176 739 590 0 590 126
Fore
76 0 m 1xcc
 76 739 l 1
 176 739 l 1
 590 126 l 1
 590 739 l 1
 664 739 l 1
 664 0 l 1
 590 0 l 1
 150 650 l 1
 150 0 l 1
 76 0 l 1xcc
489 910 m 1xdc
 522 864 l 1
 506 838 464 815 431 815 c 0xec
 417 815 398 821 365 837 c 0
 350 843 336 847 325 847 c 0xdc
 306 847 298 843 272 821 c 2
 265 815 l 1xec
 232 861 l 1
 255 891 290 910 325 910 c 0xdc
 343 910 354 907 384 893 c 0
 400 886 423 879 432 879 c 0xec
 451 879 469 889 489 910 c 1xdc
EndSplineSet
Ligature: 0 0 'liga' N tildecomb
EndChar
StartChar: Odieresis
Encoding: 286 214 180
Width: 869
Flags: W
HStem: -13 68<435 445> 684 68<435 445> 805 126<324 398 471 545>
VStem: 44 75<354 388> 324 74<805 931> 471 74<805 931> 750 75<354 388>
Fore
435 752 m 0
 649 752 825 580 825 369 c 0
 825 160 649 -13 435 -13 c 0
 218 -13 44 159 44 374 c 0
 44 579 223 752 435 752 c 0
435 684 m 0
 264 684 119 541 119 372 c 0
 119 197 261 55 435 55 c 0
 607 55 750 197 750 368 c 0
 750 541 607 684 435 684 c 0
324 931 m 1
 398 931 l 1
 398 805 l 1
 324 805 l 1
 324 931 l 1
471 931 m 1
 545 931 l 1
 545 805 l 1
 471 805 l 1
 471 931 l 1
EndSplineSet
KernsSLIF: 65 -39 0 0 84 -42 0 0 86 -38 0 0 87 -16 0 0 88 -31 0 0 89 -46 0 0
Ligature: 0 0 'liga' O uni0308
EndChar
StartChar: Oacute
Encoding: 287 211 181
Width: 869
Flags: W
HStem: -13 68<435 445> 684 68<435 445>
VStem: 44 75<354 388> 750 75<354 388>
DStem: 547 964 581 906 354 848 388 792
Fore
435 752 m 0
 649 752 825 580 825 369 c 0
 825 160 649 -13 435 -13 c 0
 218 -13 44 159 44 374 c 0
 44 579 223 752 435 752 c 0
435 684 m 0
 264 684 119 541 119 372 c 0
 119 197 261 55 435 55 c 0
 607 55 750 197 750 368 c 0
 750 541 607 684 435 684 c 0
354 848 m 1
 547 964 l 1
 581 906 l 1
 388 792 l 1
 354 848 l 1
EndSplineSet
KernsSLIF: 65 -39 0 0 84 -42 0 0 86 -38 0 0 87 -16 0 0 89 -46 0 0
Ligature: 0 0 'liga' O acutecomb
EndChar
StartChar: Ograve
Encoding: 288 210 182
Width: 869
Flags: W
HStem: -13 68<435 445> 684 68<435 445>
VStem: 44 75<354 388> 750 75<354 388>
DStem: 286 900 318 958 483 792 516 848
Fore
435 752 m 0
 649 752 825 580 825 369 c 0
 825 160 649 -13 435 -13 c 0
 218 -13 44 159 44 374 c 0
 44 579 223 752 435 752 c 0
435 684 m 0
 264 684 119 541 119 372 c 0
 119 197 261 55 435 55 c 0
 607 55 750 197 750 368 c 0
 750 541 607 684 435 684 c 0
318 958 m 1
 516 848 l 1
 483 792 l 1
 286 900 l 1
 318 958 l 1
EndSplineSet
KernsSLIF: 84 -42 0 0 86 -38 0 0 89 -46 0 0
Ligature: 0 0 'liga' O gravecomb
EndChar
StartChar: Ocircumflex
Encoding: 289 212 183
Width: 869
Flags: W
HStem: -13 68<435 445> 684 68<435 445>
VStem: 44 75<354 388> 750 75<354 388>
DStem: 402 931 436 879 257 805 348 805 436 879 468 931 522 805 611 805
Fore
435 752 m 0
 649 752 825 580 825 369 c 0
 825 160 649 -13 435 -13 c 0
 218 -13 44 159 44 374 c 0
 44 579 223 752 435 752 c 0
435 684 m 0
 264 684 119 541 119 372 c 0
 119 197 261 55 435 55 c 0
 607 55 750 197 750 368 c 0
 750 541 607 684 435 684 c 0
257 805 m 1
 402 931 l 1
 468 931 l 1
 611 805 l 1
 522 805 l 1
 436 879 l 1
 348 805 l 1
 257 805 l 1
EndSplineSet
KernsSLIF: 84 -42 0 0 86 -38 0 0 89 -46 0 0
Ligature: 0 0 'liga' O uni0302
EndChar
StartChar: Otilde
Encoding: 290 213 184
Width: 869
Flags: W
HStem: -13 68<435 454> 684 68<435 454> 815 64<491 509> 847 63<380.189 396>
VStem: 44 75<354 388> 750 75<354 388>
Fore
435 752 m 0xcc
 649 752 825 580 825 369 c 0
 825 160 649 -13 435 -13 c 0
 218 -13 44 159 44 374 c 0
 44 579 223 752 435 752 c 0xcc
435 684 m 0
 264 684 119 541 119 372 c 0
 119 197 261 55 435 55 c 0
 607 55 750 197 750 368 c 0
 750 541 607 684 435 684 c 0
557 910 m 1xdc
 590 864 l 1
 574 838 532 815 499 815 c 0xec
 485 815 466 821 433 837 c 0
 418 843 404 847 393 847 c 0xdc
 374 847 366 843 340 821 c 2
 333 815 l 1xec
 300 861 l 1
 323 891 358 910 393 910 c 0xdc
 411 910 422 907 452 893 c 0
 468 886 491 879 500 879 c 0xec
 519 879 537 889 557 910 c 1xdc
EndSplineSet
KernsSLIF: 84 -42 0 0 86 -38 0 0 89 -46 0 0
Ligature: 0 0 'liga' O tildecomb
EndChar
StartChar: Ohungarumlaut
Encoding: 291 336 185
Width: 869
Flags: W
HStem: -13 68<435 446> 684 68<435 446>
VStem: 44 75<354 388> 750 75<354 388>
DStem: 444 962 482 913 273 839 308 792 640 962 678 913 469 839 504 792
Fore
435 752 m 0
 649 752 825 580 825 369 c 0
 825 160 649 -13 435 -13 c 0
 218 -13 44 159 44 374 c 0
 44 579 223 752 435 752 c 0
435 684 m 0
 264 684 119 541 119 372 c 0
 119 197 261 55 435 55 c 0
 607 55 750 197 750 368 c 0
 750 541 607 684 435 684 c 0
273 839 m 1
 444 962 l 1
 482 913 l 1
 308 792 l 1
 273 839 l 1
469 839 m 1
 640 962 l 1
 678 913 l 1
 504 792 l 1
 469 839 l 1
EndSplineSet
Ligature: 0 0 'liga' O uni030B
EndChar
StartChar: Racute
Encoding: 292 340 186
Width: 607
Flags: W
HStem: 0 21G<76 150 474 566> 672 67<76 285>
VStem: 76 74<0 672> 502 75<495 513>
DStem: 225 335 359 276 474 0 566 0 383 964 417 906 190 848 224 792
Fore
359 276 m 1
 566 0 l 1
 474 0 l 1
 225 335 l 1
 307 335 355 339 390 348 c 0
 464 368 502 420 502 504 c 0
 502 571 474 621 424 645 c 0
 384 664 332 672 254 672 c 2
 150 672 l 1
 150 0 l 1
 76 0 l 1
 76 739 l 1
 259 739 l 2
 356 739 420 728 466 703 c 0
 538 664 577 594 577 501 c 0
 577 370 501 291 359 276 c 1
190 848 m 1
 383 964 l 1
 417 906 l 1
 224 792 l 1
 190 848 l 1
EndSplineSet
Ligature: 0 0 'liga' R acutecomb
EndChar
StartChar: Rcaron
Encoding: 293 344 187
Width: 607
Flags: W
HStem: 0 21G<76 150 474 566> 672 67<76 285>
VStem: 76 74<0 672> 502 75<495 513>
DStem: 127 931 216 931 270 805 302 857 225 335 359 276 474 0 566 0 390 931 481 931 302 857 336 805
Fore
359 276 m 1
 566 0 l 1
 474 0 l 1
 225 335 l 1
 307 335 355 339 390 348 c 0
 464 368 502 420 502 504 c 0
 502 571 474 621 424 645 c 0
 384 664 332 672 254 672 c 2
 150 672 l 1
 150 0 l 1
 76 0 l 1
 76 739 l 1
 259 739 l 2
 356 739 420 728 466 703 c 0
 538 664 577 594 577 501 c 0
 577 370 501 291 359 276 c 1
481 931 m 1
 336 805 l 1
 270 805 l 1
 127 931 l 1
 216 931 l 1
 302 857 l 1
 390 931 l 1
 481 931 l 1
EndSplineSet
Ligature: 0 0 'liga' R uni030C
EndChar
StartChar: Sacute
Encoding: 294 346 188
Width: 498
Flags: W
HStem: -13 68<237 267> 552 21G<381 458> 684 68<234 267>
VStem: 46 75<546 564> 401 75<194 212>
DStem: 369 964 403 906 176 848 210 792
Fore
22 207 m 1
 101 207 l 1
 106 161 115 136 136 110 c 0
 163 76 208 55 255 55 c 0
 339 55 401 117 401 202 c 0
 401 247 383 285 350 308 c 0
 326 325 294 339 236 357 c 0
 150 383 127 394 98 422 c 0
 65 453 46 502 46 553 c 0
 46 668 132 752 251 752 c 0
 372 752 455 672 458 552 c 1
 381 552 l 1
 376 632 324 684 249 684 c 0
 175 684 121 629 121 555 c 0
 121 521 135 488 156 469 c 0
 176 452 198 443 265 423 c 0
 341 400 372 386 402 364 c 0
 449 329 476 271 476 206 c 0
 476 80 381 -13 253 -13 c 0
 120 -13 29 74 22 207 c 1
176 848 m 1
 369 964 l 1
 403 906 l 1
 210 792 l 1
 176 848 l 1
EndSplineSet
Ligature: 0 0 'liga' S acutecomb
EndChar
StartChar: Scaron
Encoding: 295 352 189
Width: 498
Flags: W
HStem: -13 68<237 267> 552 21G<381 458> 684 68<234 267>
VStem: 46 75<546 564> 401 75<194 212>
DStem: 82 931 171 931 225 805 257 857 345 931 436 931 257 857 291 805
Fore
22 207 m 1
 101 207 l 1
 106 161 115 136 136 110 c 0
 163 76 208 55 255 55 c 0
 339 55 401 117 401 202 c 0
 401 247 383 285 350 308 c 0
 326 325 294 339 236 357 c 0
 150 383 127 394 98 422 c 0
 65 453 46 502 46 553 c 0
 46 668 132 752 251 752 c 0
 372 752 455 672 458 552 c 1
 381 552 l 1
 376 632 324 684 249 684 c 0
 175 684 121 629 121 555 c 0
 121 521 135 488 156 469 c 0
 176 452 198 443 265 423 c 0
 341 400 372 386 402 364 c 0
 449 329 476 271 476 206 c 0
 476 80 381 -13 253 -13 c 0
 120 -13 29 74 22 207 c 1
436 931 m 1
 291 805 l 1
 225 805 l 1
 82 931 l 1
 171 931 l 1
 257 857 l 1
 345 931 l 1
 436 931 l 1
EndSplineSet
Ligature: 0 0 'liga' S uni030C
EndChar
StartChar: Scedilla
Encoding: 296 350 190
Width: 498
Flags: W
HStem: -213 43<240 261> -72 33<248 261> -13 68<255 267> 552 21G<381 458> 684 68<234 267>
VStem: 46 75<550 572> 294 43<-135 -116> 401 75<186 220>
DStem: 207 -9 242 -13 176 -79 228 -47
Fore
242 -13 m 1
 228 -47 l 1
 243 -41 250 -39 261 -39 c 0
 306 -39 337 -72 337 -120 c 0
 337 -174 300 -213 249 -213 c 0
 203 -213 172 -187 161 -140 c 1
 205 -135 l 1
 211 -157 227 -170 250 -170 c 0
 276 -170 294 -151 294 -124 c 0
 294 -94 275 -72 248 -72 c 0
 231 -72 219 -79 205 -96 c 1
 176 -79 l 1
 207 -9 l 1
 97 11 24 96 22 207 c 1
 101 207 l 1
 106 161 115 136 136 110 c 0
 163 76 208 55 255 55 c 0
 339 55 401 117 401 202 c 0
 401 247 383 285 350 308 c 0
 326 325 294 339 236 357 c 0
 150 383 127 394 98 422 c 0
 65 453 46 502 46 553 c 0
 46 668 132 752 251 752 c 0
 372 752 455 672 458 552 c 1
 381 552 l 1
 376 632 324 684 249 684 c 0
 175 684 121 629 121 555 c 0
 121 521 135 488 156 469 c 0
 176 452 198 443 265 423 c 0
 341 400 372 386 402 364 c 0
 449 329 476 271 476 206 c 0
 476 81 381 -13 255 -13 c 2
 242 -13 l 1
EndSplineSet
Ligature: 0 0 'liga' S uni0327
EndChar
StartChar: Tcaron
Encoding: 297 356 191
Width: 426
Flags: W
HStem: 0 21G<176 250> 672 67<7 176 7 419>
VStem: 176 74<0 672>
DStem: 36 931 125 931 179 805 211 857 299 931 390 931 211 857 245 805
Fore
176 0 m 1
 176 672 l 1
 7 672 l 1
 7 739 l 1
 419 739 l 1
 419 672 l 1
 250 672 l 1
 250 0 l 1
 176 0 l 1
390 931 m 1
 245 805 l 1
 179 805 l 1
 36 931 l 1
 125 931 l 1
 211 857 l 1
 299 931 l 1
 390 931 l 1
EndSplineSet
Ligature: 0 0 'liga' T uni030C
EndChar
StartChar: Udieresis
Encoding: 298 220 192
Width: 655
Flags: W
HStem: -13 68<315 333> 719 20G<76 150 505 579> 805 126<217 291 364 438>
VStem: 76 74<278 739> 217 74<805 931> 364 74<805 931> 505 74<278 739>
Fore
76 739 m 1
 150 739 l 1
 150 278 l 2
 150 211 161 160 184 125 c 0
 212 82 267 55 328 55 c 0
 388 55 443 82 471 125 c 0
 494 160 505 211 505 278 c 2
 505 739 l 1
 579 739 l 1
 579 278 l 2
 579 183 564 127 527 78 c 0
 483 21 409 -13 327 -13 c 0
 246 -13 172 21 128 78 c 0
 91 127 76 183 76 278 c 2
 76 739 l 1
217 931 m 1
 291 931 l 1
 291 805 l 1
 217 805 l 1
 217 931 l 1
364 931 m 1
 438 931 l 1
 438 805 l 1
 364 805 l 1
 364 931 l 1
EndSplineSet
KernsSLIF: 65 -30 0 0 98 13 0 0 44 -36 0 0 109 13 0 0 110 13 0 0 112 13 0 0 46 -15 0 0 114 13 0 0
Ligature: 0 0 'liga' U uni0308
EndChar
StartChar: Uacute
Encoding: 299 218 193
Width: 655
Flags: W
HStem: -13 68<315 333> 719 20G<76 150 505 579>
VStem: 76 74<278 739> 505 74<278 739>
DStem: 440 964 474 906 247 848 281 792
Fore
76 739 m 1
 150 739 l 1
 150 278 l 2
 150 211 161 160 184 125 c 0
 212 82 267 55 328 55 c 0
 388 55 443 82 471 125 c 0
 494 160 505 211 505 278 c 2
 505 739 l 1
 579 739 l 1
 579 278 l 2
 579 183 564 127 527 78 c 0
 483 21 409 -13 327 -13 c 0
 246 -13 172 21 128 78 c 0
 91 127 76 183 76 278 c 2
 76 739 l 1
247 848 m 1
 440 964 l 1
 474 906 l 1
 281 792 l 1
 247 848 l 1
EndSplineSet
KernsSLIF: 65 -30 0 0 44 -36 0 0 109 13 0 0 110 13 0 0 112 13 0 0 46 -15 0 0 114 13 0 0
Ligature: 0 0 'liga' U acutecomb
EndChar
StartChar: Ugrave
Encoding: 300 217 194
Width: 655
Flags: W
HStem: -13 68<315 333> 719 20G<76 150 505 579>
VStem: 76 74<278 739> 505 74<278 739>
DStem: 179 900 211 958 376 792 409 848
Fore
76 739 m 1
 150 739 l 1
 150 278 l 2
 150 211 161 160 184 125 c 0
 212 82 267 55 328 55 c 0
 388 55 443 82 471 125 c 0
 494 160 505 211 505 278 c 2
 505 739 l 1
 579 739 l 1
 579 278 l 2
 579 183 564 127 527 78 c 0
 483 21 409 -13 327 -13 c 0
 246 -13 172 21 128 78 c 0
 91 127 76 183 76 278 c 2
 76 739 l 1
211 958 m 1
 409 848 l 1
 376 792 l 1
 179 900 l 1
 211 958 l 1
EndSplineSet
KernsSLIF: 65 -30 0 0
Ligature: 0 0 'liga' U gravecomb
EndChar
StartChar: Ucircumflex
Encoding: 301 219 195
Width: 655
Flags: W
HStem: -13 68<315 332> 719 20G<76 150 505 579>
VStem: 76 74<278 739> 505 74<278 739>
DStem: 295 931 329 879 150 805 241 805 329 879 361 931 415 805 504 805
Fore
76 739 m 1
 150 739 l 1
 150 278 l 2
 150 211 161 160 184 125 c 0
 212 82 267 55 328 55 c 0
 388 55 443 82 471 125 c 0
 494 160 505 211 505 278 c 2
 505 739 l 1
 579 739 l 1
 579 278 l 2
 579 183 564 127 527 78 c 0
 483 21 409 -13 327 -13 c 0
 246 -13 172 21 128 78 c 0
 91 127 76 183 76 278 c 2
 76 739 l 1
150 805 m 1
 295 931 l 1
 361 931 l 1
 504 805 l 1
 415 805 l 1
 329 879 l 1
 241 805 l 1
 150 805 l 1
EndSplineSet
KernsSLIF: 65 -30 0 0
Ligature: 0 0 'liga' U uni0302
EndChar
StartChar: Uring
Encoding: 302 366 196
Width: 655
Flags: W
HStem: -13 68<315 333> 719 20G<76 150 505 579> 792 41<316.937 333> 935 41<316.975 333>
VStem: 76 74<278 739> 235 41<873.27 886> 378 41<884 886> 505 74<278 739>
Fore
76 739 m 1
 150 739 l 1
 150 278 l 2
 150 211 161 160 184 125 c 0
 212 82 267 55 328 55 c 0
 388 55 443 82 471 125 c 0
 494 160 505 211 505 278 c 2
 505 739 l 1
 579 739 l 1
 579 278 l 2
 579 183 564 127 527 78 c 0
 483 21 409 -13 327 -13 c 0
 246 -13 172 21 128 78 c 0
 91 127 76 183 76 278 c 2
 76 739 l 1
328 976 m 0
 378 976 419 934 419 884 c 0
 419 833 378 792 327 792 c 0
 276 792 235 833 235 883 c 0
 235 935 276 976 328 976 c 0
327 935 m 0
 299 935 276 912 276 883 c 0
 276 856 299 833 327 833 c 0
 355 833 378 856 378 884 c 0
 378 911 355 935 327 935 c 0
EndSplineSet
Ligature: 0 0 'liga' U uni030A
EndChar
StartChar: Uhungarumlaut
Encoding: 303 368 197
Width: 655
Flags: W
HStem: -13 68<315 339> 719 20G<76 150 505 579>
VStem: 76 74<278 739> 505 74<278 739>
DStem: 337 962 375 913 166 839 201 792 533 962 571 913 362 839 397 792
Fore
76 739 m 1
 150 739 l 1
 150 278 l 2
 150 211 161 160 184 125 c 0
 212 82 267 55 328 55 c 0
 388 55 443 82 471 125 c 0
 494 160 505 211 505 278 c 2
 505 739 l 1
 579 739 l 1
 579 278 l 2
 579 183 564 127 527 78 c 0
 483 21 409 -13 327 -13 c 0
 246 -13 172 21 128 78 c 0
 91 127 76 183 76 278 c 2
 76 739 l 1
166 839 m 1
 337 962 l 1
 375 913 l 1
 201 792 l 1
 166 839 l 1
362 839 m 1
 533 962 l 1
 571 913 l 1
 397 792 l 1
 362 839 l 1
EndSplineSet
Ligature: 0 0 'liga' U uni030B
EndChar
StartChar: Yacute
Encoding: 304 221 198
Width: 592
Flags: W
HStem: 0 21G<258 332> 719 20G<2 84 509 590>
VStem: 258 74<0 247>
DStem: 2 739 84 739 258 247 294 325 409 964 443 906 216 848 250 792 509 739 590 739 294 325 332 247
Fore
258 0 m 1
 258 247 l 1
 2 739 l 1
 84 739 l 1
 294 325 l 1
 509 739 l 1
 590 739 l 1
 332 247 l 1
 332 0 l 1
 258 0 l 1
216 848 m 1
 409 964 l 1
 443 906 l 1
 250 792 l 1
 216 848 l 1
EndSplineSet
Ligature: 0 0 'liga' Y acutecomb
EndChar
StartChar: Zacute
Encoding: 305 377 199
Width: 480
Flags: W
HStem: 0 67<101 474> 672 67<28 380>
DStem: 360 964 394 906 167 848 201 792 380 672 463 672 17 67 101 67
Fore
17 0 m 1
 17 67 l 1
 380 672 l 1
 28 672 l 1
 28 739 l 1
 463 739 l 1
 463 672 l 1
 101 67 l 1
 474 67 l 1
 474 0 l 1
 17 0 l 1
167 848 m 1
 360 964 l 1
 394 906 l 1
 201 792 l 1
 167 848 l 1
EndSplineSet
Ligature: 0 0 'liga' Z acutecomb
EndChar
StartChar: Zcaron
Encoding: 306 381 200
Width: 480
Flags: W
HStem: 0 67<101 474> 672 67<28 380>
DStem: 72 931 161 931 215 805 247 857 335 931 426 931 247 857 281 805 380 672 463 672 17 67 101 67
Fore
17 0 m 1
 17 67 l 1
 380 672 l 1
 28 672 l 1
 28 739 l 1
 463 739 l 1
 463 672 l 1
 101 67 l 1
 474 67 l 1
 474 0 l 1
 17 0 l 1
426 931 m 1
 281 805 l 1
 215 805 l 1
 72 931 l 1
 161 931 l 1
 247 857 l 1
 335 931 l 1
 426 931 l 1
EndSplineSet
Ligature: 0 0 'liga' Z uni030C
EndChar
StartChar: Zdotaccent
Encoding: 307 379 201
Width: 480
Flags: W
HStem: 0 67<101 474> 672 67<28 380>
VStem: 203 74<805 931>
DStem: 380 672 463 672 17 67 101 67
Fore
17 0 m 1
 17 67 l 1
 380 672 l 1
 28 672 l 1
 28 739 l 1
 463 739 l 1
 463 672 l 1
 101 67 l 1
 474 67 l 1
 474 0 l 1
 17 0 l 1
203 931 m 1
 277 931 l 1
 277 805 l 1
 203 805 l 1
 203 931 l 1
EndSplineSet
Ligature: 0 0 'liga' Z uni0307
EndChar
StartChar: Amacron
Encoding: 308 256 202
Width: 740
Flags: W
HStem: 0 21G<11 89 648 729> 249 67<225 541> 719 20G<328 411> 825 64<202 539>
DStem: 328 739 370 655 11 0 225 316 328 739 197 249 11 0 89 0 370 655 411 739 512 316 729 0 541 249 411 739 648 0 729 0
Fore
11 0 m 1
 328 739 l 1
 411 739 l 1
 729 0 l 1
 648 0 l 1
 541 249 l 1
 197 249 l 1
 89 0 l 1
 11 0 l 1
225 316 m 1
 512 316 l 1
 370 655 l 1
 225 316 l 1
202 889 m 1
 539 889 l 1
 539 825 l 1
 202 825 l 1
 202 889 l 1
EndSplineSet
Ligature: 0 0 'liga' A uni0304
EndChar
StartChar: Tcommaaccent
Encoding: 309 354 203
Width: 426
Flags: W
HStem: 0 21G<176 250> 672 67<7 176 7 419>
VStem: 176 74<0 672>
DStem: 187 -53 261 -53 139 -225 213 -225
Fore
176 0 m 1
 176 672 l 1
 7 672 l 1
 7 739 l 1
 419 739 l 1
 419 672 l 1
 250 672 l 1
 250 0 l 1
 176 0 l 1
139 -225 m 1
 187 -53 l 1
 261 -53 l 1
 213 -225 l 1
 139 -225 l 1
EndSplineSet
Ligature: 0 0 'liga' T uni0327
EndChar
StartChar: Ydieresis
Encoding: 310 376 204
Width: 592
Flags: W
HStem: 0 21G<258 332> 719 20G<2 84 509 590> 805 126<186 260 333 407>
VStem: 186 74<805 931> 258 74<0 247> 333 74<805 931>
DStem: 2 739 84 739 258 247 294 325 509 739 590 739 294 325 332 247
Fore
258 0 m 1xec
 258 247 l 1
 2 739 l 1
 84 739 l 1
 294 325 l 1
 509 739 l 1
 590 739 l 1
 332 247 l 1
 332 0 l 1
 258 0 l 1xec
186 931 m 1xf4
 260 931 l 1
 260 805 l 1
 186 805 l 1
 186 931 l 1xf4
333 931 m 1
 407 931 l 1
 407 805 l 1
 333 805 l 1
 333 931 l 1
EndSplineSet
Ligature: 0 0 'liga' Y uni0308
EndChar
StartChar: Emacron
Encoding: 311 274 205
Width: 536
Flags: W
HStem: 0 67<150 480> 340 67<150 469> 672 67<76 480> 825 64<100 437>
VStem: 76 74<0 340 0 672>
Fore
76 0 m 1
 76 739 l 1
 480 739 l 1
 480 672 l 1
 150 672 l 1
 150 407 l 1
 469 407 l 1
 469 340 l 1
 150 340 l 1
 150 67 l 1
 480 67 l 1
 480 0 l 1
 76 0 l 1
100 889 m 1
 437 889 l 1
 437 825 l 1
 100 825 l 1
 100 889 l 1
EndSplineSet
Ligature: 0 0 'liga' E uni0304
EndChar
StartChar: Imacron
Encoding: 312 298 206
Width: 226
Flags: W
HStem: 0 21G<76 150> 719 20G<76 150> 825 64<-56 281>
VStem: 76 74<0 739>
Fore
76 0 m 1
 76 739 l 1
 150 739 l 1
 150 0 l 1
 76 0 l 1
-56 889 m 1
 281 889 l 1
 281 825 l 1
 -56 825 l 1
 -56 889 l 1
EndSplineSet
Ligature: 0 0 'liga' I uni0304
EndChar
StartChar: Iogonek
Encoding: 313 302 207
Width: 226
Flags: W
HStem: -191 45<128 140> -20 20G<76 98> 719 20G<76 150>
VStem: 27 50<-103 -95> 76 74<-1 739>
Fore
150 739 m 1xe8
 150 0 l 1xe8
 135 -11 124 -20 109 -37 c 0
 85 -63 77 -78 77 -97 c 0
 77 -126 102 -146 136 -146 c 0
 152 -146 166 -143 181 -136 c 1
 181 -182 l 1
 162 -188 146 -191 130 -191 c 0
 70 -191 27 -153 27 -101 c 0xf0
 27 -60 47 -31 98 0 c 1
 76 0 l 1
 76 739 l 1
 150 739 l 1xe8
EndSplineSet
Ligature: 0 0 'liga' I uni0328
EndChar
StartChar: Kcommaaccent
Encoding: 314 310 208
Width: 591
Flags: W
HStem: 0 21G<76 150 492 585> 719 20G<76 150 492 585>
VStem: 76 74<0 202 0 739>
DStem: 246 320 293 379 492 0 585 0 269 -53 343 -53 221 -225 295 -225 492 739 585 739 150 314 293 379 492 739 246 320 150 314 150 202
Fore
76 0 m 1
 76 739 l 1
 150 739 l 1
 150 314 l 1
 492 739 l 1
 585 739 l 1
 293 379 l 1
 585 0 l 1
 492 0 l 1
 246 320 l 1
 150 202 l 1
 150 0 l 1
 76 0 l 1
221 -225 m 1
 269 -53 l 1
 343 -53 l 1
 295 -225 l 1
 221 -225 l 1
EndSplineSet
Ligature: 0 0 'liga' K uni0327
EndChar
StartChar: Lcommaaccent
Encoding: 315 315 209
Width: 462
Flags: W
HStem: 0 67<149 456> 719 20G<76 150>
VStem: 76 74<0 739>
DStem: 205 -53 279 -53 157 -225 231 -225
Fore
76 0 m 1
 76 739 l 1
 150 739 l 1
 150 67 l 1
 456 67 l 1
 456 0 l 1
 76 0 l 1
157 -225 m 1
 205 -53 l 1
 279 -53 l 1
 231 -225 l 1
 157 -225 l 1
EndSplineSet
Ligature: 0 0 'liga' L uni0327
EndChar
StartChar: Ncommaaccent
Encoding: 316 325 210
Width: 740
Flags: W
HStem: 0 21G<76 150 590 664> 719 20G<76 176 590 664>
VStem: 76 74<0 650> 590 74<126 739>
DStem: 150 650 176 739 590 0 590 126 344 -53 418 -53 296 -225 370 -225
Fore
76 0 m 1
 76 739 l 1
 176 739 l 1
 590 126 l 1
 590 739 l 1
 664 739 l 1
 664 0 l 1
 590 0 l 1
 150 650 l 1
 150 0 l 1
 76 0 l 1
296 -225 m 1
 344 -53 l 1
 418 -53 l 1
 370 -225 l 1
 296 -225 l 1
EndSplineSet
Ligature: 0 0 'liga' N uni0327
EndChar
StartChar: Omacron
Encoding: 317 332 211
Width: 869
Flags: W
HStem: -13 68<435 445> 684 68<435 445> 825 64<266 603>
VStem: 44 75<354 388> 750 75<354 388>
Fore
435 752 m 0
 649 752 825 580 825 369 c 0
 825 160 649 -13 435 -13 c 0
 218 -13 44 159 44 374 c 0
 44 579 223 752 435 752 c 0
435 684 m 0
 264 684 119 541 119 372 c 0
 119 197 261 55 435 55 c 0
 607 55 750 197 750 368 c 0
 750 541 607 684 435 684 c 0
266 889 m 1
 603 889 l 1
 603 825 l 1
 266 825 l 1
 266 889 l 1
EndSplineSet
Ligature: 0 0 'liga' O uni0304
EndChar
StartChar: Rcommaaccent
Encoding: 318 342 212
Width: 607
Flags: W
HStem: 0 21G<76 150 474 566> 672 67<76 285>
VStem: 76 74<0 672> 502 75<494 512>
DStem: 225 335 359 276 474 0 566 0 277 -53 351 -53 229 -225 303 -225
Fore
359 276 m 1
 566 0 l 1
 474 0 l 1
 225 335 l 1
 307 335 355 339 390 348 c 0
 464 368 502 420 502 504 c 0
 502 571 474 621 424 645 c 0
 384 664 332 672 254 672 c 2
 150 672 l 1
 150 0 l 1
 76 0 l 1
 76 739 l 1
 259 739 l 2
 356 739 420 728 466 703 c 0
 538 664 577 594 577 501 c 0
 577 370 501 291 359 276 c 1
229 -225 m 1
 277 -53 l 1
 351 -53 l 1
 303 -225 l 1
 229 -225 l 1
EndSplineSet
Ligature: 0 0 'liga' R uni0327
EndChar
StartChar: Gcommaaccent
Encoding: 319 290 213
Width: 872
Flags: W
HStem: -13 68<427 461> 274 67<329 742> 684 68<427 461>
VStem: 44 75<350 384>
DStem: 410 -53 484 -53 362 -225 436 -225
Fore
329 341 m 1
 831 341 l 1
 826 258 794 181 734 112 c 0
 663 31 563 -13 446 -13 c 0
 220 -13 44 155 44 371 c 0
 44 585 216 752 436 752 c 0
 597 752 737 668 786 542 c 1
 703 542 l 1
 652 632 556 684 442 684 c 0
 260 684 119 547 119 369 c 0
 119 193 262 55 443 55 c 0
 529 55 607 86 664 143 c 0
 706 185 731 226 742 274 c 1
 329 274 l 1
 329 341 l 1
362 -225 m 1
 410 -53 l 1
 484 -53 l 1
 436 -225 l 1
 362 -225 l 1
EndSplineSet
Ligature: 0 0 'liga' G uni0327
EndChar
StartChar: Umacron
Encoding: 320 362 214
Width: 655
Flags: W
HStem: -13 68<315 333> 719 20G<76 150 505 579> 825 64<159 496>
VStem: 76 74<278 739> 505 74<278 739>
Fore
76 739 m 1
 150 739 l 1
 150 278 l 2
 150 211 161 160 184 125 c 0
 212 82 267 55 328 55 c 0
 388 55 443 82 471 125 c 0
 494 160 505 211 505 278 c 2
 505 739 l 1
 579 739 l 1
 579 278 l 2
 579 183 564 127 527 78 c 0
 483 21 409 -13 327 -13 c 0
 246 -13 172 21 128 78 c 0
 91 127 76 183 76 278 c 2
 76 739 l 1
159 889 m 1
 496 889 l 1
 496 825 l 1
 159 825 l 1
 159 889 l 1
EndSplineSet
Ligature: 0 0 'liga' U uni0304
EndChar
StartChar: Uogonek
Encoding: 321 370 215
Width: 655
Flags: W
HStem: -191 45<419 428> -13 68<327 333> 719 20G<76 150 505 579>
VStem: 76 74<278 738> 317 50<-103 -95> 505 74<278 738>
Fore
579 739 m 1
 579 278 l 2
 579 141 556 90 459 15 c 0
 394 -34 367 -67 367 -97 c 0
 367 -125 392 -146 426 -146 c 0
 442 -146 456 -143 471 -136 c 1
 471 -182 l 1
 452 -188 436 -191 421 -191 c 0
 361 -191 317 -153 317 -101 c 0
 317 -65 334 -38 374 -9 c 1
 355 -12 343 -13 327 -13 c 0
 245 -13 172 21 128 78 c 0
 91 127 76 183 76 278 c 2
 76 739 l 1
 150 739 l 1
 150 278 l 2
 150 211 161 161 184 125 c 0
 212 82 267 55 327 55 c 0
 388 55 443 82 471 125 c 0
 494 161 505 211 505 278 c 2
 505 739 l 1
 579 739 l 1
EndSplineSet
Ligature: 0 0 'liga' U uni0328
EndChar
StartChar: adieresis
Encoding: 322 228 216
Width: 683
Flags: W
HStem: -13 68<314 347> 492 68<313 347> 623 126<241 315 388 462>
VStem: 42 75<258 292> 241 74<623 749> 388 74<623 749> 546 74<0 547>
Fore
620 547 m 1
 620 0 l 1
 546 0 l 1
 546 96 l 1
 488 18 428 -13 335 -13 c 0
 167 -13 42 109 42 272 c 0
 42 436 166 560 330 560 c 0
 425 560 492 526 546 450 c 1
 546 547 l 1
 620 547 l 1
332 492 m 0
 213 492 117 396 117 277 c 0
 117 152 212 55 336 55 c 0
 454 55 546 152 546 276 c 0
 546 398 452 492 332 492 c 0
241 749 m 1
 315 749 l 1
 315 623 l 1
 241 623 l 1
 241 749 l 1
388 749 m 1
 462 749 l 1
 462 623 l 1
 388 623 l 1
 388 749 l 1
EndSplineSet
KernsSLIF: 118 5 0 0 119 6 0 0 121 5 0 0
Ligature: 0 0 'liga' a uni0308
EndChar
StartChar: aacute
Encoding: 323 225 217
Width: 683
Flags: W
HStem: -13 68<328 347> 492 68<313 347>
VStem: 42 75<258 292> 546 74<0 547>
DStem: 464 782 498 724 271 666 305 610
Fore
620 547 m 1
 620 0 l 1
 546 0 l 1
 546 96 l 1
 488 18 428 -13 335 -13 c 0
 167 -13 42 109 42 272 c 0
 42 436 166 560 330 560 c 0
 425 560 492 526 546 450 c 1
 546 547 l 1
 620 547 l 1
332 492 m 0
 213 492 117 396 117 277 c 0
 117 152 212 55 336 55 c 0
 454 55 546 152 546 276 c 0
 546 398 452 492 332 492 c 0
271 666 m 1
 464 782 l 1
 498 724 l 1
 305 610 l 1
 271 666 l 1
EndSplineSet
KernsSLIF: 118 5 0 0 119 6 0 0 121 5 0 0
Ligature: 0 0 'liga' a acutecomb
EndChar
StartChar: agrave
Encoding: 324 224 218
Width: 683
Flags: W
HStem: -13 68<328 347> 492 68<313 347>
VStem: 42 75<258 292> 546 74<0 547>
DStem: 203 718 235 776 400 610 433 666
Fore
620 547 m 1
 620 0 l 1
 546 0 l 1
 546 96 l 1
 488 18 428 -13 335 -13 c 0
 167 -13 42 109 42 272 c 0
 42 436 166 560 330 560 c 0
 425 560 492 526 546 450 c 1
 546 547 l 1
 620 547 l 1
332 492 m 0
 213 492 117 396 117 277 c 0
 117 152 212 55 336 55 c 0
 454 55 546 152 546 276 c 0
 546 398 452 492 332 492 c 0
235 776 m 1
 433 666 l 1
 400 610 l 1
 203 718 l 1
 235 776 l 1
EndSplineSet
KernsSLIF: 118 5 0 0 119 6 0 0 121 5 0 0
Ligature: 0 0 'liga' a gravecomb
EndChar
StartChar: acircumflex
Encoding: 325 226 219
Width: 683
Flags: W
HStem: -13 68<317 355> 492 68<313 353> 729 20G<319 385>
VStem: 42 75<258 292> 546 74<0 547>
DStem: 319 749 353 697 174 623 265 623 353 697 385 749 439 623 528 623
Fore
620 547 m 1
 620 0 l 1
 546 0 l 1
 546 96 l 1
 488 18 428 -13 335 -13 c 0
 167 -13 42 109 42 272 c 0
 42 436 166 560 330 560 c 0
 425 560 492 526 546 450 c 1
 546 547 l 1
 620 547 l 1
332 492 m 0
 213 492 117 396 117 277 c 0
 117 152 212 55 336 55 c 0
 454 55 546 152 546 276 c 0
 546 398 452 492 332 492 c 0
174 623 m 1
 319 749 l 1
 385 749 l 1
 528 623 l 1
 439 623 l 1
 353 697 l 1
 265 623 l 1
 174 623 l 1
EndSplineSet
Ligature: 0 0 'liga' a uni0302
EndChar
StartChar: abreve
Encoding: 326 259 220
Width: 683
Flags: W
HStem: -13 68<328 347> 492 68<313 347> 623 58<341 347> 723 20G<189 253 429 493>
VStem: 42 75<258 292> 546 74<0 547>
Fore
620 547 m 1
 620 0 l 1
 546 0 l 1
 546 96 l 1
 488 18 428 -13 335 -13 c 0
 167 -13 42 109 42 272 c 0
 42 436 166 560 330 560 c 0
 425 560 492 526 546 450 c 1
 546 547 l 1
 620 547 l 1
332 492 m 0
 213 492 117 396 117 277 c 0
 117 152 212 55 336 55 c 0
 454 55 546 152 546 276 c 0
 546 398 452 492 332 492 c 0
189 743 m 1
 253 743 l 1
 257 718 264 707 279 697 c 0
 297 687 319 681 341 681 c 0
 363 681 385 687 403 697 c 0
 418 707 425 718 429 743 c 1
 493 743 l 1
 484 694 472 672 444 652 c 0
 418 633 383 623 341 623 c 0
 252 623 204 661 189 743 c 1
EndSplineSet
Ligature: 0 0 'liga' a uni0306
EndChar
StartChar: atilde
Encoding: 327 227 221
Width: 683
Flags: W
HStem: -13 68<328 347> 492 68<313 347> 633 64<403 411> 665 63<286.189 302>
VStem: 42 75<258 292> 546 74<0 547>
Fore
620 547 m 1xcc
 620 0 l 1
 546 0 l 1
 546 96 l 1
 488 18 428 -13 335 -13 c 0
 167 -13 42 109 42 272 c 0
 42 436 166 560 330 560 c 0
 425 560 492 526 546 450 c 1
 546 547 l 1
 620 547 l 1xcc
332 492 m 0
 213 492 117 396 117 277 c 0
 117 152 212 55 336 55 c 0
 454 55 546 152 546 276 c 0
 546 398 452 492 332 492 c 0
463 728 m 1xdc
 496 682 l 1
 480 656 438 633 405 633 c 0xec
 391 633 372 639 339 655 c 0
 324 661 310 665 299 665 c 0xdc
 280 665 272 661 246 639 c 2
 239 633 l 1xec
 206 679 l 1
 229 709 264 728 299 728 c 0xdc
 317 728 328 725 358 711 c 0
 374 704 397 697 406 697 c 0xec
 425 697 443 707 463 728 c 1xdc
EndSplineSet
Ligature: 0 0 'liga' a tildecomb
EndChar
StartChar: aring
Encoding: 328 229 222
Width: 683
Flags: W
HStem: -13 68<328 355> 492 68<313 353> 610 41<351 355> 753 41<345 354>
VStem: 42 75<258 292> 259 41<691.27 708> 402 41<702 708> 546 74<0 547>
Fore
620 547 m 1
 620 0 l 1
 546 0 l 1
 546 96 l 1
 488 18 428 -13 335 -13 c 0
 167 -13 42 109 42 272 c 0
 42 436 166 560 330 560 c 0
 425 560 492 526 546 450 c 1
 546 547 l 1
 620 547 l 1
332 492 m 0
 213 492 117 396 117 277 c 0
 117 152 212 55 336 55 c 0
 454 55 546 152 546 276 c 0
 546 398 452 492 332 492 c 0
352 794 m 0
 402 794 443 752 443 702 c 0
 443 651 402 610 351 610 c 0
 300 610 259 651 259 701 c 0
 259 753 300 794 352 794 c 0
351 753 m 0
 323 753 300 730 300 701 c 0
 300 674 323 651 351 651 c 0
 379 651 402 674 402 702 c 0
 402 729 379 753 351 753 c 0
EndSplineSet
KernsSLIF: 118 5 0 0 119 6 0 0 121 5 0 0
Ligature: 0 0 'liga' a uni030A
EndChar
StartChar: aogonek
Encoding: 329 261 223
Width: 683
Flags: W
HStem: -191 45<598 608> -13 68<328 347> 492 68<313 347>
VStem: 42 75<256 290> 497 50<-103 -95> 546 74<-1 547>
Fore
620 547 m 1xf4
 620 0 l 1xf4
 605 -11 594 -20 579 -37 c 0
 555 -63 547 -78 547 -97 c 0
 547 -126 572 -146 606 -146 c 0
 622 -146 636 -143 651 -136 c 1
 651 -182 l 1
 632 -188 616 -191 600 -191 c 0
 540 -191 497 -153 497 -101 c 0xf8
 497 -60 517 -31 568 0 c 1
 546 0 l 1
 546 96 l 1
 488 18 428 -13 335 -13 c 0
 167 -13 42 109 42 272 c 0
 42 436 166 560 330 560 c 0
 425 560 492 526 546 450 c 1
 546 547 l 1
 620 547 l 1xf4
332 492 m 0
 213 492 117 396 117 277 c 0
 117 152 212 55 336 55 c 0
 454 55 546 152 546 276 c 0
 546 398 452 492 332 492 c 0
EndSplineSet
Ligature: 0 0 'liga' a uni0328
EndChar
StartChar: cacute
Encoding: 330 263 224
Width: 647
Flags: W
HStem: -13 68<329 347> 492 68<313 347>
VStem: 42 75<258 292>
DStem: 443 782 477 724 250 666 284 610
Fore
524 161 m 1
 608 161 l 1
 578 104 557 77 522 49 c 0
 471 9 408 -13 340 -13 c 0
 172 -13 42 112 42 275 c 0
 42 434 171 560 335 560 c 0
 458 560 563 491 607 381 c 1
 524 381 l 1
 482 453 415 492 334 492 c 0
 212 492 117 396 117 273 c 0
 117 152 214 55 337 55 c 0
 414 55 467 85 524 161 c 1
250 666 m 1
 443 782 l 1
 477 724 l 1
 284 610 l 1
 250 666 l 1
EndSplineSet
Ligature: 0 0 'liga' c acutecomb
EndChar
StartChar: ccaron
Encoding: 331 269 225
Width: 647
Flags: W
HStem: -13 68<329 347> 492 68<313 347> 729 20G<157 246 420 511>
VStem: 42 75<258 292>
DStem: 157 749 246 749 300 623 332 675 420 749 511 749 332 675 366 623
Fore
524 161 m 1
 608 161 l 1
 578 104 557 77 522 49 c 0
 471 9 408 -13 340 -13 c 0
 172 -13 42 112 42 275 c 0
 42 434 171 560 335 560 c 0
 458 560 563 491 607 381 c 1
 524 381 l 1
 482 453 415 492 334 492 c 0
 212 492 117 396 117 273 c 0
 117 152 214 55 337 55 c 0
 414 55 467 85 524 161 c 1
511 749 m 1
 366 623 l 1
 300 623 l 1
 157 749 l 1
 246 749 l 1
 332 675 l 1
 420 749 l 1
 511 749 l 1
EndSplineSet
Ligature: 0 0 'liga' c uni030C
EndChar
StartChar: ccedilla
Encoding: 332 231 226
Width: 647
Flags: W
HStem: -224 43<334 356> -84 33<343 356> -13 68<337 361.294> 492 68<313 356>
VStem: 42 75<255 289> 390 43<-146 -127>
DStem: 306 -11 343 -13 271 -90 324 -58
Fore
343 -13 m 1
 324 -58 l 1
 339 -53 345 -51 356 -51 c 0
 402 -51 433 -84 433 -131 c 0
 433 -185 396 -224 344 -224 c 0
 299 -224 267 -198 257 -151 c 1
 301 -146 l 1
 307 -168 323 -181 345 -181 c 0
 372 -181 390 -162 390 -135 c 0
 390 -105 370 -84 343 -84 c 0
 326 -84 315 -91 301 -108 c 1
 271 -90 l 1
 306 -11 l 1
 152 5 42 124 42 275 c 0
 42 434 171 560 335 560 c 0
 458 560 563 491 607 381 c 1
 524 381 l 1
 482 453 415 492 334 492 c 0
 212 492 117 396 117 273 c 0
 117 152 214 55 337 55 c 0
 414 55 467 85 524 161 c 1
 608 161 l 1
 554 49 463 -11 343 -13 c 1
EndSplineSet
Ligature: 0 0 'liga' c uni0327
EndChar
StartChar: dcaron
Encoding: 333 271 227
Width: 725
Flags: W
HStem: -13 68<329 347> 492 68<313 347> 719 20G<548 622 691 765>
VStem: 42 75<258 292> 548 74<0 739>
DStem: 691 739 765 739 643 547 717 547
Fore
622 739 m 1
 622 0 l 1
 548 0 l 1
 548 99 l 1
 493 20 431 -13 340 -13 c 0
 171 -13 42 111 42 273 c 0
 42 436 168 560 333 560 c 0
 419 560 494 525 548 460 c 1
 548 739 l 1
 622 739 l 1
331 492 m 0
 212 492 117 396 117 276 c 0
 117 151 213 55 338 55 c 0
 455 55 551 155 551 275 c 0
 551 395 452 492 331 492 c 0
643 547 m 1
 691 739 l 1
 765 739 l 1
 717 547 l 1
 643 547 l 1
EndSplineSet
Ligature: 0 0 'liga' d uni030C
EndChar
StartChar: edieresis
Encoding: 334 235 228
Width: 650
Flags: W
HStem: -13 68<313 347> 249 67<118 611> 492 68<313 347> 623 126<219 293 366 440>
VStem: 219 74<623 749> 366 74<623 749>
Fore
611 249 m 1
 116 249 l 1
 122 141 217 55 329 55 c 0
 412 55 489 105 520 180 c 1
 597 180 l 1
 582 135 556 97 517 60 c 0
 467 13 401 -13 331 -13 c 0
 169 -13 42 114 42 276 c 0
 42 435 167 560 326 560 c 0
 430 560 525 505 574 418 c 0
 601 370 611 324 611 249 c 1
118 316 m 1
 537 316 l 1
 512 425 431 492 325 492 c 0
 221 492 138 421 118 316 c 1
219 749 m 1
 293 749 l 1
 293 623 l 1
 219 623 l 1
 219 749 l 1
366 749 m 1
 440 749 l 1
 440 623 l 1
 366 623 l 1
 366 749 l 1
EndSplineSet
Ligature: 0 0 'liga' e uni0308
EndChar
StartChar: eacute
Encoding: 335 233 229
Width: 650
Flags: W
HStem: -13 68<313 347> 249 67<118 611> 492 68<313 347>
DStem: 439 782 473 724 246 666 280 610
Fore
611 249 m 1
 116 249 l 1
 122 141 217 55 329 55 c 0
 412 55 489 105 520 180 c 1
 597 180 l 1
 582 135 556 97 517 60 c 0
 467 13 401 -13 331 -13 c 0
 169 -13 42 114 42 276 c 0
 42 435 167 560 326 560 c 0
 430 560 525 505 574 418 c 0
 601 370 611 324 611 249 c 1
118 316 m 1
 537 316 l 1
 512 425 431 492 325 492 c 0
 221 492 138 421 118 316 c 1
246 666 m 1
 439 782 l 1
 473 724 l 1
 280 610 l 1
 246 666 l 1
EndSplineSet
KernsSLIF: 118 -24 0 0 119 -20 0 0 121 -23 0 0
Ligature: 0 0 'liga' e acutecomb
EndChar
StartChar: egrave
Encoding: 336 232 230
Width: 650
Flags: W
HStem: -13 68<313 347> 249 67<118 611> 492 68<313 347>
DStem: 182 718 214 776 379 610 412 666
Fore
611 249 m 1
 116 249 l 1
 122 141 217 55 329 55 c 0
 412 55 489 105 520 180 c 1
 597 180 l 1
 582 135 556 97 517 60 c 0
 467 13 401 -13 331 -13 c 0
 169 -13 42 114 42 276 c 0
 42 435 167 560 326 560 c 0
 430 560 525 505 574 418 c 0
 601 370 611 324 611 249 c 1
118 316 m 1
 537 316 l 1
 512 425 431 492 325 492 c 0
 221 492 138 421 118 316 c 1
214 776 m 1
 412 666 l 1
 379 610 l 1
 182 718 l 1
 214 776 l 1
EndSplineSet
Ligature: 0 0 'liga' e gravecomb
EndChar
StartChar: ecircumflex
Encoding: 337 234 231
Width: 650
Flags: W
HStem: -13 68<313 347> 249 67<118 611> 492 68<313 347> 729 20G<298 364>
DStem: 298 749 332 697 153 623 244 623 332 697 364 749 418 623 507 623
Fore
611 249 m 1
 116 249 l 1
 122 141 217 55 329 55 c 0
 412 55 489 105 520 180 c 1
 597 180 l 1
 582 135 556 97 517 60 c 0
 467 13 401 -13 331 -13 c 0
 169 -13 42 114 42 276 c 0
 42 435 167 560 326 560 c 0
 430 560 525 505 574 418 c 0
 601 370 611 324 611 249 c 1
118 316 m 1
 537 316 l 1
 512 425 431 492 325 492 c 0
 221 492 138 421 118 316 c 1
153 623 m 1
 298 749 l 1
 364 749 l 1
 507 623 l 1
 418 623 l 1
 332 697 l 1
 244 623 l 1
 153 623 l 1
EndSplineSet
KernsSLIF: 118 -24 0 0 119 -20 0 0 121 -23 0 0
Ligature: 0 0 'liga' e uni0302
EndChar
StartChar: ecaron
Encoding: 338 283 232
Width: 650
Flags: W
HStem: -13 68<313 347> 249 67<118 611> 492 68<313 347> 729 20G<148 237 411 502>
DStem: 148 749 237 749 291 623 323 675 411 749 502 749 323 675 357 623
Fore
611 249 m 1
 116 249 l 1
 122 141 217 55 329 55 c 0
 412 55 489 105 520 180 c 1
 597 180 l 1
 582 135 556 97 517 60 c 0
 467 13 401 -13 331 -13 c 0
 169 -13 42 114 42 276 c 0
 42 435 167 560 326 560 c 0
 430 560 525 505 574 418 c 0
 601 370 611 324 611 249 c 1
118 316 m 1
 537 316 l 1
 512 425 431 492 325 492 c 0
 221 492 138 421 118 316 c 1
502 749 m 1
 357 623 l 1
 291 623 l 1
 148 749 l 1
 237 749 l 1
 323 675 l 1
 411 749 l 1
 502 749 l 1
EndSplineSet
Ligature: 0 0 'liga' e uni030C
EndChar
StartChar: edotaccent
Encoding: 339 279 233
Width: 650
Flags: W
HStem: -13 68<313 347> 249 67<118 611> 492 68<313 347> 729 20G<288 362>
VStem: 288 74<623 749>
Fore
611 249 m 1
 116 249 l 1
 122 141 217 55 329 55 c 0
 412 55 489 105 520 180 c 1
 597 180 l 1
 582 135 556 97 517 60 c 0
 467 13 401 -13 331 -13 c 0
 169 -13 42 114 42 276 c 0
 42 435 167 560 326 560 c 0
 430 560 525 505 574 418 c 0
 601 370 611 324 611 249 c 1
118 316 m 1
 537 316 l 1
 512 425 431 492 325 492 c 0
 221 492 138 421 118 316 c 1
288 749 m 1
 362 749 l 1
 362 623 l 1
 288 623 l 1
 288 749 l 1
EndSplineSet
Ligature: 0 0 'liga' e uni0307
EndChar
StartChar: eogonek
Encoding: 340 281 234
Width: 650
Flags: W
HStem: -191 45<436 446> -13 68<313 347> 249 67<118 611> 492 68<313 347>
VStem: 335 50<-103 -94>
Fore
611 249 m 1
 116 249 l 1
 123 141 217 55 329 55 c 0
 413 55 489 105 521 180 c 1
 598 180 l 1
 574 115 570 110 417 -37 c 0
 395 -59 385 -78 385 -98 c 0
 385 -125 410 -146 444 -146 c 0
 460 -146 474 -143 489 -136 c 1
 489 -182 l 1
 470 -188 454 -191 438 -191 c 0
 378 -191 335 -153 335 -101 c 0
 335 -64 356 -32 398 -5 c 1
 373 -11 354 -13 331 -13 c 0
 169 -13 42 114 42 276 c 0
 42 435 167 560 326 560 c 0
 430 560 525 506 574 418 c 0
 601 370 611 324 611 249 c 1
118 316 m 1
 537 316 l 1
 512 425 431 492 325 492 c 0
 221 492 138 421 118 316 c 1
EndSplineSet
Ligature: 0 0 'liga' e uni0328
EndChar
StartChar: gbreve
Encoding: 341 287 235
Width: 673
Flags: W
HStem: -215 68<313 347> -37 20G<62 134> -13 68<327 347> 492 68<313 347> 623 58<336 347> 723 20G<184 248 424 488>
VStem: 42 75<264 283> 536 74<53 111 264 547>
Fore
610 547 m 1
 610 98 l 2
 610 -9 596 -67 559 -117 c 0
 512 -179 432 -215 337 -215 c 0
 199 -215 102 -145 62 -17 c 1
 134 -17 l 1
 158 -59 169 -75 188 -92 c 0
 227 -129 274 -147 335 -147 c 0
 419 -147 485 -111 514 -48 c 0
 530 -14 536 20 536 74 c 2
 536 111 l 1
 493 27 425 -13 327 -13 c 0
 167 -13 42 111 42 271 c 0
 42 436 162 560 322 560 c 0
 414 560 481 525 536 450 c 1
 536 547 l 1
 610 547 l 1
326 492 m 0
 205 492 117 402 117 277 c 0
 117 150 207 55 327 55 c 0
 446 55 536 152 536 280 c 0
 536 399 444 492 326 492 c 0
184 743 m 1
 248 743 l 1
 252 718 259 707 274 697 c 0
 292 687 314 681 336 681 c 0
 358 681 380 687 398 697 c 0
 413 707 420 718 424 743 c 1
 488 743 l 1
 479 694 467 672 439 652 c 0
 413 633 378 623 336 623 c 0
 247 623 199 661 184 743 c 1
EndSplineSet
Ligature: 0 0 'liga' g uni0306
EndChar
StartChar: idieresis
Encoding: 342 239 236
Width: 200
Flags: W
HStem: 0 21G<64 138> 527 20G<64 138> 623 126<-10 64 137 211>
VStem: -10 74<623 749> 64 74<0 547> 137 74<623 749>
Fore
-10 749 m 1xf0
 64 749 l 1
 64 623 l 1
 -10 623 l 1
 -10 749 l 1xf0
137 749 m 1xf4
 211 749 l 1
 211 623 l 1
 137 623 l 1
 137 749 l 1xf4
64 0 m 1
 64 547 l 1
 138 547 l 1xf0
 138 0 l 1xf0
 64 0 l 1
EndSplineSet
Ligature: 0 0 'liga' i uni0308
EndChar
StartChar: iacute
Encoding: 343 237 237
Width: 200
Flags: W
HStem: 0 21G<63 137> 527 20G<63 137>
VStem: 63 74<0 547>
DStem: 180 782 214 724 -13 666 21 610
Fore
63 0 m 1
 63 547 l 1
 137 547 l 1
 137 0 l 1
 63 0 l 1
-13 666 m 1
 180 782 l 1
 214 724 l 1
 21 610 l 1
 -13 666 l 1
EndSplineSet
Ligature: 0 0 'liga' i acutecomb
EndChar
StartChar: igrave
Encoding: 344 236 238
Width: 200
Flags: W
HStem: 0 21G<63 137> 527 20G<63 137>
VStem: 63 74<0 547>
DStem: -15 718 17 776 182 610 215 666
Fore
63 0 m 1
 63 547 l 1
 137 547 l 1
 137 0 l 1
 63 0 l 1
17 776 m 1
 215 666 l 1
 182 610 l 1
 -15 718 l 1
 17 776 l 1
EndSplineSet
Ligature: 0 0 'liga' i gravecomb
EndChar
StartChar: icircumflex
Encoding: 345 238 239
Width: 200
Flags: W
HStem: 0 21G<63 137> 527 20G<63 137> 729 20G<68 134>
VStem: 63 74<0 547>
DStem: 68 749 102 697 -77 623 14 623 102 697 134 749 188 623 277 623
Fore
63 0 m 1
 63 547 l 1
 137 547 l 1
 137 0 l 1
 63 0 l 1
-77 623 m 1
 68 749 l 1
 134 749 l 1
 277 623 l 1
 188 623 l 1
 102 697 l 1
 14 623 l 1
 -77 623 l 1
EndSplineSet
Ligature: 0 0 'liga' i uni0302
EndChar
StartChar: lacute
Encoding: 346 314 240
Width: 200
Flags: W
HStem: 0 21G<63 137> 719 20G<63 137>
VStem: 63 74<0 739>
DStem: 179 964 213 906 -14 848 20 792
Fore
63 0 m 1
 63 739 l 1
 137 739 l 1
 137 0 l 1
 63 0 l 1
-14 848 m 1
 179 964 l 1
 213 906 l 1
 20 792 l 1
 -14 848 l 1
EndSplineSet
Ligature: 0 0 'liga' l acutecomb
EndChar
StartChar: lcaron
Encoding: 347 318 241
Width: 245
Flags: W
HStem: 0 21G<63 137> 547 21G<163 237> 719 20G<63 137 211 285>
VStem: 63 74<0 739>
DStem: 211 739 285 739 163 547 237 547
Fore
63 0 m 1
 63 739 l 1
 137 739 l 1
 137 0 l 1
 63 0 l 1
163 547 m 1
 211 739 l 1
 285 739 l 1
 237 547 l 1
 163 547 l 1
EndSplineSet
Ligature: 0 0 'liga' l uni030C
EndChar
StartChar: nacute
Encoding: 348 324 242
Width: 610
Flags: W
HStem: 0 21G<63 137 473 547> 492 68<302 320>
VStem: 63 74<0 321 0 547> 473 74<0 321>
DStem: 385 782 419 724 192 666 226 610
Fore
63 0 m 1
 63 547 l 1
 137 547 l 1
 137 476 l 1
 183 532 241 560 313 560 c 0
 390 560 456 529 499 475 c 1
 534 428 547 379 547 287 c 2
 547 0 l 1
 473 0 l 1
 473 287 l 2
 473 359 463 399 437 433 c 0
 407 470 358 492 304 492 c 0
 246 492 195 467 166 425 c 0
 145 394 137 362 137 301 c 2
 137 0 l 1
 63 0 l 1
192 666 m 1
 385 782 l 1
 419 724 l 1
 226 610 l 1
 192 666 l 1
EndSplineSet
Ligature: 0 0 'liga' n acutecomb
EndChar
StartChar: ncaron
Encoding: 349 328 243
Width: 610
Flags: W
HStem: 0 21G<63 137 473 547> 492 68<301 320> 729 20G<128 217 391 482>
VStem: 63 74<0 321 0 547> 473 74<0 321>
DStem: 128 749 217 749 271 623 303 675 391 749 482 749 303 675 337 623
Fore
63 0 m 1
 63 547 l 1
 137 547 l 1
 137 476 l 1
 183 532 241 560 313 560 c 0
 390 560 456 529 499 475 c 1
 534 428 547 379 547 287 c 2
 547 0 l 1
 473 0 l 1
 473 287 l 2
 473 359 463 399 437 433 c 0
 407 470 358 492 304 492 c 0
 246 492 195 467 166 425 c 0
 145 394 137 362 137 301 c 2
 137 0 l 1
 63 0 l 1
482 749 m 1
 337 623 l 1
 271 623 l 1
 128 749 l 1
 217 749 l 1
 303 675 l 1
 391 749 l 1
 482 749 l 1
EndSplineSet
Ligature: 0 0 'liga' n uni030C
EndChar
StartChar: ntilde
Encoding: 350 241 244
Width: 610
Flags: W
HStem: 0 21G<63 137 473 547> 492 68<302 320> 633 64<350 355> 665 63<246 256>
VStem: 63 74<0 321 0 547> 473 74<0 321>
Fore
63 0 m 1xcc
 63 547 l 1
 137 547 l 1
 137 476 l 1
 183 532 241 560 313 560 c 0
 390 560 456 529 499 475 c 1
 534 428 547 379 547 287 c 2
 547 0 l 1
 473 0 l 1
 473 287 l 2
 473 359 463 399 437 433 c 0
 407 470 358 492 304 492 c 0
 246 492 195 467 166 425 c 0
 145 394 137 362 137 301 c 2
 137 0 l 1
 63 0 l 1xcc
410 728 m 1xdc
 443 682 l 1
 427 656 385 633 352 633 c 0xec
 338 633 319 639 286 655 c 0
 271 661 257 665 246 665 c 0xdc
 227 665 219 661 193 639 c 2
 186 633 l 1xec
 153 679 l 1
 176 709 211 728 246 728 c 0xdc
 264 728 275 725 305 711 c 0
 321 704 344 697 353 697 c 0xec
 372 697 390 707 410 728 c 1xdc
EndSplineSet
Ligature: 0 0 'liga' n tildecomb
EndChar
StartChar: odieresis
Encoding: 351 246 245
Width: 655
Flags: W
HStem: -13 68<313 347> 492 68<329 347> 623 126<217 291 364 438>
VStem: 42 75<258 292> 217 74<623 749> 364 74<623 749> 538 75<258 292>
Fore
329 560 m 0
 493 560 613 439 613 272 c 0
 613 108 495 -13 335 -13 c 0
 165 -13 42 109 42 277 c 0
 42 437 167 560 329 560 c 0
329 492 m 0
 208 492 117 399 117 275 c 0
 117 147 207 55 333 55 c 0
 452 55 538 146 538 271 c 0
 538 398 449 492 329 492 c 0
217 749 m 1
 291 749 l 1
 291 623 l 1
 217 623 l 1
 217 749 l 1
364 749 m 1
 438 749 l 1
 438 623 l 1
 364 623 l 1
 364 749 l 1
EndSplineSet
KernsSLIF: 116 -22 0 0 118 -24 0 0 119 -18 0 0 120 -18 0 0 121 -21 0 0
Ligature: 0 0 'liga' o uni0308
EndChar
StartChar: oacute
Encoding: 352 243 246
Width: 655
Flags: W
HStem: -13 68<313 347> 492 68<329 347>
VStem: 42 75<258 292> 538 75<258 292>
DStem: 440 782 474 724 247 666 281 610
Fore
329 560 m 0
 493 560 613 439 613 272 c 0
 613 108 495 -13 335 -13 c 0
 165 -13 42 109 42 277 c 0
 42 437 167 560 329 560 c 0
329 492 m 0
 208 492 117 399 117 275 c 0
 117 147 207 55 333 55 c 0
 452 55 538 146 538 271 c 0
 538 398 449 492 329 492 c 0
247 666 m 1
 440 782 l 1
 474 724 l 1
 281 610 l 1
 247 666 l 1
EndSplineSet
KernsSLIF: 118 -24 0 0 119 -18 0 0 121 -21 0 0
Ligature: 0 0 'liga' o acutecomb
EndChar
StartChar: ograve
Encoding: 353 242 247
Width: 655
Flags: W
HStem: -13 68<313 347> 492 68<329 347>
VStem: 42 75<258 292> 538 75<258 292>
DStem: 179 718 211 776 376 610 409 666
Fore
329 560 m 0
 493 560 613 439 613 272 c 0
 613 108 495 -13 335 -13 c 0
 165 -13 42 109 42 277 c 0
 42 437 167 560 329 560 c 0
329 492 m 0
 208 492 117 399 117 275 c 0
 117 147 207 55 333 55 c 0
 452 55 538 146 538 271 c 0
 538 398 449 492 329 492 c 0
211 776 m 1
 409 666 l 1
 376 610 l 1
 179 718 l 1
 211 776 l 1
EndSplineSet
KernsSLIF: 118 -24 0 0 119 -18 0 0 121 -21 0 0
Ligature: 0 0 'liga' o gravecomb
EndChar
StartChar: ocircumflex
Encoding: 354 244 248
Width: 655
Flags: W
HStem: -13 68<313 347> 492 68<329 347> 729 20G<295 361>
VStem: 42 75<258 292> 538 75<258 292>
DStem: 295 749 329 697 150 623 241 623 329 697 361 749 415 623 504 623
Fore
329 560 m 0
 493 560 613 439 613 272 c 0
 613 108 495 -13 335 -13 c 0
 165 -13 42 109 42 277 c 0
 42 437 167 560 329 560 c 0
329 492 m 0
 208 492 117 399 117 275 c 0
 117 147 207 55 333 55 c 0
 452 55 538 146 538 271 c 0
 538 398 449 492 329 492 c 0
150 623 m 1
 295 749 l 1
 361 749 l 1
 504 623 l 1
 415 623 l 1
 329 697 l 1
 241 623 l 1
 150 623 l 1
EndSplineSet
KernsSLIF: 116 -22 0 0
Ligature: 0 0 'liga' o uni0302
EndChar
StartChar: otilde
Encoding: 355 245 249
Width: 655
Flags: W
HStem: -13 68<313 347> 492 68<329 347> 633 64<386 395> 665 63<269.189 285>
VStem: 42 75<258 292> 538 75<258 292>
Fore
329 560 m 0xcc
 493 560 613 439 613 272 c 0
 613 108 495 -13 335 -13 c 0
 165 -13 42 109 42 277 c 0
 42 437 167 560 329 560 c 0xcc
329 492 m 0
 208 492 117 399 117 275 c 0
 117 147 207 55 333 55 c 0
 452 55 538 146 538 271 c 0
 538 398 449 492 329 492 c 0
446 728 m 1xdc
 479 682 l 1
 463 656 421 633 388 633 c 0xec
 374 633 355 639 322 655 c 0
 307 661 293 665 282 665 c 0xdc
 263 665 255 661 229 639 c 2
 222 633 l 1xec
 189 679 l 1
 212 709 247 728 282 728 c 0xdc
 300 728 311 725 341 711 c 0
 357 704 380 697 389 697 c 0xec
 408 697 426 707 446 728 c 1xdc
EndSplineSet
Ligature: 0 0 'liga' o tildecomb
EndChar
StartChar: ohungarumlaut
Encoding: 356 337 250
Width: 655
Flags: W
HStem: -13 68<313 347> 492 68<329 347>
VStem: 42 75<258 292> 538 75<258 292>
DStem: 337 780 375 731 166 657 201 610 533 780 571 731 362 657 397 610
Fore
329 560 m 0
 493 560 613 439 613 272 c 0
 613 108 495 -13 335 -13 c 0
 165 -13 42 109 42 277 c 0
 42 437 167 560 329 560 c 0
329 492 m 0
 208 492 117 399 117 275 c 0
 117 147 207 55 333 55 c 0
 452 55 538 146 538 271 c 0
 538 398 449 492 329 492 c 0
166 657 m 1
 337 780 l 1
 375 731 l 1
 201 610 l 1
 166 657 l 1
362 657 m 1
 533 780 l 1
 571 731 l 1
 397 610 l 1
 362 657 l 1
EndSplineSet
Ligature: 0 0 'liga' o uni030B
EndChar
StartChar: racute
Encoding: 357 341 251
Width: 301
Flags: W
HStem: 0 21G<63 137> 527 20G<63 137>
VStem: 63 74<0 337 0 547>
DStem: 290 782 324 724 97 666 131 610
Fore
63 0 m 1
 63 547 l 1
 137 547 l 1
 137 469 l 1
 166 529 213 556 292 560 c 1
 292 487 l 1
 189 477 137 421 137 319 c 2
 137 0 l 1
 63 0 l 1
97 666 m 1
 290 782 l 1
 324 724 l 1
 131 610 l 1
 97 666 l 1
EndSplineSet
Ligature: 0 0 'liga' r acutecomb
EndChar
StartChar: sacute
Encoding: 358 347 252
Width: 388
Flags: W
HStem: -13 68<194 196> 492 68<179 197>
VStem: 38 75<402 420> 286 75<146 163>
DStem: 314 782 348 724 121 666 155 610
Fore
18 161 m 1
 91 161 l 1
 95 94 133 55 194 55 c 0
 247 55 286 95 286 150 c 0
 286 180 273 206 251 221 c 0
 237 230 213 242 180 255 c 0
 103 287 102 287 79 308 c 0
 52 333 38 367 38 406 c 0
 38 495 104 560 193 560 c 0
 281 560 344 500 347 412 c 1
 272 412 l 1
 268 464 240 492 192 492 c 0
 148 492 113 457 113 413 c 0
 113 381 129 358 163 341 c 0
 179 333 183 331 266 297 c 0
 330 270 361 224 361 157 c 0
 361 57 292 -13 194 -13 c 0
 89 -13 19 55 18 161 c 1
121 666 m 1
 314 782 l 1
 348 724 l 1
 155 610 l 1
 121 666 l 1
EndSplineSet
Ligature: 0 0 'liga' s acutecomb
EndChar
StartChar: scaron
Encoding: 359 353 253
Width: 388
Flags: W
HStem: -13 68<195 210> 492 68<180 198> 729 20G<17 106 280 371>
VStem: 39 75<402 420> 287 75<146 163>
DStem: 17 749 106 749 160 623 192 675 280 749 371 749 192 675 226 623
Fore
19 161 m 1
 92 161 l 1
 96 94 133 55 195 55 c 0
 248 55 287 95 287 150 c 0
 287 180 274 206 252 221 c 0
 238 230 215 241 181 255 c 0
 106 286 103 287 80 308 c 0
 53 333 39 367 39 406 c 0
 39 495 105 560 194 560 c 0
 282 560 345 500 348 412 c 1
 273 412 l 1
 269 464 241 492 193 492 c 0
 149 492 114 457 114 413 c 0
 114 381 130 358 164 341 c 0
 180 333 184 331 267 297 c 0
 331 270 362 224 362 157 c 0
 362 57 293 -13 195 -13 c 0
 89 -13 20 55 19 161 c 1
371 749 m 1
 226 623 l 1
 160 623 l 1
 17 749 l 1
 106 749 l 1
 192 675 l 1
 280 749 l 1
 371 749 l 1
EndSplineSet
Ligature: 0 0 'liga' s uni030C
EndChar
StartChar: scommaaccent
Encoding: 360 537 254
Width: 388
Flags: W
HStem: -13 68<194 196> 492 68<179 197>
VStem: 38 75<404 415> 286 75<142 163>
DStem: 168 -53 242 -53 120 -225 194 -225
Fore
18 161 m 1
 91 161 l 1
 95 94 133 55 194 55 c 0
 247 55 286 95 286 150 c 0
 286 180 273 206 251 221 c 0
 237 230 213 242 180 255 c 0
 103 287 102 287 79 308 c 0
 52 333 38 367 38 406 c 0
 38 495 104 560 193 560 c 0
 281 560 344 500 347 412 c 1
 272 412 l 1
 268 464 240 492 192 492 c 0
 148 492 113 457 113 413 c 0
 113 381 129 358 163 341 c 0
 179 333 183 331 266 297 c 0
 330 270 361 224 361 157 c 0
 361 57 292 -13 194 -13 c 0
 89 -13 19 55 18 161 c 1
120 -225 m 1
 168 -53 l 1
 242 -53 l 1
 194 -225 l 1
 120 -225 l 1
EndSplineSet
Ligature: 0 0 'liga' s uni0326
EndChar
StartChar: tcaron
Encoding: 361 357 255
Width: 339
Flags: W
HStem: 0 21G<130 204> 480 67<12 130 204 327> 567 21G<260 334> 719 20G<130 204 305 379>
VStem: 130 74<0 480 547 739>
DStem: 305 739 379 739 260 567 334 567
Fore
130 0 m 1
 130 480 l 1
 12 480 l 1
 12 547 l 1
 130 547 l 1
 130 739 l 1
 204 739 l 1
 204 547 l 1
 327 547 l 1
 327 480 l 1
 204 480 l 1
 204 0 l 1
 130 0 l 1
260 567 m 1
 305 739 l 1
 379 739 l 1
 334 567 l 1
 260 567 l 1
EndSplineSet
Ligature: 0 0 'liga' t uni030C
EndChar
StartChar: udieresis
Encoding: 362 252 256
Width: 608
Flags: W
HStem: -13 68<286 320> 527 20G<63 137 471 545> 623 126<194 268 341 415>
VStem: 63 74<252 547> 194 74<623 749> 341 74<623 749> 471 74<0 547>
Fore
545 547 m 1
 545 0 l 1
 471 0 l 1
 471 85 l 1
 434 17 380 -13 295 -13 c 0
 213 -13 147 17 106 74 c 0
 77 114 63 171 63 252 c 2
 63 547 l 1
 137 547 l 1
 137 252 l 2
 137 196 146 152 163 124 c 0
 188 80 240 55 301 55 c 0
 358 55 407 80 438 123 c 0
 461 157 471 199 471 266 c 2
 471 547 l 1
 545 547 l 1
194 749 m 1
 268 749 l 1
 268 623 l 1
 194 623 l 1
 194 749 l 1
341 749 m 1
 415 749 l 1
 415 623 l 1
 341 623 l 1
 341 749 l 1
EndSplineSet
Ligature: 0 0 'liga' u uni0308
EndChar
StartChar: uacute
Encoding: 363 250 257
Width: 608
Flags: W
HStem: -13 68<286 320> 527 20G<63 137 471 545>
VStem: 63 74<252 547> 471 74<0 547>
DStem: 417 782 451 724 224 666 258 610
Fore
545 547 m 1
 545 0 l 1
 471 0 l 1
 471 85 l 1
 434 17 380 -13 295 -13 c 0
 213 -13 147 17 106 74 c 0
 77 114 63 171 63 252 c 2
 63 547 l 1
 137 547 l 1
 137 252 l 2
 137 196 146 152 163 124 c 0
 188 80 240 55 301 55 c 0
 358 55 407 80 438 123 c 0
 461 157 471 199 471 266 c 2
 471 547 l 1
 545 547 l 1
224 666 m 1
 417 782 l 1
 451 724 l 1
 258 610 l 1
 224 666 l 1
EndSplineSet
Ligature: 0 0 'liga' u acutecomb
EndChar
StartChar: ugrave
Encoding: 364 249 258
Width: 608
Flags: W
HStem: -13 68<286 320> 527 20G<63 137 471 545>
VStem: 63 74<252 547> 471 74<0 547>
DStem: 156 718 188 776 353 610 386 666
Fore
545 547 m 1
 545 0 l 1
 471 0 l 1
 471 85 l 1
 434 17 380 -13 295 -13 c 0
 213 -13 147 17 106 74 c 0
 77 114 63 171 63 252 c 2
 63 547 l 1
 137 547 l 1
 137 252 l 2
 137 196 146 152 163 124 c 0
 188 80 240 55 301 55 c 0
 358 55 407 80 438 123 c 0
 461 157 471 199 471 266 c 2
 471 547 l 1
 545 547 l 1
188 776 m 1
 386 666 l 1
 353 610 l 1
 156 718 l 1
 188 776 l 1
EndSplineSet
Ligature: 0 0 'liga' u gravecomb
EndChar
StartChar: ucircumflex
Encoding: 365 251 259
Width: 608
Flags: W
HStem: -13 68<286 320> 527 20G<63 137 471 545> 729 20G<272 338>
VStem: 63 74<252 547> 471 74<0 547>
DStem: 272 749 306 697 127 623 218 623 306 697 338 749 392 623 481 623
Fore
545 547 m 1
 545 0 l 1
 471 0 l 1
 471 85 l 1
 434 17 380 -13 295 -13 c 0
 213 -13 147 17 106 74 c 0
 77 114 63 171 63 252 c 2
 63 547 l 1
 137 547 l 1
 137 252 l 2
 137 196 146 152 163 124 c 0
 188 80 240 55 301 55 c 0
 358 55 407 80 438 123 c 0
 461 157 471 199 471 266 c 2
 471 547 l 1
 545 547 l 1
127 623 m 1
 272 749 l 1
 338 749 l 1
 481 623 l 1
 392 623 l 1
 306 697 l 1
 218 623 l 1
 127 623 l 1
EndSplineSet
Ligature: 0 0 'liga' u uni0302
EndChar
StartChar: uring
Encoding: 366 367 260
Width: 608
Flags: W
HStem: -13 68<286 320> 527 20G<63 137 471 545> 610 41<304 308> 753 41<293 307>
VStem: 63 74<252 547> 212 41<691.27 708> 355 41<702 708> 471 74<0 547>
Fore
545 547 m 1
 545 0 l 1
 471 0 l 1
 471 85 l 1
 434 17 380 -13 295 -13 c 0
 213 -13 147 17 106 74 c 0
 77 114 63 171 63 252 c 2
 63 547 l 1
 137 547 l 1
 137 252 l 2
 137 196 146 152 163 124 c 0
 188 80 240 55 301 55 c 0
 358 55 407 80 438 123 c 0
 461 157 471 199 471 266 c 2
 471 547 l 1
 545 547 l 1
305 794 m 0
 355 794 396 752 396 702 c 0
 396 651 355 610 304 610 c 0
 253 610 212 651 212 701 c 0
 212 753 253 794 305 794 c 0
304 753 m 0
 276 753 253 730 253 701 c 0
 253 674 276 651 304 651 c 0
 332 651 355 674 355 702 c 0
 355 729 332 753 304 753 c 0
EndSplineSet
Ligature: 0 0 'liga' u uni030A
EndChar
StartChar: uhungarumlaut
Encoding: 367 369 261
Width: 608
Flags: W
HStem: -13 68<286 320> 527 20G<63 137 471 545>
VStem: 63 74<252 547> 471 74<0 547>
DStem: 313 780 351 731 142 657 177 610 509 780 547 731 338 657 373 610
Fore
545 547 m 1
 545 0 l 1
 471 0 l 1
 471 85 l 1
 434 17 380 -13 295 -13 c 0
 213 -13 147 17 106 74 c 0
 77 114 63 171 63 252 c 2
 63 547 l 1
 137 547 l 1
 137 252 l 2
 137 196 146 152 163 124 c 0
 188 80 240 55 301 55 c 0
 358 55 407 80 438 123 c 0
 461 157 471 199 471 266 c 2
 471 547 l 1
 545 547 l 1
142 657 m 1
 313 780 l 1
 351 731 l 1
 177 610 l 1
 142 657 l 1
338 657 m 1
 509 780 l 1
 547 731 l 1
 373 610 l 1
 338 657 l 1
EndSplineSet
Ligature: 0 0 'liga' u uni030B
EndChar
StartChar: yacute
Encoding: 368 253 262
Width: 536
Flags: W
HStem: 527 20G<9 90 448 527>
DStem: 9 547 90 547 221 18 263 111 221 18 527 547 132 -192 211 -192 388 782 422 724 195 666 229 610 448 547 527 547 263 111 211 -192
Fore
132 -192 m 1
 221 18 l 1
 9 547 l 1
 90 547 l 1
 263 111 l 1
 448 547 l 1
 527 547 l 1
 211 -192 l 1
 132 -192 l 1
195 666 m 1
 388 782 l 1
 422 724 l 1
 229 610 l 1
 195 666 l 1
EndSplineSet
Ligature: 0 0 'liga' y acutecomb
EndChar
StartChar: zacute
Encoding: 369 378 263
Width: 425
Flags: W
HStem: 0 67<97 415> 480 67<20 312>
DStem: 312 480 396 484 10 67 97 67 332 782 366 724 139 666 173 610
Fore
10 0 m 1
 10 67 l 1
 312 480 l 1
 20 480 l 1
 20 547 l 1
 396 547 l 1
 396 484 l 1
 97 67 l 1
 415 67 l 1
 415 0 l 1
 10 0 l 1
139 666 m 1
 332 782 l 1
 366 724 l 1
 173 610 l 1
 139 666 l 1
EndSplineSet
Ligature: 0 0 'liga' z acutecomb
EndChar
StartChar: zcaron
Encoding: 370 382 264
Width: 425
Flags: W
HStem: 0 67<97 415> 480 67<20 312> 729 20G<35 124 298 389>
DStem: 35 749 124 749 178 623 210 675 298 749 389 749 210 675 244 623 312 480 396 484 10 67 97 67
Fore
10 0 m 1
 10 67 l 1
 312 480 l 1
 20 480 l 1
 20 547 l 1
 396 547 l 1
 396 484 l 1
 97 67 l 1
 415 67 l 1
 415 0 l 1
 10 0 l 1
389 749 m 1
 244 623 l 1
 178 623 l 1
 35 749 l 1
 124 749 l 1
 210 675 l 1
 298 749 l 1
 389 749 l 1
EndSplineSet
Ligature: 0 0 'liga' z uni030C
EndChar
StartChar: zdotaccent
Encoding: 371 380 265
Width: 425
Flags: W
HStem: 0 67<97 415> 480 67<20 312> 729 20G<176 250>
VStem: 176 74<623 749>
DStem: 312 480 396 484 10 67 97 67
Fore
10 0 m 1
 10 67 l 1
 312 480 l 1
 20 480 l 1
 20 547 l 1
 396 547 l 1
 396 484 l 1
 97 67 l 1
 415 67 l 1
 415 0 l 1
 10 0 l 1
176 749 m 1
 250 749 l 1
 250 623 l 1
 176 623 l 1
 176 749 l 1
EndSplineSet
Ligature: 0 0 'liga' z uni0307
EndChar
StartChar: ydieresis
Encoding: 372 255 266
Width: 536
Flags: W
HStem: 527 20G<9 90 448 527> 623 126<155 229 302 376>
VStem: 155 74<623 749> 302 74<623 749>
DStem: 9 547 90 547 221 18 263 111 221 18 527 547 132 -192 211 -192 448 547 527 547 263 111 211 -192
Fore
132 -192 m 1
 221 18 l 1
 9 547 l 1
 90 547 l 1
 263 111 l 1
 448 547 l 1
 527 547 l 1
 211 -192 l 1
 132 -192 l 1
155 749 m 1
 229 749 l 1
 229 623 l 1
 155 623 l 1
 155 749 l 1
302 749 m 1
 376 749 l 1
 376 623 l 1
 302 623 l 1
 302 749 l 1
EndSplineSet
Ligature: 0 0 'liga' y uni0308
EndChar
StartChar: tcommaaccent
Encoding: 373 355 267
Width: 339
Flags: W
HStem: 0 21G<130 204> 480 67<12 130 204 327> 719 20G<130 204>
VStem: 130 74<0 480 547 739>
DStem: 143 -53 217 -53 95 -225 169 -225
Fore
130 0 m 1
 130 480 l 1
 12 480 l 1
 12 547 l 1
 130 547 l 1
 130 739 l 1
 204 739 l 1
 204 547 l 1
 327 547 l 1
 327 480 l 1
 204 480 l 1
 204 0 l 1
 130 0 l 1
95 -225 m 1
 143 -53 l 1
 217 -53 l 1
 169 -225 l 1
 95 -225 l 1
EndSplineSet
Ligature: 0 0 'liga' t uni0327
EndChar
StartChar: amacron
Encoding: 374 257 268
Width: 683
Flags: W
HStem: -13 68<328 347> 492 68<313 347> 643 64<173 510>
VStem: 42 75<258 292> 546 74<0 547>
Fore
620 547 m 1
 620 0 l 1
 546 0 l 1
 546 96 l 1
 488 18 428 -13 335 -13 c 0
 167 -13 42 109 42 272 c 0
 42 436 166 560 330 560 c 0
 425 560 492 526 546 450 c 1
 546 547 l 1
 620 547 l 1
332 492 m 0
 213 492 117 396 117 277 c 0
 117 152 212 55 336 55 c 0
 454 55 546 152 546 276 c 0
 546 398 452 492 332 492 c 0
173 707 m 1
 510 707 l 1
 510 643 l 1
 173 643 l 1
 173 707 l 1
EndSplineSet
Ligature: 0 0 'liga' a uni0304
EndChar
StartChar: emacron
Encoding: 375 275 269
Width: 650
Flags: W
HStem: -13 68<313 347> 249 67<118 611> 492 68<313 347> 643 64<157 494>
Fore
611 249 m 1
 116 249 l 1
 122 141 217 55 329 55 c 0
 412 55 489 105 520 180 c 1
 597 180 l 1
 582 135 556 97 517 60 c 0
 467 13 401 -13 331 -13 c 0
 169 -13 42 114 42 276 c 0
 42 435 167 560 326 560 c 0
 430 560 525 505 574 418 c 0
 601 370 611 324 611 249 c 1
118 316 m 1
 537 316 l 1
 512 425 431 492 325 492 c 0
 221 492 138 421 118 316 c 1
157 707 m 1
 494 707 l 1
 494 643 l 1
 157 643 l 1
 157 707 l 1
EndSplineSet
Ligature: 0 0 'liga' e uni0304
EndChar
StartChar: imacron
Encoding: 376 299 270
Width: 200
Flags: W
HStem: 0 21G<63 137> 527 20G<63 137> 643 64<-69 268>
VStem: 63 74<0 547>
Fore
63 0 m 1
 63 547 l 1
 137 547 l 1
 137 0 l 1
 63 0 l 1
-69 707 m 1
 268 707 l 1
 268 643 l 1
 -69 643 l 1
 -69 707 l 1
EndSplineSet
Ligature: 0 0 'liga' i uni0304
EndChar
StartChar: kcommaaccent
Encoding: 377 311 271
Width: 502
Flags: W
HStem: 0 21G<63 137 405 497> 527 20G<392 483> 719 20G<63 137>
VStem: 63 74<0 113 0 739>
DStem: 223 219 270 272 405 0 497 0 225 -53 299 -53 177 -225 251 -225 392 547 483 547 137 215 270 272 392 547 223 219 137 215 137 113
Fore
63 0 m 1
 63 739 l 1
 137 739 l 1
 137 215 l 1
 392 547 l 1
 483 547 l 1
 270 272 l 1
 497 0 l 1
 405 0 l 1
 223 219 l 1
 137 113 l 1
 137 0 l 1
 63 0 l 1
177 -225 m 1
 225 -53 l 1
 299 -53 l 1
 251 -225 l 1
 177 -225 l 1
EndSplineSet
Ligature: 0 0 'liga' k uni0327
EndChar
StartChar: lcommaaccent
Encoding: 378 316 272
Width: 200
Flags: W
HStem: 0 21G<63 137> 719 20G<63 137>
VStem: 63 74<0 739>
DStem: 74 -53 148 -53 26 -225 100 -225
Fore
63 0 m 1
 63 739 l 1
 137 739 l 1
 137 0 l 1
 63 0 l 1
26 -225 m 1
 74 -53 l 1
 148 -53 l 1
 100 -225 l 1
 26 -225 l 1
EndSplineSet
Ligature: 0 0 'liga' l uni0327
EndChar
StartChar: ncommaaccent
Encoding: 379 326 273
Width: 610
Flags: W
HStem: 0 21G<63 137 473 547> 492 68<302 320>
VStem: 63 74<0 320 0 547> 473 74<0 320>
DStem: 279 -53 353 -53 231 -225 305 -225
Fore
63 0 m 1
 63 547 l 1
 137 547 l 1
 137 476 l 1
 183 532 241 560 313 560 c 0
 390 560 456 529 499 475 c 1
 534 428 547 379 547 287 c 2
 547 0 l 1
 473 0 l 1
 473 287 l 2
 473 359 463 399 437 433 c 0
 407 470 358 492 304 492 c 0
 246 492 195 467 166 425 c 0
 145 394 137 362 137 301 c 2
 137 0 l 1
 63 0 l 1
231 -225 m 1
 279 -53 l 1
 353 -53 l 1
 305 -225 l 1
 231 -225 l 1
EndSplineSet
Ligature: 0 0 'liga' n uni0327
EndChar
StartChar: omacron
Encoding: 380 333 274
Width: 655
Flags: W
HStem: -13 68<313 347> 492 68<329 347> 643 64<159 496>
VStem: 42 75<258 292> 538 75<258 292>
Fore
329 560 m 0
 493 560 613 439 613 272 c 0
 613 108 495 -13 335 -13 c 0
 165 -13 42 109 42 277 c 0
 42 437 167 560 329 560 c 0
329 492 m 0
 208 492 117 399 117 275 c 0
 117 147 207 55 333 55 c 0
 452 55 538 146 538 271 c 0
 538 398 449 492 329 492 c 0
159 707 m 1
 496 707 l 1
 496 643 l 1
 159 643 l 1
 159 707 l 1
EndSplineSet
Ligature: 0 0 'liga' o uni0304
EndChar
StartChar: rcommaaccent
Encoding: 381 343 275
Width: 301
Flags: W
HStem: 0 21G<63 137> 527 20G<63 137>
VStem: 63 74<0 336 0 547>
DStem: 124 -53 198 -53 76 -225 150 -225
Fore
63 0 m 1
 63 547 l 1
 137 547 l 1
 137 469 l 1
 166 529 213 556 292 560 c 1
 292 487 l 1
 189 477 137 421 137 319 c 2
 137 0 l 1
 63 0 l 1
76 -225 m 1
 124 -53 l 1
 198 -53 l 1
 150 -225 l 1
 76 -225 l 1
EndSplineSet
Ligature: 0 0 'liga' r uni0327
EndChar
StartChar: umacron
Encoding: 382 363 276
Width: 608
Flags: W
HStem: -13 68<286 320> 527 20G<63 137 471 545> 643 64<136 473>
VStem: 63 74<252 547> 471 74<0 547>
Fore
545 547 m 1
 545 0 l 1
 471 0 l 1
 471 85 l 1
 434 17 380 -13 295 -13 c 0
 213 -13 147 17 106 74 c 0
 77 114 63 171 63 252 c 2
 63 547 l 1
 137 547 l 1
 137 252 l 2
 137 196 146 152 163 124 c 0
 188 80 240 55 301 55 c 0
 358 55 407 80 438 123 c 0
 461 157 471 199 471 266 c 2
 471 547 l 1
 545 547 l 1
136 707 m 1
 473 707 l 1
 473 643 l 1
 136 643 l 1
 136 707 l 1
EndSplineSet
Ligature: 0 0 'liga' u uni0304
EndChar
StartChar: uogonek
Encoding: 383 371 277
Width: 608
Flags: W
HStem: -191 45<523 533> -13 68<286 320> 527 20G<63 137 471 545>
VStem: 63 74<252 546> 422 50<-103 -95> 471 74<-1 547>
Fore
545 547 m 1xf4
 545 0 l 1xf4
 530 -11 519 -20 504 -37 c 0
 480 -63 472 -78 472 -97 c 0
 472 -126 497 -146 531 -146 c 0
 547 -146 561 -143 576 -136 c 1
 576 -182 l 1
 557 -188 541 -191 525 -191 c 0
 465 -191 422 -153 422 -101 c 0xf8
 422 -60 442 -31 493 0 c 1
 471 0 l 1
 471 85 l 1
 434 17 380 -13 295 -13 c 0
 213 -13 147 17 106 74 c 0
 77 114 63 171 63 252 c 2
 63 547 l 1
 137 547 l 1
 137 252 l 2
 137 196 146 152 163 124 c 0
 188 80 240 55 301 55 c 0
 358 55 407 80 438 123 c 0
 461 157 471 199 471 266 c 2
 471 547 l 1
 545 547 l 1xf4
EndSplineSet
Ligature: 0 0 'liga' u uni0328
EndChar
StartChar: rcaron
Encoding: 384 345 278
Width: 301
Flags: W
HStem: 0 21G<63 137> 527 20G<63 137> 729 20G<10 99 273 364>
VStem: 63 74<0 337 0 547>
DStem: 10 749 99 749 153 623 185 675 273 749 364 749 185 675 219 623
Fore
63 0 m 1
 63 547 l 1
 137 547 l 1
 137 469 l 1
 166 529 213 556 292 560 c 1
 292 487 l 1
 189 477 137 421 137 319 c 2
 137 0 l 1
 63 0 l 1
364 749 m 1
 219 623 l 1
 153 623 l 1
 10 749 l 1
 99 749 l 1
 185 675 l 1
 273 749 l 1
 364 749 l 1
EndSplineSet
Ligature: 0 0 'liga' r uni030C
EndChar
StartChar: scedilla
Encoding: 385 351 279
Width: 388
Flags: W
HStem: -213 43<185 206> -72 33<193 206> -13 68<186 208> 492 68<179 208>
VStem: 38 75<404 415> 239 43<-135 -116> 286 75<138 163>
DStem: 152 -9 187 -13 121 -79 173 -47
Fore
187 -13 m 1
 173 -47 l 1
 188 -41 195 -39 206 -39 c 0
 251 -39 282 -72 282 -120 c 0
 282 -174 245 -213 194 -213 c 0
 148 -213 117 -187 106 -140 c 1
 150 -135 l 1
 156 -157 172 -170 195 -170 c 0
 221 -170 239 -151 239 -124 c 0
 239 -94 220 -72 193 -72 c 0
 176 -72 164 -79 150 -96 c 1
 121 -79 l 1
 152 -9 l 1
 69 8 17 75 18 161 c 1
 91 161 l 1
 95 94 133 55 194 55 c 0
 247 55 286 95 286 150 c 0
 286 180 273 206 251 221 c 0
 237 230 213 242 180 255 c 0
 103 287 102 287 79 308 c 0
 52 333 38 367 38 406 c 0
 38 495 104 560 193 560 c 0
 281 560 344 500 347 412 c 1
 272 412 l 1
 268 464 240 492 192 492 c 0
 148 492 113 457 113 413 c 0
 113 381 129 358 163 341 c 0
 179 333 183 331 266 297 c 0
 330 270 361 224 361 157 c 0
 361 58 292 -13 195 -13 c 2
 187 -13 l 1
EndSplineSet
Ligature: 0 0 'liga' s uni0327
EndChar
StartChar: gcommaaccent
Encoding: 386 291 280
Width: 673
Flags: W
HStem: -215 68<310 347> -37 20G<62 134> -13 68<327 347> 492 68<308 347>
VStem: 42 75<264 283> 536 74<53 111 264 547>
DStem: 310 790 384 790 262 618 336 618
Fore
610 547 m 1
 610 98 l 2
 610 -9 596 -67 559 -117 c 0
 512 -179 432 -215 337 -215 c 0
 199 -215 102 -145 62 -17 c 1
 134 -17 l 1
 158 -59 169 -75 188 -92 c 0
 227 -129 274 -147 335 -147 c 0
 419 -147 485 -111 514 -48 c 0
 530 -14 536 20 536 74 c 2
 536 111 l 1
 493 27 425 -13 327 -13 c 0
 167 -13 42 111 42 271 c 0
 42 436 162 560 322 560 c 0
 414 560 481 525 536 450 c 1
 536 547 l 1
 610 547 l 1
326 492 m 0
 205 492 117 402 117 277 c 0
 117 150 207 55 327 55 c 0
 446 55 536 152 536 280 c 0
 536 399 444 492 326 492 c 0
384 790 m 1
 336 618 l 1
 262 618 l 1
 310 790 l 1
 384 790 l 1
EndSplineSet
Ligature: 0 0 'liga' g uni0327
EndChar
StartChar: iogonek
Encoding: 387 303 281
Width: 200
Flags: W
HStem: -191 45<115 127> -20 20G<63 85> 527 20G<63 137> 719 20G<63 137>
VStem: 14 50<-103 -95> 63 74<-1 547 613 739>
Fore
137 547 m 1xf4
 137 0 l 1xf4
 122 -11 111 -20 96 -37 c 0
 72 -63 64 -78 64 -97 c 0
 64 -126 89 -146 123 -146 c 0
 139 -146 153 -143 168 -136 c 1
 168 -182 l 1
 149 -188 133 -191 117 -191 c 0
 57 -191 14 -153 14 -101 c 0xf8
 14 -60 34 -31 85 0 c 1
 63 0 l 1
 63 547 l 1
 137 547 l 1xf4
63 613 m 1
 63 739 l 1
 137 739 l 1
 137 613 l 1
 63 613 l 1
EndSplineSet
Ligature: 0 0 'liga' i uni0328
EndChar
StartChar: Scommaaccent
Encoding: 388 536 282
Width: 498
Flags: W
HStem: -13 68<237 267> 552 21G<381 458> 684 68<234 267>
VStem: 46 75<542 560> 401 75<190 210>
DStem: 223 -53 297 -53 175 -225 249 -225
Fore
22 207 m 1
 101 207 l 1
 106 161 115 136 136 110 c 0
 163 76 208 55 255 55 c 0
 339 55 401 117 401 202 c 0
 401 247 383 285 350 308 c 0
 326 325 294 339 236 357 c 0
 150 383 127 394 98 422 c 0
 65 453 46 502 46 553 c 0
 46 668 132 752 251 752 c 0
 372 752 455 672 458 552 c 1
 381 552 l 1
 376 632 324 684 249 684 c 0
 175 684 121 629 121 555 c 0
 121 521 135 488 156 469 c 0
 176 452 198 443 265 423 c 0
 341 400 372 386 402 364 c 0
 449 329 476 271 476 206 c 0
 476 80 381 -13 253 -13 c 0
 120 -13 29 74 22 207 c 1
175 -225 m 1
 223 -53 l 1
 297 -53 l 1
 249 -225 l 1
 175 -225 l 1
EndSplineSet
Ligature: 0 0 'liga' S uni0326
EndChar
StartChar: Eth
Encoding: 389 208 283
Width: 790
Flags: W
HStem: 0 67<196 347> 347 67<26 122 196 401> 672 67<122 347>
VStem: 122 74<0 347 414 672> 671 75<345 385>
Fore
122 347 m 1
 26 347 l 1
 26 414 l 1
 122 414 l 1
 122 739 l 1
 296 739 l 2
 430 739 508 723 578 681 c 0
 687 616 746 506 746 367 c 0
 746 229 687 121 575 55 c 0
 510 17 432 0 321 0 c 2
 122 0 l 1
 122 347 l 1
196 347 m 1
 196 67 l 1
 299 67 l 2
 430 67 506 86 565 133 c 0
 633 188 671 273 671 370 c 0
 671 480 622 573 537 624 c 0
 481 658 411 672 299 672 c 2
 196 672 l 1
 196 414 l 1
 401 414 l 1
 401 347 l 1
 196 347 l 1
EndSplineSet
EndChar
StartChar: Dcroat
Encoding: 390 272 284
Width: 790
Flags: W
HStem: 0 67<196 347> 347 67<26 122 196 401> 672 67<122 347>
VStem: 122 74<0 347 414 672> 671 75<345 385>
Fore
122 347 m 1
 26 347 l 1
 26 414 l 1
 122 414 l 1
 122 739 l 1
 296 739 l 2
 430 739 508 723 578 681 c 0
 687 616 746 506 746 367 c 0
 746 229 687 121 575 55 c 0
 510 17 432 0 321 0 c 2
 122 0 l 1
 122 347 l 1
196 347 m 1
 196 67 l 1
 299 67 l 2
 430 67 506 86 565 133 c 0
 633 188 671 273 671 370 c 0
 671 480 622 573 537 624 c 0
 481 658 411 672 299 672 c 2
 196 672 l 1
 196 414 l 1
 401 414 l 1
 401 347 l 1
 196 347 l 1
EndSplineSet
EndChar
StartChar: Thorn
Encoding: 391 222 285
Width: 592
Flags: W
HStem: 0 21G<76 150> 166 67<150 317> 539 67<143 301> 719 20G<76 143>
VStem: 76 67<0 739> 76 74<0 166 0 539> 490 75<382 401>
Fore
76 0 m 1xfa
 76 739 l 1
 143 739 l 1
 143 606 l 1xfa
 280 606 l 2
 375 606 431 595 477 567 c 0
 533 534 565 467 565 382 c 0
 565 308 539 247 491 212 c 0
 446 179 392 166 292 166 c 2
 150 166 l 1
 150 0 l 1xf6
 76 0 l 1xfa
150 233 m 1xf6
 287 233 l 2
 355 233 398 240 429 258 c 0
 467 279 490 325 490 382 c 0
 490 448 466 495 423 517 c 0
 393 532 340 539 255 539 c 2
 150 539 l 1
 150 233 l 1xf6
EndSplineSet
EndChar
StartChar: dcroat
Encoding: 392 273 286
Width: 685
Flags: W
HStem: -13 68<329 347> 492 68<313 347> 602 63<396 548 622 685> 719 20G<548 622>
VStem: 42 75<258 292> 548 74<0 602 665 739>
Fore
622 739 m 1
 622 665 l 1
 685 665 l 1
 685 602 l 1
 622 602 l 1
 622 0 l 1
 548 0 l 1
 548 99 l 1
 493 20 431 -13 340 -13 c 0
 171 -13 42 111 42 273 c 0
 42 436 168 560 333 560 c 0
 419 560 494 525 548 460 c 1
 548 602 l 1
 396 602 l 1
 396 665 l 1
 548 665 l 1
 548 739 l 1
 622 739 l 1
331 492 m 0
 212 492 117 396 117 277 c 0
 117 150 212 55 338 55 c 0
 455 55 551 155 551 275 c 0
 551 395 452 492 331 492 c 0
EndSplineSet
EndChar
StartChar: eth
Encoding: 393 240 287
Width: 655
Flags: W
HStem: -13 68<313 347> 492 64<313 337>
VStem: 42 75<258 292> 538 75<258 292>
Fore
213 727 m 1
 266 756 l 1
 296 734 309 724 334 701 c 1
 429 743 l 1
 468 699 l 1
 379 660 l 1
 419 625 462 582 504 537 c 0
 582 451 613 377 613 279 c 0
 613 107 498 -13 334 -13 c 0
 166 -13 42 109 42 274 c 0
 42 434 160 556 316 556 c 0
 349 556 369 552 412 538 c 1
 351 600 349 602 317 630 c 1
 230 591 l 1
 194 637 l 1
 273 672 l 1
 257 688 256 689 240 703 c 2
 213 727 l 1
329 492 m 0
 208 492 117 399 117 275 c 0
 117 147 207 55 333 55 c 0
 453 55 538 145 538 272 c 0
 538 398 449 492 329 492 c 0
EndSplineSet
EndChar
StartChar: thorn
Encoding: 394 254 288
Width: 682
Flags: W
HStem: -13 68<350 368> 492 68<334 368> 719 20G<63 137>
VStem: 63 69<-192 289> 565 75<272 289>
Fore
63 739 m 1
 137 739 l 1
 137 453 l 1
 183 522 259 560 352 560 c 0
 515 560 640 435 640 272 c 0
 640 112 513 -13 350 -13 c 0
 259 -13 185 24 137 94 c 1
 137 -192 l 1
 63 -192 l 1
 63 739 l 1
349 492 m 0
 228 492 132 397 132 276 c 0
 132 150 225 55 350 55 c 0
 472 55 565 149 565 272 c 0
 565 398 472 492 349 492 c 0
EndSplineSet
EndChar
StartChar: Euro
Encoding: 395 8364 289
Width: 554
Flags: W
HStem: -13 65<335 369> 272 59<-8 65 135 414> 400 59<-9 62 142 468> 686 66<335 369>
VStem: 60 74<362 372>
Fore
-32 400 m 1
 -8 459 l 1
 67 459 l 1
 86 563 107 617 146 663 c 0
 196 722 265 752 353 752 c 0
 396 752 439 742 474 723 c 0
 509 704 532 682 573 628 c 1
 542 559 l 1
 477 655 431 686 354 686 c 0
 283 686 226 656 190 600 c 0
 171 571 156 526 142 459 c 1
 493 459 l 1
 468 400 l 1
 136 400 l 1
 135 383 134 369 134 362 c 0
 134 353 134 345 135 331 c 1
 438 331 l 1
 414 272 l 1
 140 272 l 1
 159 130 233 52 348 52 c 0
 406 52 444 65 487 100 c 0
 500 110 509 118 536 143 c 1
 536 62 l 1
 482 8 429 -13 349 -13 c 0
 255 -13 186 19 136 86 c 0
 97 137 81 180 65 272 c 1
 -31 272 l 1
 -7 331 l 1
 61 331 l 1
 60 345 60 355 60 362 c 0
 60 370 61 383 62 400 c 1
 -32 400 l 1
EndSplineSet
EndChar
StartChar: onesuperior
Encoding: 396 185 290
Width: 332
Flags: W
HStem: 684 55<98 173>
VStem: 173 60<288 739>
Fore
173 288 m 1
 173 684 l 1
 98 684 l 1
 98 739 l 1
 233 739 l 1
 233 288 l 1
 173 288 l 1
EndSplineSet
EndChar
StartChar: twosuperior
Encoding: 397 178 291
Width: 332
Flags: W
HStem: 288 55<101 318> 692 55<155 177>
VStem: 16 60<583 610> 259 61<604 610>
DStem: 175 489 234 464 12 339 101 343
Fore
12 288 m 1
 12 339 l 1
 175 489 l 2
 216 526 216 526 229 541 c 0
 249 564 259 586 259 608 c 0
 259 653 218 692 168 692 c 0
 135 692 104 674 88 647 c 0
 79 632 76 616 76 588 c 2
 76 583 l 1
 16 583 l 1
 17 627 18 634 27 657 c 0
 50 712 105 747 171 747 c 0
 254 747 320 684 320 606 c 0
 320 559 297 521 234 464 c 2
 101 343 l 1
 318 343 l 1
 318 288 l 1
 12 288 l 1
EndSplineSet
EndChar
StartChar: threesuperior
Encoding: 398 179 292
Width: 332
Flags: W
HStem: 280 55<156 174> 517 53<128 165> 692 55<156 174>
VStem: 43 61<615 632.334> 229 61<626 633> 258 61<412.299 430>
Fore
104 615 m 1xf8
 43 615 l 1
 44 695 93 747 167 747 c 0
 236 747 290 695 290 628 c 0xf8
 290 594 280 574 249 546 c 1
 296 517 319 476 319 427 c 0
 319 347 249 280 166 280 c 0
 112 280 62 308 35 352 c 0
 20 376 15 398 13 439 c 1
 74 439 l 1
 76 402 79 391 91 374 c 0
 109 350 137 335 165 335 c 0
 215 335 258 377 258 425 c 0xf4
 258 466 228 504 187 513 c 0
 175 516 161 517 128 517 c 1
 128 571 l 1
 146 570 146 570 149 570 c 0
 198 570 229 594 229 631 c 0
 229 666 202 692 166 692 c 0
 141 692 120 678 110 655 c 0
 105 643 104 639 104 615 c 1xf8
EndSplineSet
EndChar
StartChar: degree
Encoding: 399 176 293
Width: 400
Flags: W
HStem: 380 57<200 211> 629 57<193 211>
VStem: 50 56<523 541> 293 57<533 541>
Fore
204 686 m 0
 286 686 350 619 350 533 c 0
 350 447 284 380 200 380 c 0
 116 380 50 448 50 534 c 0
 50 619 118 686 204 686 c 0
202 629 m 0
 148 629 106 586 106 533 c 0
 106 480 149 437 200 437 c 0
 252 437 293 479 293 533 c 0
 293 586 252 629 202 629 c 0
EndSplineSet
EndChar
StartChar: minus
Encoding: 400 8722 294
Width: 606
Flags: W
HStem: 267 74<51 555>
Fore
555 341 m 1
 555 267 l 1
 51 267 l 1
 51 341 l 1
 555 341 l 1
EndSplineSet
EndChar
StartChar: multiply
Encoding: 401 215 295
Width: 606
Flags: W
DStem: 51 500 103 551 251 299 303 351 251 299 303 248 51 99 103 48 303 248 355 299 503 48 555 99 503 551 555 500 303 351 355 299
Fore
355 299 m 1
 555 99 l 1
 503 48 l 1
 303 248 l 1
 103 48 l 1
 51 99 l 1
 251 299 l 1
 51 500 l 1
 103 551 l 1
 303 351 l 1
 503 551 l 1
 555 500 l 1
 355 299 l 1
EndSplineSet
EndChar
StartChar: divide
Encoding: 402 247 296
Width: 606
Flags: W
HStem: 112 87<259 346> 267 74<51 555> 409 87<259 346>
VStem: 259 87<112 199 409 496>
CounterMasks: 1 00
Fore
346 409 m 1
 259 409 l 1
 259 496 l 1
 346 496 l 1
 346 409 l 1
346 112 m 1
 259 112 l 1
 259 199 l 1
 346 199 l 1
 346 112 l 1
555 341 m 1
 555 267 l 1
 51 267 l 1
 51 341 l 1
 555 341 l 1
EndSplineSet
EndChar
StartChar: trademark
Encoding: 403 8482 297
Width: 1000
Flags: W
HStem: 681 58<63 205 63 413>
VStem: 205 64<340 681> 461 64<340 685> 874 64<340 739>
DStem: 525 685 570 739 676 340 697 455 832 739 874 684 697 455 718 340
Fore
938 739 m 1
 938 340 l 1
 874 340 l 1
 874 684 l 1
 718 340 l 1
 676 340 l 1
 525 685 l 1
 525 340 l 1
 461 340 l 1
 461 739 l 1
 570 739 l 1
 697 455 l 1
 832 739 l 1
 938 739 l 1
413 739 m 1
 413 681 l 1
 269 681 l 1
 269 340 l 1
 205 340 l 1
 205 681 l 1
 63 681 l 1
 63 739 l 1
 413 739 l 1
EndSplineSet
Ligature: 0 1 'liga' T M
EndChar
StartChar: plusminus
Encoding: 404 177 298
Width: 606
Flags: W
HStem: 0 74<51 555> 295 74<51 265 342 555>
VStem: 265 77<124 295 369 585>
Fore
265 369 m 1
 265 585 l 1
 342 585 l 1
 342 369 l 1
 555 369 l 1
 555 295 l 1
 342 295 l 1
 342 124 l 1
 265 124 l 1
 265 295 l 1
 51 295 l 1
 51 369 l 1
 265 369 l 1
555 74 m 1
 555 0 l 1
 51 0 l 1
 51 74 l 1
 555 74 l 1
EndSplineSet
EndChar
StartChar: onehalf
Encoding: 405 189 299
Width: 831
Flags: W
HStem: 0 55<595 812> 404 55<655 673> 684 55<96 171>
VStem: 171 60<288 739> 510 60<295 322> 753 61<316 322>
DStem: 547 739 602 739 206 0 260 0 669 201 728 176 506 51 595 55
Fore
206 0 m 1
 547 739 l 1
 602 739 l 1
 260 0 l 1
 206 0 l 1
171 288 m 1
 171 684 l 1
 96 684 l 1
 96 739 l 1
 231 739 l 1
 231 288 l 1
 171 288 l 1
506 0 m 1
 506 51 l 1
 669 201 l 2
 710 238 710 238 723 253 c 0
 743 276 753 298 753 320 c 0
 753 365 712 404 662 404 c 0
 629 404 598 386 582 359 c 0
 573 344 570 328 570 300 c 2
 570 295 l 1
 510 295 l 1
 511 339 512 346 521 369 c 0
 544 424 599 459 665 459 c 0
 748 459 814 396 814 318 c 0
 814 271 791 233 728 176 c 2
 595 55 l 1
 812 55 l 1
 812 0 l 1
 506 0 l 1
EndSplineSet
Ligature: 0 1 'frac' one slash two
Ligature: 0 1 'frac' one fraction two
EndChar
StartChar: onequarter
Encoding: 406 188 300
Width: 831
Flags: W
HStem: 0 21G<211 265 701 761> 79 55<545 701 761 803> 684 55<101 176>
VStem: 176 60<288 739> 701 60<0 79 134 451>
DStem: 552 739 607 739 211 0 265 0 696 451 701 359 470 129 545 134
Fore
701 0 m 1
 701 79 l 1
 470 79 l 1
 470 129 l 1
 696 451 l 1
 761 451 l 1
 761 134 l 1
 803 134 l 1
 803 79 l 1
 761 79 l 1
 761 0 l 1
 701 0 l 1
701 134 m 1
 701 359 l 1
 545 134 l 1
 701 134 l 1
211 0 m 1
 552 739 l 1
 607 739 l 1
 265 0 l 1
 211 0 l 1
176 288 m 1
 176 684 l 1
 101 684 l 1
 101 739 l 1
 236 739 l 1
 236 288 l 1
 176 288 l 1
EndSplineSet
Ligature: 0 1 'frac' one slash four
Ligature: 0 1 'frac' one fraction four
EndChar
StartChar: threequarters
Encoding: 407 190 301
Width: 831
Flags: W
HStem: 0 21G<239 293 701 761> 79 55<545 701 761 803> 280 55<156 174> 517 53<128 165> 692 55<156 174>
VStem: 43 61<615 632.334> 229 61<623 641> 258 61<415 433> 701 60<0 79 134 451>
DStem: 580 739 635 739 239 0 293 0 696 451 701 359 470 129 545 134
Fore
701 0 m 1xfc80
 701 79 l 1
 470 79 l 1
 470 129 l 1
 696 451 l 1
 761 451 l 1
 761 134 l 1
 803 134 l 1
 803 79 l 1
 761 79 l 1
 761 0 l 1
 701 0 l 1xfc80
701 134 m 1
 701 359 l 1
 545 134 l 1
 701 134 l 1
239 0 m 1
 580 739 l 1
 635 739 l 1
 293 0 l 1
 239 0 l 1
104 615 m 1
 43 615 l 1
 44 695 93 747 167 747 c 0
 236 747 290 695 290 628 c 0xfe80
 290 594 280 574 249 546 c 1
 295 517 319 476 319 427 c 0
 319 347 249 280 166 280 c 0
 112 280 62 308 35 352 c 0
 20 376 14 398 13 439 c 1
 74 439 l 1
 76 402 79 391 91 374 c 0
 109 349 137 335 165 335 c 0
 215 335 258 377 258 425 c 0xfd80
 258 466 228 504 187 513 c 0
 174 516 161 517 128 517 c 1
 128 571 l 1
 146 570 146 570 149 570 c 0
 198 570 229 594 229 631 c 0xfe80
 229 666 202 692 166 692 c 0
 141 692 120 678 110 655 c 0
 105 643 104 639 104 615 c 1
EndSplineSet
Ligature: 0 1 'frac' three slash four
Ligature: 0 1 'frac' three fraction four
EndChar
StartChar: commaaccent
Encoding: 408 63171 302
Width: 351
Flags: W
DStem: 149 -53 223 -53 101 -225 175 -225
Fore
101 -225 m 1
 149 -53 l 1
 223 -53 l 1
 175 -225 l 1
 101 -225 l 1
EndSplineSet
EndChar
StartChar: copyright
Encoding: 409 169 303
Width: 747
Flags: W
HStem: -13 52<373 392> 148 56<370 392> 538 56<370 392> 700 52<372 392>
VStem: -9 56<370 388> 163 61<354 388> 699 56<365 388>
Fore
501 261 m 1
 576 261 l 1
 536 191 463 148 382 148 c 0
 262 148 163 250 163 373 c 0
 163 495 261 594 383 594 c 0
 467 594 537 552 579 477 c 1
 505 477 l 1
 471 518 432 538 384 538 c 0
 296 538 224 464 224 372 c 0
 224 281 297 204 383 204 c 0
 429 204 469 223 501 261 c 1
372 752 m 0
 587 752 755 582 755 365 c 0
 755 159 582 -13 373 -13 c 0
 162 -13 -9 158 -9 370 c 0
 -9 580 162 752 372 752 c 0
372 700 m 0
 193 700 47 552 47 370 c 0
 47 187 193 39 373 39 c 0
 551 39 699 187 699 365 c 0
 699 553 555 700 372 700 c 0
EndSplineSet
EndChar
StartChar: registered
Encoding: 410 174 304
Width: 747
Flags: W
HStem: -13 52<373 392> 527 58<248 392> 700 52<372 392>
VStem: -9 56<370 388> 248 61<157 359 157 527> 471 63<448 452> 699 56<365 388>
DStem: 309 359 409 317 454 157 530 157
Fore
530 157 m 1
 454 157 l 1
 309 359 l 1
 309 157 l 1
 248 157 l 1
 248 585 l 1
 380 585 l 2
 433 585 469 574 495 549 c 0
 519 525 534 487 534 448 c 0
 534 402 514 362 480 340 c 0
 461 327 444 322 409 317 c 1
 530 157 l 1
309 365 m 1
 353 365 l 2
 430 365 471 394 471 448 c 0
 471 496 433 527 376 527 c 2
 309 527 l 1
 309 365 l 1
372 752 m 0
 587 752 755 582 755 365 c 0
 755 159 582 -13 373 -13 c 0
 162 -13 -9 158 -9 370 c 0
 -9 580 162 752 372 752 c 0
372 700 m 0
 193 700 47 552 47 370 c 0
 47 187 193 39 373 39 c 0
 551 39 699 187 699 365 c 0
 699 553 555 700 372 700 c 0
EndSplineSet
EndChar
StartChar: lozenge
Encoding: 411 9674 305
Width: 494
Flags: W
HStem: 0 21G<209 269> 720 20G<214 277>
DStem: 18 377 81 376 209 0 240 58 214 740 245 683 18 377 81 376 245 683 277 740 402 374 466 374 402 374 466 374 240 58 269 0
Fore
209 0 m 1
 18 377 l 1
 214 740 l 1
 277 740 l 1
 466 374 l 1
 269 0 l 1
 209 0 l 1
240 58 m 1
 402 374 l 1
 245 683 l 1
 81 376 l 1
 240 58 l 1
EndSplineSet
EndChar
StartChar: uni2206
Encoding: 412 8710 306
Width: 612
Flags: W
HStem: 0 51<77 608>
DStem: 290 509 327 688 479 51 608 0 327 688 290 509 6 0 77 51
Fore
6 0 m 1
 327 688 l 1
 608 0 l 1
 6 0 l 1
77 51 m 1
 479 51 l 1
 290 509 l 1
 77 51 l 1
EndSplineSet
EndChar
StartChar: notequal
Encoding: 413 8800 307
Width: 549
Flags: W
HStem: 164 74<25 167 287 529> 362 74<25 267 387 529>
DStem: 167 164 250 164 123 76 189 42 267 362 350 362 204 238 287 238 365 558 431 524 304 436 387 436
Fore
350 362 m 1
 287 238 l 1
 529 238 l 1
 529 164 l 1
 250 164 l 1
 189 42 l 1
 123 76 l 1
 167 164 l 1
 25 164 l 1
 25 238 l 1
 204 238 l 1
 267 362 l 1
 25 362 l 1
 25 436 l 1
 304 436 l 1
 365 558 l 1
 431 524 l 1
 387 436 l 1
 529 436 l 1
 529 362 l 1
 350 362 l 1
EndSplineSet
Ligature: 0 1 'liga' equal uni0338
EndChar
StartChar: radical
Encoding: 414 8730 308
Width: 549
Flags: W
DStem: 121 461 156 520 363 -35 351 126 156 520 121 461 10 449 26 414 478 913 515 908 351 126 363 -35
Fore
363 -35 m 1
 121 461 l 1
 26 414 l 1
 10 449 l 1
 156 520 l 1
 351 126 l 1
 478 913 l 1
 515 908 l 1
 363 -35 l 1
EndSplineSet
EndChar
StartChar: lessequal
Encoding: 415 8804 309
Width: 549
Flags: W
HStem: 0 74<26 530>
DStem: 26 347 132 379 530 112 530 194 530 646 530 565 26 411 132 379
Fore
26 411 m 1
 530 646 l 1
 530 565 l 1
 132 379 l 1
 530 194 l 1
 530 112 l 1
 26 347 l 1
 26 411 l 1
530 74 m 1
 530 0 l 1
 26 0 l 1
 26 74 l 1
 530 74 l 1
EndSplineSet
EndChar
StartChar: greaterequal
Encoding: 416 8805 310
Width: 549
Flags: W
HStem: 0 74<26 530>
DStem: 26 565 26 646 424 379 530 411 424 379 530 347 26 194 26 112
Fore
530 411 m 1
 530 347 l 1
 26 112 l 1
 26 194 l 1
 424 379 l 1
 26 565 l 1
 26 646 l 1
 530 411 l 1
530 74 m 1
 530 0 l 1
 26 0 l 1
 26 74 l 1
 530 74 l 1
EndSplineSet
EndChar
StartChar: logicalnot
Encoding: 417 172 311
Width: 606
Flags: W
HStem: 363 73<51 483>
VStem: 483 72<148 436>
Fore
51 436 m 1
 555 436 l 1
 555 148 l 1
 483 148 l 1
 483 363 l 1
 51 363 l 1
 51 436 l 1
EndSplineSet
EndChar
StartChar: summation
Encoding: 418 8721 312
Width: 713
Flags: W
HStem: -123 112<163 641> 587 165<23 632> 711 41<23 479>
DStem: 23 752 176 711 256 285 364 341 256 285 364 341 14 -123 163 -11
Fore
176 711 m 1xa0
 364 341 l 1
 163 -11 l 1
 491 -11 l 2
 607 -11 637 6 669 87 c 1
 695 87 l 1
 641 -123 l 1
 14 -123 l 1
 256 285 l 1
 23 752 l 1
 622 752 l 1
 632 587 l 1
 606 587 l 1xc0
 589 688 559 711 444 711 c 2
 176 711 l 1xa0
EndSplineSet
EndChar
StartChar: partialdiff
Encoding: 419 8706 313
Width: 494
Flags: W
HStem: -10 31<193 215> 367 45<221 261> 706 47<195 219>
VStem: 26 87<159 184> 379 83<403 448>
Fore
107 674 m 1
 66 725 l 1
 121 745 156 753 195 753 c 0
 347 753 462 602 462 403 c 0
 462 286 428 152 383 84 c 0
 341 23 282 -10 213 -10 c 0
 109 -10 26 76 26 184 c 0
 26 246 51 309 95 355 c 0
 131 394 172 412 221 412 c 0
 272 412 308 396 372 346 c 1
 377 396 379 419 379 448 c 0
 379 611 320 706 219 706 c 0
 185 706 151 696 107 674 c 1
366 312 m 1
 362 316 362 316 357 320 c 1
 325 353 295 367 261 367 c 0
 180 367 113 273 113 159 c 0
 113 74 147 21 201 21 c 0
 245 21 288 54 314 107 c 0
 340 158 350 201 366 312 c 1
EndSplineSet
EndChar
StartChar: brokenbar
Encoding: 420 166 314
Width: 672
Flags: W
HStem: 0 21G<304 368> 719 20G<304 368>
VStem: 304 64<0 295 444 739>
Fore
368 739 m 1
 368 444 l 1
 304 444 l 1
 304 739 l 1
 368 739 l 1
368 295 m 1
 368 0 l 1
 304 0 l 1
 304 295 l 1
 368 295 l 1
EndSplineSet
EndChar
StartChar: mu
Encoding: 421 181 315
Width: 608
Flags: W
HStem: -13 67<307 320> 527 20G<63 137 471 545>
VStem: 63 74<-192 85 -192 547> 471 74<0 547>
Fore
545 547 m 1
 545 0 l 1
 471 0 l 1
 471 85 l 1
 437 19 384 -13 307 -13 c 0
 236 -13 175 22 137 85 c 1
 137 -192 l 1
 63 -192 l 1
 63 547 l 1
 137 547 l 1
 137 266 l 2
 137 173 148 140 190 101 c 0
 222 71 265 54 307 54 c 0
 361 54 411 80 440 123 c 0
 462 157 471 199 471 266 c 2
 471 547 l 1
 545 547 l 1
EndSplineSet
EndChar
StartChar: afii10017
Encoding: 422 1040 316
Width: 740
Flags: W
HStem: 0 21G<11 89 648 729> 249 67<225 541> 719 20G<328 411>
DStem: 328 739 370 655 11 0 225 316 328 739 197 249 11 0 89 0 370 655 411 739 512 316 729 0 541 249 411 739 648 0 729 0
Fore
11 0 m 1
 328 739 l 1
 411 739 l 1
 729 0 l 1
 648 0 l 1
 541 249 l 1
 197 249 l 1
 89 0 l 1
 11 0 l 1
225 316 m 1
 512 316 l 1
 370 655 l 1
 225 316 l 1
EndSplineSet
KernsSLIF: 430 -33 0 0
EndChar
StartChar: afii10018
Encoding: 423 1041 317
Width: 597
Flags: W
HStem: 0 67<150 285> 407 67<150 285> 672 67<76 540>
VStem: 76 74<0 407 0 672> 502 75<236 257>
Fore
150 672 m 1
 150 474 l 1
 259 474 l 2
 473 474 577 405 577 236 c 0
 577 70 472 0 259 0 c 2
 76 0 l 1
 76 739 l 1
 540 739 l 5
 540 672 l 5
 150 672 l 1
150 407 m 1
 150 67 l 1
 254 67 l 2
 410 67 502 104 502 236 c 0
 502 370 411 407 254 407 c 2
 150 407 l 1
EndSplineSet
EndChar
StartChar: afii10019
Encoding: 424 1042 318
Width: 601
Flags: W
HStem: 0 67<150 317> 354 65<150 301> 672 67<76 301>
VStem: 76 74<0 354 0 672> 457 75<527 561> 499 75<191 225>
Fore
76 0 m 5xf4
 76 739 l 5
 279 739 l 6
 369 739 424 726 466 696 c 4
 508 665 532 611 532 547 c 4xf8
 532 474 506 420 447 394 c 5
 534 366 574 302 574 212 c 4
 574 59 479 0 286 0 c 6
 76 0 l 5xf4
150 67 m 5
 281 67 l 6
 408 67 499 94 499 208 c 4xf4
 499 325 421 354 268 354 c 6
 150 354 l 5
 150 67 l 5
150 419 m 5
 270 419 l 6
 383 419 457 441 457 546 c 4xf8
 457 654 383 672 258 672 c 6
 150 672 l 5
 150 419 l 5
EndSplineSet
EndChar
StartChar: afii10020
Encoding: 425 1043 319
Width: 517
Flags: W
HStem: 0 21G<76 150> 672 67<76 510>
VStem: 76 74<0 672>
Fore
150 0 m 5
 76 0 l 1
 76 739 l 5
 510 739 l 5
 510 672 l 5
 150 672 l 5
 150 0 l 5
EndSplineSet
KernsSLIF: 422 -100 0 0
EndChar
StartChar: afii10021
Encoding: 426 1044 320
Width: 767
Flags: W
HStem: 0 67<176 667> 719 20G<348 420>
VStem: 26 74<-126 0> 667 74<-126 67>
DStem: 348 739 384 647 96 67 176 67 384 647 420 739 593 67 671 67
Fore
176 67 m 1
 593 67 l 1
 384 647 l 1
 176 67 l 1
667 0 m 1
 100 0 l 1
 100 -126 l 1
 26 -126 l 1
 26 67 l 1
 96 67 l 1
 348 739 l 1
 420 739 l 1
 671 67 l 1
 741 67 l 1
 741 -126 l 1
 667 -126 l 1
 667 0 l 1
EndSplineSet
EndChar
StartChar: afii10022
Encoding: 427 1045 321
Width: 536
Flags: W
HStem: 0 67<150 480> 340 67<150 469> 672 67<76 480>
VStem: 76 74<0 340 0 672>
Fore
76 0 m 1
 76 739 l 1
 480 739 l 1
 480 672 l 1
 150 672 l 1
 150 407 l 1
 469 407 l 1
 469 340 l 1
 150 340 l 1
 150 67 l 1
 480 67 l 1
 480 0 l 1
 76 0 l 1
EndSplineSet
EndChar
StartChar: afii10023
Encoding: 428 1025 322
Width: 536
Flags: W
HStem: 0 67<150 480> 340 67<150 469> 672 67<76 480> 798 126<168 242 315 389>
VStem: 76 74<0 340 0 672> 168 74<798 924> 315 74<798 924>
Fore
76 0 m 1
 76 739 l 1
 480 739 l 1
 480 672 l 1
 150 672 l 1
 150 407 l 1
 469 407 l 1
 469 340 l 1
 150 340 l 1
 150 67 l 1
 480 67 l 1
 480 0 l 1
 76 0 l 1
168 924 m 1
 242 924 l 1
 242 798 l 1
 168 798 l 1
 168 924 l 1
315 924 m 1
 389 924 l 1
 389 798 l 1
 315 798 l 1
 315 924 l 1
EndSplineSet
Ligature: 0 1 'liga' afii10022 uni0308
LCarets: 0 65535 '    ' 1 0 
EndChar
StartChar: afii10024
Encoding: 429 1046 323
Width: 974
Flags: W
HStem: 0 21G<45 138 455 529 841 934> 719 20G<55 148 455 529 831 924>
VStem: 455 74<0 739>
DStem: 55 739 148 739 337 379 430 379 337 379 430 379 45 0 138 0 549 379 642 379 841 0 934 0 831 739 924 739 549 379 642 379
Fore
138 0 m 1
 45 0 l 1
 337 379 l 1
 55 739 l 1
 148 739 l 1
 430 379 l 1
 138 0 l 1
529 0 m 1
 455 0 l 1
 455 739 l 1
 529 739 l 1
 529 0 l 1
841 0 m 1
 549 379 l 1
 831 739 l 1
 924 739 l 1
 642 379 l 1
 934 0 l 1
 841 0 l 1
EndSplineSet
EndChar
StartChar: afii10025
Encoding: 430 1047 324
Width: 673
Flags: W
HStem: -13 68<347 381> 357 67<291 429> 549 21G<77 152> 684 68<347 381>
VStem: 553 77<532.144 564> 573 75<192 212>
Fore
123 194 m 1xf4
 144 154 230 55 360 55 c 0
 480 55 573 96 573 206 c 0xf4
 573 298 499 357 415 357 c 2
 291 357 l 1
 291 424 l 1
 417 424 l 2
 498 424 553 476 553 549 c 0
 553 638 456 684 366 684 c 0
 196 684 152 549 152 549 c 1
 77 549 l 1
 77 549 126 752 370 752 c 0
 498 752 630 676 630 550 c 0xf8
 630 474 589 419 533 387 c 1
 586 371 648 302 648 210 c 0
 648 60 540 -13 354 -13 c 0
 142 -13 54 160 44 194 c 1
 123 194 l 1xf4
EndSplineSet
EndChar
StartChar: afii10026
Encoding: 431 1048 325
Width: 663
Flags: W
HStem: 0 21G<76 183 513 587> 719 20G<76 150 507 587>
VStem: 76 74<0 739> 513 74<0 739>
DStem: 507 739 513 619 150 83 183 0
Fore
76 739 m 1
 150 739 l 1
 150 83 l 1
 507 739 l 1
 587 739 l 1
 587 0 l 1
 513 0 l 1
 513 619 l 1
 183 0 l 1
 76 0 l 1
 76 739 l 1
EndSplineSet
EndChar
StartChar: afii10027
Encoding: 432 1049 326
Width: 663
Flags: W
HStem: 0 21G<76 183 513 587> 719 20G<76 150 507 587> 799 58<316.265 335>
VStem: 76 74<0 739> 513 74<0 739>
DStem: 507 739 513 619 150 83 183 0
Fore
180 919 m 1
 244 919 l 1
 248 894 255 883 270 873 c 0
 288 863 310 857 332 857 c 0
 354 857 376 863 394 873 c 0
 409 883 416 894 420 919 c 1
 484 919 l 1
 475 870 463 848 435 828 c 0
 409 809 374 799 332 799 c 0
 243 799 195 837 180 919 c 1
76 739 m 1
 150 739 l 1
 150 83 l 1
 507 739 l 1
 587 739 l 1
 587 0 l 1
 513 0 l 1
 513 619 l 1
 183 0 l 1
 76 0 l 1
 76 739 l 1
EndSplineSet
Ligature: 0 1 'liga' afii10026 uni0306
EndChar
StartChar: afii10028
Encoding: 433 1050 327
Width: 591
Flags: W
HStem: 0 21G<76 150 477 570> 719 20G<76 150 467 560>
VStem: 76 74<0 739>
DStem: 165 379 258 379 477 0 570 0 467 739 560 739 165 379 258 379
Fore
150 0 m 1
 76 0 l 1
 76 739 l 1
 150 739 l 1
 150 0 l 1
477 0 m 1
 165 379 l 1
 467 739 l 1
 560 739 l 1
 258 379 l 1
 570 0 l 1
 477 0 l 1
EndSplineSet
EndChar
StartChar: afii10029
Encoding: 434 1051 328
Width: 702
Flags: W
HStem: 0 21G<35 116 587 665> 719 20G<314 386>
DStem: 314 739 351 647 35 0 116 0 351 647 386 739 587 0 665 0
Fore
314 739 m 1
 386 739 l 1
 665 0 l 1
 587 0 l 1
 351 647 l 1
 116 0 l 1
 35 0 l 1
 314 739 l 1
EndSplineSet
EndChar
StartChar: afii10030
Encoding: 435 1052 329
Width: 919
Flags: W
HStem: 0 21G<106 180 427 491 739 813> 719 20G<106 221 698 813>
VStem: 106 74<0 658> 739 74<0 739>
DStem: 180 658 221 739 427 0 460 110 698 739 739 658 460 110 491 0
Fore
106 0 m 1
 106 739 l 1
 221 739 l 1
 460 110 l 1
 698 739 l 1
 813 739 l 1
 813 0 l 1
 739 0 l 1
 739 658 l 1
 491 0 l 1
 427 0 l 1
 180 658 l 1
 180 0 l 1
 106 0 l 1
EndSplineSet
EndChar
StartChar: afii10031
Encoding: 436 1053 330
Width: 683
Flags: W
HStem: 347 67<150 533> 719 20G<76 150 533 607>
VStem: 76 74<0 347 0 739> 533 74<0 739>
Fore
76 0 m 1
 76 739 l 1
 150 739 l 1
 150 414 l 1
 533 414 l 1
 533 739 l 1
 607 739 l 1
 607 0 l 1
 533 0 l 1
 533 347 l 1
 150 347 l 1
 150 0 l 1
 76 0 l 1
EndSplineSet
EndChar
StartChar: afii10032
Encoding: 437 1054 331
Width: 869
Flags: W
HStem: -13 68<435 445> 684 68<435 445>
VStem: 44 75<354 388> 750 75<354 388>
Fore
435 752 m 0
 649 752 825 580 825 369 c 0
 825 160 649 -13 435 -13 c 0
 218 -13 44 159 44 374 c 0
 44 579 223 752 435 752 c 0
435 684 m 0
 264 684 119 541 119 372 c 0
 119 197 261 55 435 55 c 0
 607 55 750 197 750 368 c 0
 750 541 607 684 435 684 c 0
EndSplineSet
EndChar
StartChar: afii10033
Encoding: 438 1055 332
Width: 683
Flags: W
HStem: 0 21G<76 150 533 607> 672 67<76 533>
VStem: 76 74<0 672> 533 74<0 739>
Fore
76 0 m 1
 76 739 l 1
 607 739 l 1
 607 0 l 1
 533 0 l 1
 533 672 l 1
 150 672 l 1
 150 0 l 1
 76 0 l 1
EndSplineSet
EndChar
StartChar: afii10034
Encoding: 439 1056 333
Width: 592
Flags: W
HStem: 0 21G<76 150> 299 67<150 317> 672 67<76 301>
VStem: 76 74<0 299 0 672> 490 75<515 529>
Fore
76 0 m 1
 76 739 l 1
 280 739 l 2
 375 739 431 728 477 700 c 0
 533 667 565 600 565 515 c 0
 565 441 539 380 491 345 c 0
 446 312 392 299 292 299 c 2
 150 299 l 1
 150 0 l 1
 76 0 l 1
150 366 m 1
 287 366 l 2
 355 366 398 373 429 391 c 0
 467 412 490 458 490 515 c 0
 490 581 466 628 423 650 c 0
 393 665 340 672 255 672 c 2
 150 672 l 1
 150 366 l 1
EndSplineSet
KernsSLIF: 426 -140 0 0 422 -120 0 0
EndChar
StartChar: afii10035
Encoding: 440 1057 334
Width: 813
Flags: W
HStem: -13 68<411 445> 547 21G<684 767> 684 68<411 445>
VStem: 44 75<354 388>
Fore
688 194 m 1
 770 194 l 1
 696 57 582 -13 432 -13 c 0
 211 -13 44 151 44 367 c 0
 44 588 207 752 427 752 c 0
 580 752 710 674 767 547 c 1
 684 547 l 1
 656 591 636 613 603 634 c 0
 554 667 494 684 430 684 c 0
 254 684 119 548 119 370 c 0
 119 197 260 55 431 55 c 0
 498 55 565 77 614 116 c 0
 639 135 657 155 688 194 c 1
EndSplineSet
EndChar
StartChar: afii10036
Encoding: 441 1058 335
Width: 526
Flags: W
HStem: 0 21G<226 300> 672 67<7 226 7 519>
VStem: 226 74<0 672>
Fore
226 0 m 1
 226 672 l 1
 7 672 l 1
 7 739 l 1
 519 739 l 5
 519 672 l 5
 300 672 l 1
 300 0 l 1
 226 0 l 1
EndSplineSet
EndChar
StartChar: afii10037
Encoding: 442 1059 336
Width: 596
Flags: W
HStem: 0 21G<123 204> 719 20G<4 86 511 592>
DStem: 4 739 86 739 253 247 296 325 253 247 334 247 123 0 204 0 511 739 592 739 296 325 334 247
Fore
123 0 m 1
 253 247 l 1
 4 739 l 1
 86 739 l 1
 296 325 l 1
 511 739 l 1
 592 739 l 1
 334 247 l 1
 204 0 l 1
 123 0 l 1
EndSplineSet
MinimumDistance: x2,6 
EndChar
StartChar: afii10038
Encoding: 443 1060 337
Width: 825
Flags: W
HStem: 67 68<378 378 452 481.607> 644 68<378 378 452 480.132>
VStem: 48 75<373 407> 378 74<-42 67 135 644 711 794> 710 75<373 407>
Fore
452 67 m 1
 452 -42 l 1
 378 -42 l 1
 378 67 l 1
 161 67 48 198 48 394 c 0
 48 590 166 712 378 712 c 1
 378 794 l 1
 452 794 l 1
 452 712 l 1
 654 712 785 594 785 389 c 0
 785 186 655 67 452 67 c 1
452 644 m 1
 452 135 l 1
 617 135 710 223 710 388 c 0
 710 555 609 644 452 644 c 1
378 644 m 1
 219 644 123 548 123 392 c 0
 123 236 217 135 378 135 c 1
 378 644 l 1
EndSplineSet
EndChar
StartChar: afii10039
Encoding: 444 1061 338
Width: 609
Flags: W
HStem: 0 21G<8 95 514 601> 719 20G<22 109 500 586>
DStem: 22 739 109 739 259 378 305 443 259 378 305 316 8 0 95 0 305 316 349 378 514 0 601 0 500 739 586 739 305 443 349 378
Fore
8 0 m 1
 259 378 l 1
 22 739 l 1
 109 739 l 1
 305 443 l 1
 500 739 l 1
 586 739 l 1
 349 378 l 1
 601 0 l 1
 514 0 l 1
 305 316 l 1
 95 0 l 1
 8 0 l 1
EndSplineSet
EndChar
StartChar: afii10040
Encoding: 445 1062 339
Width: 712
Flags: W
HStem: 0 67<149 594> 719 20G<76 150 533 607>
VStem: 76 74<0 739> 533 74<67 739> 594 74<-140 67>
Fore
76 739 m 1xe8
 150 739 l 1
 150 67 l 1
 533 67 l 1
 533 739 l 1
 607 739 l 1
 607 67 l 5xf0
 668 67 l 5
 668 -140 l 5
 594 -140 l 5
 594 0 l 5
 76 0 l 1
 76 739 l 1xe8
EndSplineSet
EndChar
StartChar: afii10041
Encoding: 446 1063 340
Width: 635
Flags: W
HStem: 0 21G<485 559> 289 67<273 485> 719 20G<66 140 485 559>
VStem: 66 74<479 739> 485 74<0 739>
Fore
66 739 m 1
 140 739 l 1
 140 504 l 2
 140 362 207 356 312 356 c 2
 485 356 l 1
 485 739 l 1
 559 739 l 1
 559 0 l 1
 485 0 l 1
 485 289 l 1
 310 289 l 2
 123 289 66 354 66 510 c 2
 66 739 l 1
EndSplineSet
EndChar
StartChar: afii10042
Encoding: 447 1064 341
Width: 964
Flags: W
HStem: 0 67<149 888> 719 20G<76 150 445 519 814 888>
VStem: 76 74<0 739> 445 74<67 739> 814 74<67 739>
CounterMasks: 1 00
Fore
76 739 m 1
 150 739 l 1
 150 67 l 1
 445 67 l 1
 445 739 l 1
 519 739 l 1
 519 67 l 1
 814 67 l 1
 814 739 l 1
 888 739 l 1
 888 0 l 1
 76 0 l 1
 76 739 l 1
EndSplineSet
EndChar
StartChar: afii10043
Encoding: 448 1065 342
Width: 983
Flags: W
HStem: 0 67<149 875> 719 20G<76 150 445 519 814 888>
VStem: 76 74<0 739> 445 74<67 739> 814 74<67 739> 875 74<-140 67>
Fore
949 67 m 1xf4
 949 -140 l 1
 875 -140 l 1
 875 0 l 1xf4
 76 0 l 1
 76 739 l 1
 150 739 l 1
 150 67 l 1
 445 67 l 1
 445 739 l 1
 519 739 l 1
 519 67 l 1
 814 67 l 1
 814 739 l 1
 888 739 l 1
 888 67 l 1xf8
 949 67 l 1xf4
EndSplineSet
EndChar
StartChar: afii10044
Encoding: 449 1066 343
Width: 788
Flags: W
HStem: 0 67<289 423> 407 67<289 423> 672 67<6 215>
VStem: 215 74<0 407 0 739> 641 75<236 257>
Fore
215 0 m 5
 215 672 l 5
 6 672 l 5
 6 739 l 5
 289 739 l 5
 289 474 l 1
 398 474 l 2
 612 474 716 405 716 236 c 0
 716 70 611 0 398 0 c 2
 215 0 l 5
289 407 m 1
 289 67 l 1
 393 67 l 2
 549 67 641 104 641 236 c 0
 641 370 550 407 393 407 c 2
 289 407 l 1
EndSplineSet
EndChar
StartChar: afii10045
Encoding: 450 1067 344
Width: 804
Flags: W
HStem: 0 67<150 285> 407 67<150 285> 719 20G<76 150 654 728>
VStem: 76 74<0 407 0 739> 502 75<236 257> 654 74<0 739>
Fore
150 474 m 5
 259 474 l 6
 473 474 577 405 577 236 c 4
 577 70 472 0 259 0 c 6
 76 0 l 5
 76 739 l 5
 150 739 l 5
 150 474 l 5
150 407 m 5
 150 67 l 5
 254 67 l 6
 410 67 502 104 502 236 c 4
 502 370 411 407 254 407 c 6
 150 407 l 5
654 0 m 5
 654 739 l 5
 728 739 l 5
 728 0 l 5
 654 0 l 5
EndSplineSet
EndChar
StartChar: afii10046
Encoding: 451 1068 345
Width: 649
Flags: W
HStem: 0 67<150 285> 407 67<150 285> 719 20G<76 150>
VStem: 76 74<0 407 0 739> 502 75<236 257>
Back
150 67 m 1
 251 67 l 2
 391.914 67 469 99.9882 469 217 c 0
 469 337.108 409.034 373 238 373 c 2
 150 373 l 1
 150 67 l 1
150 739 m 1
 150 440 l 1
 240 440 l 2
 413.261 440 544 401.293 544 221 c 0
 544 64.5595 458.785 0 259 0 c 2
 76 0 l 1
 76 739 l 1
 150 739 l 1
EndSplineSet
Fore
150 474 m 5
 259 474 l 6
 473 474 577 405 577 236 c 4
 577 70 472 0 259 0 c 6
 76 0 l 5
 76 739 l 1
 150 739 l 5
 150 474 l 5
150 407 m 5
 150 67 l 5
 254 67 l 6
 410 67 502 104 502 236 c 4
 502 370 411 407 254 407 c 6
 150 407 l 5
EndSplineSet
EndChar
StartChar: afii10047
Encoding: 452 1069 346
Width: 814
Flags: W
HStem: -13 68<382 397> 347 67<266 694> 547 21G<46 130> 684 68<363 397>
Fore
694 347 m 1
 266 347 l 1
 266 414 l 1
 692 414 l 1
 672 570 545 684 384 684 c 0
 320 684 260 667 210 634 c 0
 178 613 158 591 130 547 c 1
 46 547 l 1
 104 674 234 752 386 752 c 0
 606 752 770 588 770 367 c 0
 770 151 602 -13 382 -13 c 0
 232 -13 118 57 44 194 c 1
 126 194 l 1
 156 155 174 135 200 116 c 1
 248 77 316 55 382 55 c 0
 546 55 682 185 694 347 c 1
EndSplineSet
EndChar
StartChar: afii10048
Encoding: 453 1070 347
Width: 1081
Flags: W
HStem: -13 68<647 669> 347 67<150 260> 684 68<647 669>
VStem: 76 74<0 347 0 739> 76 255<0 388> 962 75<345 388>
Fore
260 414 m 1xf4
 282 601 449 752 647 752 c 0
 861 752 1037 580 1037 369 c 0
 1037 160 861 -13 647 -13 c 0
 439 -13 274 145 260 347 c 1
 150 347 l 1
 150 0 l 1
 76 0 l 1
 76 739 l 1
 150 739 l 1
 150 414 l 1
 260 414 l 1xf4
647 684 m 0
 476 684 331 541 331 372 c 0xec
 331 197 473 55 647 55 c 0
 819 55 962 197 962 368 c 0
 962 541 819 684 647 684 c 0
EndSplineSet
EndChar
StartChar: afii10049
Encoding: 454 1071 348
Width: 604
Flags: W
HStem: 0 21G<38 130 454 528> 279 62<276 419> 672 67<314 454>
VStem: 27 75<495 513> 454 74<0 739>
DStem: 278 279 419 341 38 0 130 0
Fore
278 279 m 1
 113 279 27 370 27 501 c 0
 27 594 66 664 138 703 c 0
 184 728 248 739 345 739 c 2
 528 739 l 1
 528 0 l 1
 454 0 l 1
 454 672 l 1
 350 672 l 2
 272 672 220 664 180 645 c 0
 130 621 102 571 102 504 c 0
 102 420 140 368 214 348 c 0
 249 339 337 341 419 341 c 1
 130 0 l 1
 38 0 l 1
 278 279 l 1
EndSplineSet
EndChar
StartChar: afii10065
Encoding: 455 1072 349
Width: 683
Flags: W
HStem: -13 68<328 347> 492 68<313 347>
VStem: 42 75<258 292> 546 74<0 547>
Fore
620 547 m 1
 620 0 l 1
 546 0 l 1
 546 96 l 1
 488 18 428 -13 335 -13 c 0
 167 -13 42 109 42 272 c 0
 42 436 166 560 330 560 c 0
 425 560 492 526 546 450 c 1
 546 547 l 1
 620 547 l 1
332 492 m 0
 213 492 117 396 117 277 c 0
 117 152 212 55 336 55 c 0
 454 55 546 152 546 276 c 0
 546 398 452 492 332 492 c 0
EndSplineSet
EndChar
StartChar: afii10066
Encoding: 456 1073 350
Width: 656
Flags: W
HStem: -13 68<318 352> 492 68<334 352>
VStem: 47 75<258 292> 543 75<258 292>
Fore
334 560 m 0
 498 560 618 439 618 272 c 0
 618 108 500 -13 340 -13 c 0
 170 -13 47 108 47 277 c 0
 47 477 68 716 321 742 c 0
 438 754 482 754 567 784 c 1
 567 713 l 1
 508 688 439 677 321 668 c 0
 155 655 128 483 120 454 c 1
 183 540 258 560 334 560 c 0
334 492 m 0
 213 492 122 399 122 275 c 0
 122 147 212 55 338 55 c 0
 457 55 543 146 543 271 c 0
 543 398 454 492 334 492 c 0
EndSplineSet
EndChar
StartChar: afii10067
Encoding: 457 1074 351
Width: 531
Flags: W
HStem: 0 68<137 304> 271 67<137 279> 479 68<63 256>
VStem: 63 74<0 271 0 479> 343 74<411 417> 418 74<168 177>
Fore
137 479 m 9
 137 338 l 17
 249 338 l 2
 330 338 343 381 343 411 c 0
 343 441 332 478 252 479 c 2
 137 479 l 9
137 68 m 17
 282 68 l 2
 362 69 418 98 418 168 c 0
 418 238 360 271 279 271 c 2
 137 271 l 9
 137 68 l 17
383 322 m 1
 449 296 492 244 492 168 c 0
 492 58 403 0 283 0 c 2
 63 0 l 1
 63 547 l 1
 253 547 l 2
 373 547 417 471 417 411 c 0
 417 382 407 349 383 322 c 1
EndSplineSet
EndChar
StartChar: afii10068
Encoding: 458 1075 352
Width: 419
Flags: W
HStem: 0 21G<63 136> 479 68<63 414>
VStem: 63 73<0 479>
Fore
63 0 m 1
 63 547 l 5
 414 547 l 5
 414 479 l 5
 136 479 l 5
 136 0 l 5
 63 0 l 1
EndSplineSet
KernsSLIF: 470 -11 0 0
EndChar
StartChar: afii10069
Encoding: 459 1076 353
Width: 668
Flags: W
HStem: 0 67<167 557> 527 20G<295 373>
VStem: 27 84<-120 0> 557 84<-120 67>
DStem: 295 547 331 460 93 67 167 67 331 460 373 547 499 67 575 67
Fore
499 67 m 1
 331 460 l 1
 167 67 l 1
 499 67 l 1
111 0 m 1
 111 -120 l 1
 27 -120 l 1
 27 67 l 1
 93 67 l 1
 295 547 l 1
 373 547 l 1
 575 67 l 1
 641 67 l 1
 641 -120 l 1
 557 -120 l 1
 557 0 l 1
 111 0 l 1
EndSplineSet
KernsSLIF: 470 -39 0 0
EndChar
StartChar: afii10070
Encoding: 460 1077 354
Width: 650
Flags: W
HStem: -13 68<313 347> 249 67<118 611> 492 68<313 347>
Fore
611 249 m 1
 116 249 l 1
 122 141 217 55 329 55 c 0
 412 55 489 105 520 180 c 1
 597 180 l 1
 582 135 556 97 517 60 c 0
 467 13 401 -13 331 -13 c 0
 169 -13 42 114 42 276 c 0
 42 435 167 560 326 560 c 0
 430 560 525 505 574 418 c 0
 601 370 611 324 611 249 c 1
118 316 m 1
 537 316 l 1
 512 425 431 492 325 492 c 0
 221 492 138 421 118 316 c 1
EndSplineSet
EndChar
StartChar: afii10071
Encoding: 461 1105 355
Width: 650
Flags: W
HStem: -13 68<313 347> 249 67<118 611> 492 68<313 347> 623 126<219 293 366 440>
VStem: 219 74<623 749> 366 74<623 749>
Fore
611 249 m 1
 116 249 l 1
 122 141 217 55 329 55 c 0
 412 55 489 105 520 180 c 1
 597 180 l 1
 582 135 556 97 517 60 c 0
 467 13 401 -13 331 -13 c 0
 169 -13 42 114 42 276 c 0
 42 435 167 560 326 560 c 0
 430 560 525 505 574 418 c 0
 601 370 611 324 611 249 c 1
118 316 m 1
 537 316 l 1
 512 425 431 492 325 492 c 0
 221 492 138 421 118 316 c 1
219 749 m 1
 293 749 l 1
 293 623 l 1
 219 623 l 1
 219 749 l 1
366 749 m 1
 440 749 l 1
 440 623 l 1
 366 623 l 1
 366 749 l 1
EndSplineSet
LCarets: 0 65535 '    ' 1 0 
Ligature: 0 1 'liga' afii10070 uni0308
EndChar
StartChar: afii10072
Encoding: 462 1078 356
Width: 808
Flags: W
HStem: 0 21G<7 99 367 441 709 801> 527 20G<21 112 367 441 696 787>
VStem: 367 74<0 547>
DStem: 21 547 112 547 234 272 325 272 234 272 325 272 7 0 99 0 483 272 574 272 709 0 801 0 696 547 787 547 483 272 574 272
Fore
112 547 m 1
 325 272 l 1
 99 0 l 1
 7 0 l 1
 234 272 l 1
 21 547 l 1
 112 547 l 1
441 547 m 1
 441 0 l 1
 367 0 l 1
 367 547 l 1
 441 547 l 1
696 547 m 1
 787 547 l 1
 574 272 l 1
 801 0 l 1
 709 0 l 1
 483 272 l 1
 696 547 l 1
EndSplineSet
EndChar
StartChar: afii10073
Encoding: 463 1079 357
Width: 486
Flags: W
HStem: -13 68<246 268> 255 73<184 268> 492 68<246 258>
VStem: 352 67<417 419> 393 70<151 164>
Fore
27 151 m 5xe8
 94 151 l 5
 94 151 137 55 246 55 c 4
 328 55 393 96 393 151 c 4xe8
 393 220 332 255 256 255 c 6
 184 255 l 5
 184 328 l 5
 256 328 l 6
 307 328 352 354 352 417 c 4
 352 464 294 492 246 492 c 4
 160 492 134 417 134 417 c 5
 67 417 l 5
 67 417 102 560 246 560 c 4
 356 560 419 499 419 417 c 4xf0
 419 366 386 312 351 297 c 5
 414 288 463 216 463 151 c 4
 463 59 380 -13 246 -13 c 4
 72 -13 27 151 27 151 c 5xe8
EndSplineSet
EndChar
StartChar: afii10074
Encoding: 464 1080 358
Width: 608
Flags: W
HStem: 0 21G<63 136 472 545> 527 20G<63 136 472 545>
VStem: 63 73<0 547> 472 73<0 547>
DStem: 472 547 472 445 136 102 136 0
Fore
63 0 m 1
 63 547 l 1
 136 547 l 1
 136 102 l 1
 472 547 l 1
 545 547 l 1
 545 0 l 1
 472 0 l 1
 472 445 l 1
 136 0 l 1
 63 0 l 1
EndSplineSet
EndChar
StartChar: afii10075
Encoding: 465 1081 359
Width: 608
Flags: W
HStem: 0 21G<63 136 472 545> 527 20G<63 136 472 545> 613 58<289.181 320>
VStem: 63 73<0 547> 472 73<0 547>
DStem: 472 547 472 445 136 102 136 0
Fore
153 733 m 1
 217 733 l 1
 221 708 228 697 243 687 c 0
 261 677 283 671 305 671 c 0
 327 671 349 677 367 687 c 0
 382 697 389 708 393 733 c 1
 457 733 l 1
 448 684 436 662 408 642 c 0
 382 623 347 613 305 613 c 0
 216 613 168 651 153 733 c 1
63 0 m 1
 63 547 l 1
 136 547 l 1
 136 102 l 1
 472 547 l 1
 545 547 l 1
 545 0 l 1
 472 0 l 1
 472 445 l 1
 136 0 l 1
 63 0 l 1
EndSplineSet
LCarets: 0 65535 '    ' 1 0 
Ligature: 0 1 'liga' afii10074 uni0306
EndChar
StartChar: afii10076
Encoding: 466 1082 360
Width: 502
Flags: W
HStem: 0 21G<63 137 405 497> 527 20G<63 137 392 483>
VStem: 63 74<0 547>
DStem: 179 272 270 272 405 0 497 0 392 547 483 547 179 272 270 272
Fore
137 547 m 1
 137 0 l 5
 63 0 l 1
 63 547 l 1
 137 547 l 1
392 547 m 1
 483 547 l 1
 270 272 l 5
 497 0 l 5
 405 0 l 5
 179 272 l 5
 392 547 l 1
EndSplineSet
KernsSLIF: 467 40 0 0
EndChar
StartChar: afii10077
Encoding: 467 1083 361
Width: 554
Flags: W
HStem: 0 21G<8 83 471 546> 527 20G<238 316>
DStem: 238 547 275 460 8 0 83 0 275 460 316 547 471 0 546 0
Fore
238 547 m 1
 316 547 l 1
 546 0 l 1
 471 0 l 1
 275 460 l 1
 83 0 l 1
 8 0 l 1
 238 547 l 1
EndSplineSet
KernsSLIF: 470 -29 0 0
EndChar
StartChar: afii10078
Encoding: 468 1084 362
Width: 720
Flags: W
HStem: 0 21G<63 137 321 389 583 657> 527 20G<63 174 546 657>
VStem: 63 74<0 457> 583 74<0 547>
DStem: 137 457 174 547 321 0 358 87 546 547 583 457 358 87 389 0
Fore
583 457 m 1
 389 0 l 1
 321 0 l 1
 137 457 l 1
 137 0 l 1
 63 0 l 1
 63 547 l 1
 174 547 l 1
 358 87 l 1
 546 547 l 1
 657 547 l 1
 657 0 l 1
 583 0 l 1
 583 457 l 1
EndSplineSet
EndChar
StartChar: afii10079
Encoding: 469 1085 363
Width: 579
Flags: W
HStem: 250 67<136 443> 527 20G<63 136 443 516>
VStem: 63 73<0 250 0 547> 443 73<0 547>
Fore
63 0 m 1
 63 547 l 1
 136 547 l 1
 136 317 l 1
 443 317 l 5
 443 547 l 5
 516 547 l 5
 516 0 l 5
 443 0 l 5
 443 250 l 5
 136 250 l 1
 136 0 l 1
 63 0 l 1
EndSplineSet
EndChar
StartChar: afii10080
Encoding: 470 1086 364
Width: 655
Flags: W
HStem: -13 68<313 347> 492 68<329 347>
VStem: 42 75<258 292> 538 75<258 292>
Fore
329 560 m 0
 493 560 613 439 613 272 c 0
 613 108 495 -13 335 -13 c 0
 165 -13 42 109 42 277 c 0
 42 437 167 560 329 560 c 0
329 492 m 0
 208 492 117 399 117 275 c 0
 117 147 207 55 333 55 c 0
 452 55 538 146 538 271 c 0
 538 398 449 492 329 492 c 0
EndSplineSet
EndChar
StartChar: afii10081
Encoding: 471 1087 365
Width: 579
Flags: W
HStem: 0 21G<63 137 442 516> 480 67<63 442>
VStem: 63 74<0 480> 442 74<0 547>
Fore
63 0 m 1
 63 547 l 1
 516 547 l 5
 516 0 l 5
 442 0 l 5
 442 480 l 5
 137 480 l 1
 137 0 l 1
 63 0 l 1
EndSplineSet
EndChar
StartChar: afii10082
Encoding: 472 1088 366
Width: 682
Flags: W
HStem: -13 68<350 368> 492 68<334 368>
VStem: 63 69<-192 289> 565 75<272 289>
Fore
63 547 m 1
 137 547 l 1
 137 453 l 1
 183 522 259 560 352 560 c 0
 515 560 640 435 640 272 c 0
 640 112 513 -13 350 -13 c 0
 259 -13 185 24 137 94 c 1
 137 -192 l 1
 63 -192 l 1
 63 547 l 1
349 492 m 0
 228 492 132 397 132 276 c 0
 132 150 225 55 350 55 c 0
 472 55 565 149 565 272 c 0
 565 398 472 492 349 492 c 0
EndSplineSet
EndChar
StartChar: afii10083
Encoding: 473 1089 367
Width: 647
Flags: W
HStem: -13 68<329 347> 492 68<313 347>
VStem: 42 75<258 292>
Fore
524 161 m 1
 608 161 l 1
 578 104 557 77 522 49 c 0
 471 9 408 -13 340 -13 c 0
 172 -13 42 112 42 275 c 0
 42 434 171 560 335 560 c 0
 458 560 563 491 607 381 c 1
 524 381 l 1
 482 453 415 492 334 492 c 0
 212 492 117 396 117 273 c 0
 117 152 214 55 337 55 c 0
 414 55 467 85 524 161 c 1
EndSplineSet
EndChar
StartChar: afii10084
Encoding: 474 1090 368
Width: 492
Flags: W
HStem: 0 21G<209 283> 480 67<6 209 6 486>
VStem: 209 74<0 480>
Fore
209 0 m 1
 209 480 l 1
 6 480 l 1
 6 547 l 1
 486 547 l 5
 486 480 l 5
 283 480 l 1
 283 0 l 1
 209 0 l 1
EndSplineSet
EndChar
StartChar: afii10085
Encoding: 475 1091 369
Width: 536
Flags: W
HStem: 527 20G<9 90 448 527>
DStem: 9 547 90 547 221 18 263 111 221 18 527 547 132 -192 211 -192 448 547 527 547 263 111 211 -192
Fore
132 -192 m 1
 221 18 l 1
 9 547 l 1
 90 547 l 1
 263 111 l 1
 448 547 l 1
 527 547 l 1
 211 -192 l 1
 132 -192 l 1
EndSplineSet
EndChar
StartChar: afii10086
Encoding: 476 1092 370
Width: 728
Flags: W
HStem: -13 68<333 333 407 428.131> 492 68<333 333 407 426.576>
VStem: 42 75<259 293> 333 74<-108 -13 55 492 559 631> 611 75<259 293>
Fore
407 -108 m 1
 333 -108 l 1
 333 -13 l 1
 163 -13 42 109 42 277 c 0
 42 437 171 560 333 560 c 1
 333 631 l 1
 407 631 l 1
 407 560 l 1
 563 560 686 434 686 272 c 0
 686 108 567 -13 407 -13 c 1
 407 -108 l 1
333 492 m 1
 212 492 117 399 117 275 c 0
 117 147 208 55 333 55 c 1
 333 492 l 1
407 55 m 1
 526 55 611 147 611 271 c 0
 611 393 520 492 407 492 c 1
 407 55 l 1
EndSplineSet
EndChar
StartChar: afii10087
Encoding: 477 1093 371
Width: 480
Flags: W
HStem: 0 21G<8 92 387 472> 527 20G<8 92 387 472>
DStem: 8 547 92 547 198 279 240 336 198 279 240 219 8 0 92 0 240 219 281 279 387 0 472 0 387 547 472 547 240 336 281 279
Fore
8 0 m 1
 198 279 l 1
 8 547 l 1
 92 547 l 1
 240 336 l 1
 387 547 l 1
 472 547 l 1
 281 279 l 1
 472 0 l 1
 387 0 l 1
 240 219 l 1
 92 0 l 1
 8 0 l 1
EndSplineSet
EndChar
StartChar: afii10088
Encoding: 478 1094 372
Width: 560
Flags: W
HStem: 0 67<136 459> 527 20G<63 137 393 467>
VStem: 63 74<0 547> 393 74<67 547> 459 74<-129 67>
Fore
63 547 m 1xe8
 137 547 l 1
 137 67 l 1
 393 67 l 1
 393 547 l 1
 467 547 l 1
 467 67 l 5xf0
 533 67 l 5
 533 -129 l 5
 459 -129 l 5
 459 0 l 5
 63 0 l 1
 63 547 l 1xe8
EndSplineSet
EndChar
